<svg xmlns="http://www.w3.org/2000/svg" xmlns:xlink="http://www.w3.org/1999/xlink" width="174.905" height="59.563" viewBox="0 0 174.905 59.563">
  <defs>
    <filter id="Union_94" x="117" y="0" width="57.905" height="59.563" filterUnits="userSpaceOnUse">
      <feOffset dy="3" input="SourceAlpha"/>
      <feGaussianBlur stdDeviation="4" result="blur"/>
      <feFlood flood-opacity="0.349"/>
      <feComposite operator="in" in2="blur"/>
      <feComposite in="SourceGraphic"/>
    </filter>
  </defs>
  <g id="Group_781" data-name="Group 781" transform="translate(-10.479 2.626)">
    <g id="Group_750" data-name="Group 750" transform="translate(10 6)">
      <text id="About_Us" data-name="About Us" transform="translate(63.479 30)" fill="#fafafa" font-size="30" font-family="Avenir-Book, Avenir"><tspan x="-62.52" y="0">About Us</tspan></text>
      <g id="Group_2" data-name="Group 2" transform="translate(129.479 0.374)">
        <g transform="matrix(1, 0, 0, 1, -129, -9)" filter="url(#Union_94)">
          <path id="Union_94-2" data-name="Union 94" d="M19.84,35.559a1.181,1.181,0,0,1-1.181-1.181v-5.2H16.3v5.2a1.181,1.181,0,0,1-1.177,1.181h-9.3a1.181,1.181,0,0,1-1.181-1.181V17.608H1.181a1.181,1.181,0,0,1-.864-1.986h0l.009-.009a1.187,1.187,0,0,1,.1-.093L16.7.287l0,0a1.181,1.181,0,0,1,1.675.124l0,0,3.953,3.953v-1.4a1.181,1.181,0,0,1,1.181-1.181h4.724a1.181,1.181,0,0,1,1.181,1.181V11.45l4.171,4.171h0a1.181,1.181,0,0,1-.864,1.986h-2.4V34.377a1.181,1.181,0,0,1-1.181,1.181l-9.3,0ZM21.021,28v5.2l6.939,0V16.427h0a1.181,1.181,0,0,1,1.181-1.181h.733l-2.818-2.818V4.146H24.694v5.921h0L17.448,2.821,4.172,15.246H5.815A1.181,1.181,0,0,1,7,16.427H7V33.2h6.939V28a1.181,1.181,0,0,1,1.181-1.181H19.84A1.181,1.181,0,0,1,21.021,28Zm-5.9-3.779a1.181,1.181,0,0,1-1.181-1.181V16.663a1.181,1.181,0,0,1,1.181-1.181h4.724a1.181,1.181,0,0,1,1.181,1.181V23.04h0a1.181,1.181,0,0,1-1.181,1.181ZM16.3,21.86h2.362V17.844H16.3Z" transform="translate(129 9)" fill="#fafafa"/>
        </g>
        <path id="Subtraction_88" data-name="Subtraction 88" d="M2.362,5.217H0V1.154H1.181A1.188,1.188,0,0,0,2.362,0V5.217Z" transform="translate(18.659 16.69)" fill="#fafafa"/>
        <path id="Subtraction_87" data-name="Subtraction 87" d="M2.362,14.617H0L.016,0V1.181H1.2A1.183,1.183,0,0,0,2.378,0Z" transform="translate(4.618 16.427)" fill="#fafafa"/>
      </g>
    </g>
  </g>
</svg>
