<svg xmlns="http://www.w3.org/2000/svg" xmlns:xlink="http://www.w3.org/1999/xlink" width="57.221" height="57.774" viewBox="0 0 57.221 57.774">
  <defs>
    <style>
      .cls-1 {
        fill: #fff;
      }

      .cls-2 {
        filter: url(#Union_153);
      }

      .cls-3 {
        filter: url(#Union_152);
      }
    </style>
    <filter id="Union_152" x="0" y="0" width="57.221" height="57.774" filterUnits="userSpaceOnUse">
      <feOffset dy="3" input="SourceAlpha"/>
      <feGaussianBlur stdDeviation="4" result="blur"/>
      <feFlood flood-opacity="0.349"/>
      <feComposite operator="in" in2="blur"/>
      <feComposite in="SourceGraphic"/>
    </filter>
    <filter id="Union_153" x="15.088" y="7.198" width="30.646" height="37.823" filterUnits="userSpaceOnUse">
      <feOffset dy="3" input="SourceAlpha"/>
      <feGaussianBlur stdDeviation="4" result="blur-2"/>
      <feFlood flood-opacity="0.349"/>
      <feComposite operator="in" in2="blur-2"/>
      <feComposite in="SourceGraphic"/>
    </filter>
  </defs>
  <g id="Group_13" data-name="Group 13" transform="translate(12 9)">
    <g class="cls-3" transform="matrix(1, 0, 0, 1, -12, -9)">
      <path id="Union_152-2" data-name="Union 152" class="cls-1" d="M13.263,33.437a16.521,16.521,0,0,1-5.939-2.5,16.66,16.66,0,0,1-6.018-7.308,16.536,16.536,0,0,1-.968-3.118,16.772,16.772,0,0,1,0-6.7,16.512,16.512,0,0,1,2.211-5.5,5.537,5.537,0,0,1,8.563-6.834A16.53,16.53,0,0,1,13.263.891a16.771,16.771,0,0,1,6.7,0,16.521,16.521,0,0,1,1.951.526,5.538,5.538,0,0,1,8.8,6.275q-.085.2-.186.4a16.62,16.62,0,0,1-17.261,25.35ZM2.768,17.164A13.842,13.842,0,1,0,16.61,3.322,13.858,13.858,0,0,0,2.768,17.164Zm1.8-11.627q0,.091.006.181.144-.151.291-.3A16.74,16.74,0,0,1,7.323,3.39q.392-.265.8-.507a2.743,2.743,0,0,0-.786-.115A2.772,2.772,0,0,0,4.568,5.537ZM25.9,3.39a16.734,16.734,0,0,1,2.458,2.028l.019.019a2.77,2.77,0,0,0-3.361-2.6Q25.464,3.1,25.9,3.39Z" transform="translate(12 9)"/>
    </g>
    <g class="cls-2" transform="matrix(1, 0, 0, 1, -12, -9)">
      <path id="Union_153-2" data-name="Union 153" class="cls-1" d="M4.283,13.417.564,9.7l0,0A1.382,1.382,0,0,1,0,8.582v-7.2a1.384,1.384,0,0,1,2.769,0v6.6L6.24,11.459a1.384,1.384,0,1,1-1.957,1.958Z" transform="translate(27.09 16.2)"/>
    </g>
    <path id="Subtraction_141" data-name="Subtraction 141" class="cls-1" d="M4.765,5.814a1.375,1.375,0,0,1-.979-.405L.066,1.689C.043,1.666.021,1.642,0,1.618A1.384,1.384,0,0,0,2.293.573V0L5.743,3.451a1.384,1.384,0,0,1-.979,2.363Z" transform="translate(15.584 15.207)"/>
    <path id="Union_151" data-name="Union 151" class="cls-1" d="M0,33.774V31H.139A13.858,13.858,0,0,0,13.981,17.165,13.863,13.863,0,0,0,.165,3.322,1.392,1.392,0,0,0,1.523,1.938,1.386,1.386,0,0,0,.139.554,16.762,16.762,0,0,1,3.486.891a16.6,16.6,0,0,1,1.951.526,5.539,5.539,0,0,1,8.8,6.275q-.085.2-.186.395A16.634,16.634,0,0,1,15.444,10.7a16.573,16.573,0,0,1,.968,3.118,16.771,16.771,0,0,1,.337,3.348,16.769,16.769,0,0,1-.337,3.347,16.534,16.534,0,0,1-.968,3.118,16.7,16.7,0,0,1-1.532,2.822,16.8,16.8,0,0,1-2.029,2.458,16.7,16.7,0,0,1-2.458,2.028A16.575,16.575,0,0,1,6.6,32.469a16.472,16.472,0,0,1-3.118.968,16.725,16.725,0,0,1-3.347.338ZM9.425,3.391a16.738,16.738,0,0,1,2.458,2.028l.019.019a2.77,2.77,0,0,0-3.361-2.6Q8.992,3.1,9.425,3.391ZM0,3.316c.037,0,.074.006.112.006H0ZM0,.554H.121C.082.554.041.556,0,.56Z" transform="translate(16.472 0)"/>
  </g>
</svg>
