<svg xmlns="http://www.w3.org/2000/svg" xmlns:xlink="http://www.w3.org/1999/xlink" width="64.484" height="66.464" viewBox="0 0 64.484 66.464">
  <defs>
    <style>
      .cls-1 {
        fill: #fff;
      }

      .cls-2 {
        filter: url(#Union_94);
      }
    </style>
    <filter id="Union_94" x="0" y="0" width="64.484" height="66.464" filterUnits="userSpaceOnUse">
      <feOffset dy="3" input="SourceAlpha"/>
      <feGaussianBlur stdDeviation="4" result="blur"/>
      <feFlood flood-opacity="0.349"/>
      <feComposite operator="in" in2="blur"/>
      <feComposite in="SourceGraphic"/>
    </filter>
  </defs>
  <g id="Group_666" data-name="Group 666" transform="translate(12 9)">
    <g class="cls-2" transform="matrix(1, 0, 0, 1, -12, -9)">
      <path id="Union_94-2" data-name="Union 94" class="cls-1" d="M23.689,42.458a1.41,1.41,0,0,1-1.41-1.41v-6.2h-2.82v6.2a1.41,1.41,0,0,1-1.405,1.41H6.944a1.41,1.41,0,0,1-1.41-1.41V21.025H1.41A1.41,1.41,0,0,1,.378,18.654h0l.011-.01a1.419,1.419,0,0,1,.119-.111L19.938.342l0,0a1.41,1.41,0,0,1,2,.148l0,0,4.72,4.72V3.54a1.41,1.41,0,0,1,1.41-1.41h5.64a1.41,1.41,0,0,1,1.41,1.41V13.672l4.981,4.981h0a1.41,1.41,0,0,1-1.031,2.372H36.2V41.048a1.41,1.41,0,0,1-1.41,1.41l-11.105.006Zm1.41-9.025v6.21l8.285,0V19.615h0a1.41,1.41,0,0,1,1.41-1.41h.875L32.305,14.84V4.95h-2.82v7.069h0L20.834,3.368,4.981,18.2H6.944a1.41,1.41,0,0,1,1.41,1.41h0V39.638h8.285v-6.2a1.41,1.41,0,0,1,1.41-1.41h5.64A1.41,1.41,0,0,1,25.1,33.434Zm-7.051-4.512a1.41,1.41,0,0,1-1.41-1.41V19.9a1.41,1.41,0,0,1,1.41-1.41h5.64A1.41,1.41,0,0,1,25.1,19.9v7.614h0a1.41,1.41,0,0,1-1.41,1.41Zm1.41-2.82h2.82V21.307h-2.82Z" transform="translate(12 9)"/>
    </g>
    <path id="Subtraction_88" data-name="Subtraction 88" class="cls-1" d="M2.82,6.23H0V1.378H1.41A1.418,1.418,0,0,0,2.82,0V6.229Z" transform="translate(22.279 19.929)"/>
    <path id="Subtraction_87" data-name="Subtraction 87" class="cls-1" d="M2.82,17.454H0L.02,0V1.41H1.43A1.412,1.412,0,0,0,2.84,0Z" transform="translate(5.514 19.615)"/>
  </g>
</svg>
