<svg xmlns="http://www.w3.org/2000/svg" xmlns:xlink="http://www.w3.org/1999/xlink" width="172.423" height="61.289" viewBox="0 0 172.423 61.289">
  <defs>
    <filter id="Union_138" x="120.32" y="0" width="52.103" height="61.289" filterUnits="userSpaceOnUse">
      <feOffset dy="3" input="SourceAlpha"/>
      <feGaussianBlur stdDeviation="4" result="blur"/>
      <feFlood flood-opacity="0.349"/>
      <feComposite operator="in" in2="blur"/>
      <feComposite in="SourceGraphic"/>
    </filter>
  </defs>
  <g id="Group_778" data-name="Group 778" transform="translate(-10 1)">
    <g id="Group_747" data-name="Group 747" transform="translate(10 4.882)">
      <text id="Find_Ride" data-name="Find Ride" transform="translate(0 30)" fill="#f9fafb" font-size="30" font-family="Avenir-Book, Avenir"><tspan x="0" y="0">Find Ride</tspan></text>
      <g id="Group_660" data-name="Group 660" transform="translate(132.32 3.118)">
        <g transform="matrix(1, 0, 0, 1, -132.32, -9)" filter="url(#Union_138)">
          <path id="Union_138-2" data-name="Union 138" d="M23.874,37.174a3.348,3.348,0,0,1-2.04-1.565L15.289,24.272q-.244.061-.49.111a12.436,12.436,0,0,1-4.964,0A12.312,12.312,0,0,1,.25,14.8a12.436,12.436,0,0,1,0-4.964A12.253,12.253,0,0,1,2.1,5.43,12.35,12.35,0,0,1,7.523.968,12.253,12.253,0,0,1,9.835.25,12.436,12.436,0,0,1,14.8.25,12.248,12.248,0,0,1,19.2,2.1a12.356,12.356,0,0,1,4.463,5.419,12.276,12.276,0,0,1,.718,2.312,12.436,12.436,0,0,1,0,4.964,12.309,12.309,0,0,1-3.265,6.133l6.534,11.317a3.358,3.358,0,0,1-2.908,5.04h0A3.348,3.348,0,0,1,23.874,37.174ZM19.2,22.53a12.337,12.337,0,0,1-1.762.99l6.333,10.968a1.12,1.12,0,0,0,1.94-1.12l-1.584-2.743-4.746-8.22C19.323,22.448,19.264,22.489,19.2,22.53ZM2.128,12.317A10.077,10.077,0,1,0,12.2,2.239,10.089,10.089,0,0,0,2.128,12.317ZM5.373,9.181a1.12,1.12,0,1,1,1.12,1.12A1.12,1.12,0,0,1,5.373,9.181Z" transform="translate(132.32 9)" fill="#f9fafb"/>
        </g>
        <path id="Subtraction_130" data-name="Subtraction 130" d="M24.744,37.289h0a3.355,3.355,0,0,1-2.907-1.68L15.289,24.272c-.162.04-.327.077-.49.111a12.436,12.436,0,0,1-4.964,0A12.312,12.312,0,0,1,.25,14.8a12.436,12.436,0,0,1,0-4.964A12.253,12.253,0,0,1,2.1,5.43,12.351,12.351,0,0,1,7.523.968,12.254,12.254,0,0,1,9.835.25,12.436,12.436,0,0,1,14.8.25,12.248,12.248,0,0,1,19.2,2.1a12.356,12.356,0,0,1,4.463,5.419,12.277,12.277,0,0,1,.718,2.312,12.436,12.436,0,0,1,0,4.964,12.308,12.308,0,0,1-3.265,6.133l-.388-.671a1.12,1.12,0,1,0-1.952,1.079l-.008,0,.613,1.061c-.068.048-.126.088-.18.125a12.351,12.351,0,0,1-1.762.99l6.333,10.968a1.12,1.12,0,0,0,1.94-1.12l1.939-1.12a3.358,3.358,0,0,1-2.908,5.039ZM12.2,2.239A10.077,10.077,0,1,0,22.282,12.317,10.089,10.089,0,0,0,12.2,2.239Z" transform="translate(0 0)" fill="#f9fafb"/>
      </g>
    </g>
  </g>
</svg>
