<?xml version="1.0" encoding="utf-8"?>
<!-- Generator: Adobe Illustrator 23.0.6, SVG Export Plug-In . SVG Version: 6.00 Build 0)  -->
<svg version="1.1" id="Layer_1" xmlns="http://www.w3.org/2000/svg" xmlns:xlink="http://www.w3.org/1999/xlink" x="0px" y="0px"
	 viewBox="0 0 60.2 108.7" style="enable-background:new 0 0 60.2 108.7;" xml:space="preserve">
<style type="text/css">
	.st0{fill:#FFFFFF;stroke:#FFFFFF;stroke-width:4;stroke-miterlimit:10;}
	.st1{fill:url(#SVGID_1_);}
	.st2{fill:url(#SVGID_2_);}
	.st3{fill:url(#SVGID_3_);}
	.st4{fill:url(#SVGID_4_);}
	.st5{fill:url(#SVGID_5_);}
	.st6{fill:none;stroke:#FFFFFF;stroke-width:4;stroke-miterlimit:10;}
	.st7{fill:#FFFFFF;stroke:#1A1818;stroke-width:4;stroke-miterlimit:10;}
	.st8{fill:none;stroke:#FFFFFF;stroke-width:3;stroke-miterlimit:10;}
</style>
<g id="Group_746" transform="translate(-251.34 -505.08)">
	<path id="Path_2774" class="st0" d="M306.5,611.7c-0.1-33.7,0-84.3,0-84.3"/>
	<g id="Group_741" transform="translate(258.73 515.297)">
		<g id="XMLID_1_">
			<g>
				<linearGradient id="SVGID_1_" gradientUnits="userSpaceOnUse" x1="-1.076377e-02" y1="61.5528" x2="47.7" y2="61.5528">
					<stop  offset="0" style="stop-color:#F4CB3C"/>
					<stop  offset="1" style="stop-color:#E0DFDA"/>
				</linearGradient>
				<path class="st1" d="M40.7,27.4c0.2-0.2,0.5-0.5,0.8-0.7c2.1,0.7,4.1,1.5,6,2.5c0.1,22.4,0.1,44.8,0.2,67.2
					c-4.3-0.2-21.6-1.4-34.2-15.1C4.6,71.5-6.4,50.5,4.6,35.9c2.7-3.5,6.1-6.2,10.1-8c0.2,0.2,0.5,0.4,0.7,0.5
					c3.1,2.3,6.7,3.6,10.4,3.9c0.9,0.1,1.8,0.1,2.6,0C32.9,32.2,37.2,30.5,40.7,27.4z M16.4,54.2c0,7,5.7,12.7,12.7,12.7
					s12.6-5.7,12.7-12.7c0-7-5.7-12.7-12.7-12.7S16.4,47.2,16.4,54.2z"/>
				<linearGradient id="SVGID_2_" gradientUnits="userSpaceOnUse" x1="15.05" y1="1.5834" x2="39.65" y2="1.5834">
					<stop  offset="0" style="stop-color:#F4CB3C"/>
					<stop  offset="1" style="stop-color:#E0DFDA"/>
				</linearGradient>
				<path class="st2" d="M39.6-4.1c-0.3,0.1-0.6,0.3-0.9,0.4c-8.1,4-11,11.1-11.4,15.1C26.9,8.3,23.8,0.3,15-4
					c0.2-0.2,0.5-0.3,0.7-0.5c2.8-2,6-3.2,9.2-3.6C30.1-8.7,35.3-7.4,39.6-4.1z"/>
				<linearGradient id="SVGID_3_" gradientUnits="userSpaceOnUse" x1="27.39" y1="4.1828" x2="38.8" y2="4.1828">
					<stop  offset="0" style="stop-color:#F4CB3C"/>
					<stop  offset="1" style="stop-color:#E0DFDA"/>
				</linearGradient>
				<path class="st3" d="M38.8-3.7C30.3,0.5,27.5,8.1,27.4,12.1c0-0.2,0-0.4-0.1-0.7C27.8,7.4,30.7,0.3,38.8-3.7z"/>
				<linearGradient id="SVGID_4_" gradientUnits="userSpaceOnUse" x1="28.41" y1="29.8778" x2="40.75" y2="29.8778">
					<stop  offset="0" style="stop-color:#F4CB3C"/>
					<stop  offset="1" style="stop-color:#E0DFDA"/>
				</linearGradient>
				<path class="st4" d="M40.7,27.4c-3.5,3.1-7.9,4.8-12.3,5C32.8,32.1,37.2,30.5,40.7,27.4z"/>
				<linearGradient id="SVGID_5_" gradientUnits="userSpaceOnUse" x1="15.75" y1="-6.3022" x2="24.97" y2="-6.3022">
					<stop  offset="0" style="stop-color:#F4CB3C"/>
					<stop  offset="1" style="stop-color:#E0DFDA"/>
				</linearGradient>
				<path class="st5" d="M25-8.1c-3.2,0.4-6.4,1.6-9.2,3.6C18.5-6.5,21.7-7.7,25-8.1z"/>
			</g>
			<g>
				<path class="st6" d="M29.1,41.6c-7,0.1-12.6,5.9-12.4,12.9c0.1,6.8,5.6,12.3,12.4,12.4c6.9-0.1,12.4-5.7,12.4-12.5
					c0-0.1,0-0.2,0-0.4C41.4,47.2,35.9,41.7,29.1,41.6z"/>
				<path class="st6" d="M14.7,27.9c-4,1.8-7.4,4.5-10.1,8c-11,14.6,0,35.6,8.9,45.4C26.1,95,43.4,96.2,47.7,96.4
					c-0.1-22.4-0.1-44.8-0.2-67.2c-1.9-1-3.9-1.8-6-2.5"/>
				<path class="st6" d="M25.8,32.3c-3.7-0.3-7.3-1.6-10.4-3.9"/>
				<path class="st6" d="M40.7,27.4c-3.5,3.1-7.9,4.7-12.3,5"/>
				<path class="st6" d="M29.1,66.9c-7,0-12.7-5.7-12.7-12.7s5.7-12.7,12.7-12.7s12.7,5.7,12.7,12.7C41.7,61.2,36.1,66.9,29.1,66.9z
					"/>
				<path class="st6" d="M11.1,0c-6.5,8.8-4.9,21.1,3.6,27.9"/>
				<path class="st6" d="M41.5,26.7c7.3-7.1,8.3-18.5,2.3-26.7"/>
				<path class="st6" d="M14.7,27.9c0.2,0.2,0.5,0.4,0.7,0.5c3.1,2.3,6.7,3.6,10.4,3.9c0.9,0.1,1.8,0.1,2.6,0
					c4.5-0.2,8.8-1.9,12.3-5c0.2-0.2,0.5-0.5,0.8-0.7"/>
				<path class="st6" d="M15.1-4C11-5.9,6.5-6.9,2-6.8"/>
				<path class="st6" d="M52.9-6.7c-4.5-0.1-9,0.8-13.2,2.5"/>
				<path class="st6" d="M38.8-3.7C30.3,0.5,27.5,8.1,27.4,12.1"/>
				<path class="st6" d="M15.7-4.5c2.8-2,6-3.2,9.2-3.6"/>
				<path class="st6" d="M39.6-4.1c-4.3-3.3-9.6-4.6-14.7-4c-3.2,0.4-6.4,1.6-9.2,3.6C15.5-4.4,15.3-4.2,15-4"/>
				<path class="st6" d="M39.6-4.1c-0.3,0.1-0.6,0.3-0.9,0.4c-8.1,4-11,11.1-11.4,15.1c0,0.2,0,0.5,0,0.7c0,0.1,0,0.1,0,0.2"/>
				<path class="st6" d="M15-4c8.7,4.3,11.9,12.4,12.3,15.4c0,0.3,0.1,0.5,0.1,0.7"/>
			</g>
		</g>
	</g>
	<path id="Path_2782" class="st7" d="M285.7,527.4"/>
	<path id="Path_2783" class="st8" d="M252.8,575.9c0.8,4.8,2.5,9.5,4.9,13.8c2.1,3.6,4.7,7,7.7,9.8"/>
	<path id="Path_2784" class="st8" d="M269,601.9c5.2,4.6,8,5.8,8,5.8"/>
</g>
</svg>
