<svg xmlns="http://www.w3.org/2000/svg" xmlns:xlink="http://www.w3.org/1999/xlink" width="594.512" height="410.185" viewBox="0 0 594.512 410.185">
  <defs>
    <linearGradient id="linear-gradient" x1="0.5" x2="0.5" y2="1" gradientUnits="objectBoundingBox">
      <stop offset="0" stop-color="#f5f5f5"/>
      <stop offset="1" stop-color="#7b7b7b"/>
    </linearGradient>
  </defs>
  <g id="Group_828" data-name="Group 828" transform="translate(-284.731 -643.399)">
    <g id="freepik--Shadow--inject-68" transform="translate(224.731 975.571)">
      <ellipse id="freepik--path--inject-68" cx="297.256" cy="39.007" rx="297.256" ry="39.007" transform="translate(60)" fill="url(#linear-gradient)"/>
    </g>
    <g id="Passing_by-pana" data-name="Passing by-pana" transform="translate(356.28 614.039)">
      <g id="freepik--background-complete--inject-102" transform="translate(22.105 49.976)">
        <rect id="Rectangle_722" data-name="Rectangle 722" width="43.51" height="11.51" transform="translate(212.846 105.639)" fill="#fafafa"/>
        <path id="Path_2325" data-name="Path 2325" d="M284.363,195.616v-3.068c0-1.985,0-4.847-.072-8.443l.134.134-43.51.08.224-.215h0v11.51l-.215-.224,31.007.1,9.149.063H284.2a1.184,1.184,0,0,1,.233,0h-3.246l-9.1.063-31.159.1h-.215V184.124h0l.224-.224,43.51.081h.134v.143c0,3.631-.054,6.52-.072,8.523v2.8A.76.76,0,0,1,284.363,195.616Z" transform="translate(-46.403 -66.303)" fill="#e0e0e0"/>
        <path id="Path_2326" data-name="Path 2326" d="M455.449,123.844v-3.068c0-1.985-.045-4.847-.072-8.443l.134.134-43.537.08c.1-.1-.224.224.224-.215h0v11.51l-.224-.206,31.007.1,9.149.063h.107l-9.1.063-31.159.1h-.215V112.334h0l.224-.224,43.51.08h.134v.143c0,3.631-.054,6.52-.072,8.523v2.781a.762.762,0,0,1-.107.206Z" transform="translate(-64.475 -58.719)" fill="#e0e0e0"/>
        <path id="Path_2327" data-name="Path 2327" d="M464.1,110.947a.573.573,0,0,1,0-.215v-.608c0-.572,0-1.342-.045-2.307,0-2.021-.045-4.874-.081-8.38l.161.161-26.16.063c-.206.2.268-.268.215-.215h0v11.483l-.215-.206,18.71.1,5.447.063h1.994a3.069,3.069,0,0,1-.474,0h-1.431l-5.366.063-18.844.1h-.206v-11.7h0c-.054.045.42-.429.224-.224l26.142.063h.161v.152c0,3.577-.063,6.43-.081,8.478,0,.957,0,1.708-.045,2.272a7.555,7.555,0,0,1-.107.859Z" transform="translate(-67.227 -57.341)" fill="#e0e0e0"/>
        <rect id="Rectangle_723" data-name="Rectangle 723" width="43.51" height="11.51" transform="translate(234.132 243.539)" fill="#e0e0e0"/>
        <rect id="Rectangle_724" data-name="Rectangle 724" width="43.51" height="11.51" transform="translate(265.416 219.911)" fill="#fafafa"/>
        <path id="Path_2328" data-name="Path 2328" d="M343.141,323.333a.9.9,0,0,1,0-.206v-2.853c0-1.994-.045-4.847-.071-8.452l.134.134-43.51.089c.1-.1-.224.224.215-.224h0v11.5l-.215-.215,31.007.1,9.149.063h.107l-9.1.063-31.159.1h-.224v-11.6h0c.438-.438.125-.116.224-.224l43.51.089h.134v.134c0,3.64-.054,6.52-.072,8.532v2.8A1.1,1.1,0,0,1,343.141,323.333Z" transform="translate(-52.611 -79.794)" fill="#e0e0e0"/>
        <rect id="Rectangle_725" data-name="Rectangle 725" width="43.51" height="11.51" transform="translate(31.964 47.891)" fill="#e0e0e0"/>
        <rect id="Rectangle_726" data-name="Rectangle 726" width="43.51" height="11.51" transform="translate(63.248 24.254)" fill="#fafafa"/>
        <path id="Path_2329" data-name="Path 2329" d="M117.085,104.612a1.046,1.046,0,0,1,0-.206v-2.862c0-1.985-.045-4.838-.072-8.443l.134.134-43.51.089c.1-.1-.224.215.215-.224h0v11.51l-.224-.215,31.016.1,9.149.063h.045l-9.1.063-31.159.1H73.36V93.084h0l.224-.224,43.51.089h.134v.134c0,3.631-.063,6.52-.08,8.523v2.808a1.243,1.243,0,0,1-.063.2Z" transform="translate(-28.723 -56.685)" fill="#e0e0e0"/>
        <path id="Path_2330" data-name="Path 2330" d="M85.63,323.22l10.759,1.762v17.333L85.63,344.4Z" transform="translate(-30.019 -81.022)" fill="#f5f5f5"/>
        <rect id="Rectangle_727" data-name="Rectangle 727" width="2.728" height="21.187" rx="1.33" transform="translate(65.985 241.876)" fill="#f5f5f5"/>
        <path id="Path_2331" data-name="Path 2331" d="M99.66,329.22h.975a3.577,3.577,0,0,1,3.577,3.577v1.064a3.577,3.577,0,0,1-3.577,3.577H99.66V329.22Z" transform="translate(-31.502 -81.656)" fill="#f5f5f5"/>
        <path id="Path_2332" data-name="Path 2332" d="M97.108,342.6a69.637,69.637,0,0,1-.268-8.684,69.633,69.633,0,0,1,.268-8.684,71.76,71.76,0,0,1,.268,8.684A71.762,71.762,0,0,1,97.108,342.6Z" transform="translate(-31.204 -81.235)" fill="#e0e0e0"/>
        <path id="Path_2333" data-name="Path 2333" d="M100.076,342.728a72.852,72.852,0,0,1-.259-8.684,72.982,72.982,0,0,1,.259-8.684,69.632,69.632,0,0,1,.268,8.684A69.632,69.632,0,0,1,100.076,342.728Z" transform="translate(-31.515 -81.248)" fill="#e0e0e0"/>
        <path id="Path_2334" data-name="Path 2334" d="M42.48,386.175v-88a19.3,19.3,0,0,1,19.291-19.3h0a19.3,19.3,0,0,1,19.3,19.3v88Z" transform="translate(-25.461 -76.338)" fill="#f5f5f5"/>
        <rect id="Rectangle_728" data-name="Rectangle 728" width="51.139" height="10.67" rx="5.19" transform="translate(10.938 223.944)" fill="#f5f5f5"/>
        <path id="Path_2335" data-name="Path 2335" d="M57.389,279.65v-.76a5.536,5.536,0,0,1,5.2-5.849l1.5-.072a5.527,5.527,0,0,1,5.751,5.295l.072,1.315Z" transform="translate(-27.035 -75.713)" fill="#f5f5f5"/>
        <path id="Path_2336" data-name="Path 2336" d="M63.579,270.57h1.136a1.288,1.288,0,0,1,1.243,1.279v1.789H62.3v-1.789A1.288,1.288,0,0,1,63.579,270.57Z" transform="translate(-27.554 -75.46)" fill="#f5f5f5"/>
        <path id="Path_2337" data-name="Path 2337" d="M81.08,302.588c0,.152-8.622.268-19.255.268s-19.264-.116-19.264-.268,8.622-.268,19.264-.268S81.08,302.445,81.08,302.588Z" transform="translate(-25.469 -78.814)" fill="#e0e0e0"/>
        <path id="Path_2338" data-name="Path 2338" d="M56.525,281.24c0,.08-1.118.546-2.853,1.485a19.425,19.425,0,0,0-5.921,4.767,16.993,16.993,0,0,0-3.166,6.887c-.411,1.923-.331,3.157-.42,3.166a2.379,2.379,0,0,1-.116-.894,11.679,11.679,0,0,1,.161-2.37,15.946,15.946,0,0,1,3.121-7.155,17.886,17.886,0,0,1,6.171-4.776,21.677,21.677,0,0,1,2.182-.894,2.583,2.583,0,0,1,.841-.215Z" transform="translate(-25.626 -76.587)" fill="#fafafa"/>
        <path id="Path_2339" data-name="Path 2339" d="M69.871,279.82c-.054.188-2.79-.894-6.26-.966s-6.26,1.1-6.26.894a5.741,5.741,0,0,1,1.789-.76,14.783,14.783,0,0,1,4.552-.689,15.67,15.67,0,0,1,4.552.751,5.5,5.5,0,0,1,1.628.769Z" transform="translate(-27.032 -76.276)" fill="#e0e0e0"/>
        <path id="Path_2340" data-name="Path 2340" d="M66.331,273.265c-.054.143-.948-.125-2.066-.143s-2.021.188-2.075,0,.894-.608,2.084-.572S66.4,273.14,66.331,273.265Z" transform="translate(-27.543 -75.669)" fill="#e0e0e0"/>
        <circle id="Ellipse_612" data-name="Ellipse 612" cx="13.335" cy="13.335" r="13.335" transform="translate(17.809 255.52) rotate(-46.27)" fill="#e0e0e0"/>
        <circle id="Ellipse_613" data-name="Ellipse 613" cx="13.335" cy="13.335" r="13.335" transform="matrix(0.1, -0.995, 0.995, 0.1, 22.056, 264.695)" fill="#f5f5f5"/>
        <path id="Path_2341" data-name="Path 2341" d="M76.168,333.451a21.889,21.889,0,0,0-.519-3.229A13.254,13.254,0,0,0,70.793,323a13.093,13.093,0,0,0-12.414-1.842,12.243,12.243,0,0,0-3.309,1.789,12.521,12.521,0,0,0-2.764,2.781,13.058,13.058,0,0,0,0,15.454,12.521,12.521,0,0,0,2.764,2.781,12.244,12.244,0,0,0,3.309,1.789,13.093,13.093,0,0,0,12.414-1.842,13.254,13.254,0,0,0,4.856-7.217,21.9,21.9,0,0,0,.519-3.229,4.777,4.777,0,0,1,0,.85,6.716,6.716,0,0,1-.081,1.038,9.9,9.9,0,0,1-.25,1.395,13.415,13.415,0,0,1-10.5,10.061,13.558,13.558,0,0,1-7.155-.564,13.727,13.727,0,0,1-6.3-20.9,12.931,12.931,0,0,1,2.88-2.88,12.671,12.671,0,0,1,3.443-1.833,13.558,13.558,0,0,1,7.155-.563,13.415,13.415,0,0,1,10.491,10.1,9.9,9.9,0,0,1,.25,1.4,6.718,6.718,0,0,1,.08,1.037,4.775,4.775,0,0,1-.018.85Z" transform="translate(-26.174 -80.664)" fill="#e0e0e0"/>
        <path id="Path_2342" data-name="Path 2342" d="M69.187,331.524a6.144,6.144,0,1,1-8.273-2.683,6.144,6.144,0,0,1,8.273,2.683Z" transform="translate(-27.054 -81.545)" fill="#e0e0e0"/>
        <path id="Path_2343" data-name="Path 2343" d="M68.147,334.563a4.2,4.2,0,1,1-4.2-4.2,4.2,4.2,0,0,1,4.2,4.2Z" transform="translate(-27.284 -81.777)" fill="#f5f5f5"/>
        <path id="Path_2344" data-name="Path 2344" d="M68.125,334.541a3.206,3.206,0,0,0-.233-1,4.168,4.168,0,0,0-1.538-2.191,4.025,4.025,0,0,0-3.774-.519,3.953,3.953,0,0,0,0,7.423,4.025,4.025,0,0,0,3.774-.519,4.194,4.194,0,0,0,1.538-2.191c.188-.626.188-1,.233-1a2.12,2.12,0,0,1,0,1.046,4.177,4.177,0,0,1-1.538,2.477,4.383,4.383,0,0,1-4.177.689,4.472,4.472,0,0,1,0-8.353,4.382,4.382,0,0,1,4.177.689,4.168,4.168,0,0,1,1.511,2.433,2.146,2.146,0,0,1,.027,1.02Z" transform="translate(-27.263 -81.754)" fill="#e0e0e0"/>
        <path id="Path_2345" data-name="Path 2345" d="M81.033,314.868c0,.143-8.711.268-19.452.268s-19.461-.125-19.461-.268,8.711-.268,19.461-.268S81.033,314.716,81.033,314.868Z" transform="translate(-25.422 -80.112)" fill="#e0e0e0"/>
        <path id="Path_2346" data-name="Path 2346" d="M41.527,304.147c0,.089-.51.089-1.261.34a4.749,4.749,0,0,0-3.318,4.543,12.6,12.6,0,0,1,0,1.306,2.112,2.112,0,0,1-.42-1.288,4.552,4.552,0,0,1,3.64-4.928C41.008,303.95,41.536,304.084,41.527,304.147Z" transform="translate(-24.829 -78.996)" fill="#fafafa"/>
        <path id="Path_2347" data-name="Path 2347" d="M56.792,323.77c.045.089-.894.546-2.084,1.646a11.385,11.385,0,0,0-3.4,11.5,22.852,22.852,0,0,0,.894,2.513c-.045.045-.188-.188-.429-.59a9.723,9.723,0,0,1-.787-1.789A10.992,10.992,0,0,1,54.5,325.156a8.681,8.681,0,0,1,1.655-1.091A1.879,1.879,0,0,1,56.792,323.77Z" transform="translate(-26.303 -81.08)" fill="#fafafa"/>
        <path id="Path_2348" data-name="Path 2348" d="M85.6,351.165c-.143,0-.268-8.174-.268-18.263s.125-18.263.268-18.263.268,8.174.268,18.263S85.75,351.165,85.6,351.165Z" transform="translate(-29.988 -80.116)" fill="#e0e0e0"/>
        <path id="Path_2349" data-name="Path 2349" d="M28.47,409.152v-4.266a3.2,3.2,0,0,1,3.2-3.2h0v-1.4a6.09,6.09,0,0,1,6.091-6.09H81.013c3.372,0,6.046,3.8,6.046,7.155H88.6c1.789,0,3.2.358,3.2,2.129v5.634Z" transform="translate(-23.98 -88.52)" fill="#e0e0e0"/>
        <path id="Path_2350" data-name="Path 2350" d="M88.956,402.208c0,.152-12.78.268-28.539.268s-28.548-.116-28.548-.268,12.78-.268,28.548-.268S88.956,402.065,88.956,402.208Z" transform="translate(-24.34 -89.339)" fill="#f5f5f5"/>
        <path id="Path_2351" data-name="Path 2351" d="M41.29,343.868l-10.75-1.762V324.774l10.75-2.084Z" transform="translate(-24.199 -80.966)" fill="#f5f5f5"/>
        <rect id="Rectangle_729" data-name="Rectangle 729" width="2.728" height="21.187" rx="1.33" transform="translate(6.726 263.224) rotate(180)" fill="#f5f5f5"/>
        <path id="Path_2352" data-name="Path 2352" d="M0,0H.975A3.577,3.577,0,0,1,4.552,3.577V4.642A3.577,3.577,0,0,1,.975,8.219H0V0Z" transform="translate(4.552 257.527) rotate(180)" fill="#f5f5f5"/>
        <path id="Path_2353" data-name="Path 2353" d="M31.028,324.94a71.764,71.764,0,0,1,.268,8.684,71.761,71.761,0,0,1-.268,8.684,69.631,69.631,0,0,1-.268-8.684A69.634,69.634,0,0,1,31.028,324.94Z" transform="translate(-24.222 -81.204)" fill="#e0e0e0"/>
        <path id="Path_2354" data-name="Path 2354" d="M28.045,324.81a69.632,69.632,0,0,1,.268,8.684,69.633,69.633,0,0,1-.268,8.684,71.764,71.764,0,0,1-.268-8.684A71.762,71.762,0,0,1,28.045,324.81Z" transform="translate(-23.904 -81.19)" fill="#e0e0e0"/>
        <path id="Path_2355" data-name="Path 2355" d="M42.538,362.067c-.152,0-.268-10.33-.268-23.074s.116-23.083.268-23.083.268,10.33.268,23.083S42.681,362.067,42.538,362.067Z" transform="translate(-25.438 -80.25)" fill="#e0e0e0"/>
        <path id="Path_2356" data-name="Path 2356" d="M128.915,456c.045.125-11.054,4.472-24.782,9.641s-24.908,9.319-24.952,9.194,11.045-4.472,24.782-9.632S128.87,455.919,128.915,456Z" transform="translate(-29.338 -95.05)" fill="#e0e0e0"/>
        <path id="Path_2357" data-name="Path 2357" d="M278.344,458.64c.054.116-11.117,5.205-24.943,11.358s-25.087,11.054-25.14,10.938,11.117-5.205,24.952-11.358S278.29,458.523,278.344,458.64Z" transform="translate(-45.088 -95.329)" fill="#e0e0e0"/>
        <path id="Path_2358" data-name="Path 2358" d="M446.3,453.25a2.03,2.03,0,0,1-.4.393l-1.207,1.064c-1.046.894-2.6,2.2-4.543,3.765-3.882,3.13-9.382,7.28-15.7,11.528s-12.262,7.745-16.626,10.151c-2.191,1.2-3.971,2.146-5.214,2.772l-1.44.707a2.22,2.22,0,0,1-.519.224,3.459,3.459,0,0,1,.474-.3l1.4-.787c1.225-.671,2.978-1.663,5.142-2.9,4.32-2.477,10.213-6.028,16.528-10.258s11.832-8.335,15.758-11.394c1.968-1.529,3.577-2.772,4.633-3.649l1.27-.993a2.686,2.686,0,0,1,.456-.322Z" transform="translate(-63.3 -94.76)" fill="#e0e0e0"/>
        <path id="Path_2359" data-name="Path 2359" d="M87.253,208.888a1.845,1.845,0,0,1,0-.206V205.82c0-1.985,0-4.838-.072-8.443l.134.134-43.51.089.224-.224h0V208.87l-.215-.215,31.007.1,9.149.063h.107l-9.1.054-31.159.1H43.6V197.262h0c.447-.438.125-.125.224-.224l43.51.089h.134v.134c0,3.64-.054,6.52-.072,8.523v2.808A.428.428,0,0,1,87.253,208.888Z" transform="translate(-25.579 -67.689)" fill="#e0e0e0"/>
        <path id="Path_2360" data-name="Path 2360" d="M246.073,77.056a1.206,1.206,0,0,1,0-.215V73.988c0-1.985,0-4.847-.072-8.443l.134.134-43.51.08.215-.215h0v11.51l-.215-.215,31.007.1,9.149.054h.036l-9.1.063-31.159.1h-.224V65.564h0l.224-.224,43.51.089h.134v.134c0,3.631-.054,6.52-.072,8.523v2.8a1.483,1.483,0,0,1-.054.17Z" transform="translate(-42.349 -53.777)" fill="#e0e0e0"/>
        <path id="Path_2361" data-name="Path 2361" d="M254.735,64.18a.686.686,0,0,1,0-.224c0-.161,0-.367,0-.608,0-.563,0-1.333-.045-2.307,0-2.021-.045-4.874-.08-8.371l.161.152-26.142.063c-.206.2.268-.268.215-.215h0V64.162l-.215-.215,18.7.1,5.456.063h1.994a3.063,3.063,0,0,1-.474,0h-1.431l-5.366.054-18.844.1h-.206V52.687h0c-.054,0,.42-.42.224-.224l26.142.063h.054v.161c0,3.577-.063,6.421-.08,8.469,0,.957,0,1.708-.045,2.272A5.744,5.744,0,0,0,254.735,64.18Z" transform="translate(-45.109 -52.411)" fill="#e0e0e0"/>
        <path id="Path_2362" data-name="Path 2362" d="M397.743,210.866a.892.892,0,0,1,0-.206v-2.853c0-1.994,0-4.847-.081-8.452l.134.134-43.5.089c.089-.1-.224.224.215-.224h0v11.492l-.215-.215,31.007.1,9.158.063h.036l-9.1.063-31.159.1H354V199.374h0l.233-.224,43.5.089h.143v.134c0,3.64-.063,6.52-.081,8.532v2.8a1.1,1.1,0,0,1-.054.161Z" transform="translate(-58.373 -67.914)" fill="#e0e0e0"/>
        <path id="Path_2363" data-name="Path 2363" d="M406.383,197.981v-3.139c0-2.012-.054-4.865-.089-8.371l.161.161-26.142.063.224-.224h0v11.5l-.215-.206,18.7.1,5.447.054h1.994a2.93,2.93,0,0,1-.474,0h-1.422l-5.366.063-18.844.1H380V186.364h0l.224-.224,26.142.063h.161v.161c0,3.577-.063,6.43-.089,8.469V197.1A5.949,5.949,0,0,1,406.383,197.981Z" transform="translate(-61.119 -66.54)" fill="#e0e0e0"/>
      </g>
      <g id="freepik--Floor--inject-102" transform="translate(10.72 370.59)">
        <path id="Path_2364" data-name="Path 2364" d="M436.431,428.684c0,.134-95.293.206-212.855.17s-212.855-.17-212.855-.3,95.275-.206,212.855-.17S436.431,428.559,436.431,428.684Z" transform="translate(-10.72 -412.747)" fill="#263238"/>
        <path id="Path_2365" data-name="Path 2365" d="M436.431,411.423c0,.125-95.293.2-212.855.161s-212.855-.161-212.855-.3,95.275-.206,212.855-.17S436.431,411.289,436.431,411.423Z" transform="translate(-10.72 -410.922)" fill="#263238"/>
        <path id="Path_2366" data-name="Path 2366" d="M31.969,427.338a145.38,145.38,0,0,1,0-16.438,73.695,73.695,0,0,1,.233,8.219A73.829,73.829,0,0,1,31.969,427.338Z" transform="translate(-12.937 -410.9)" fill="#263238"/>
        <path id="Path_2367" data-name="Path 2367" d="M86.7,427.338a145.355,145.355,0,0,1,0-16.438,71.193,71.193,0,0,1,.233,8.219,71.316,71.316,0,0,1-.233,8.219Z" transform="translate(-18.72 -410.9)" fill="#263238"/>
        <path id="Path_2368" data-name="Path 2368" d="M141.429,427.338a71.309,71.309,0,0,1-.233-8.219,71.188,71.188,0,0,1,.233-8.219,145.374,145.374,0,0,1,0,16.438Z" transform="translate(-24.502 -410.9)" fill="#263238"/>
        <path id="Path_2369" data-name="Path 2369" d="M196.149,427.338a71.313,71.313,0,0,1-.233-8.219,71.194,71.194,0,0,1,.233-8.219,145.4,145.4,0,0,1,0,16.438Z" transform="translate(-30.283 -410.9)" fill="#263238"/>
        <path id="Path_2370" data-name="Path 2370" d="M250.869,427.338a145.365,145.365,0,0,1,0-16.438,145.365,145.365,0,0,1,0,16.438Z" transform="translate(-36.064 -410.9)" fill="#263238"/>
        <path id="Path_2371" data-name="Path 2371" d="M305.589,427.338a145.4,145.4,0,0,1,0-16.438,71.181,71.181,0,0,1,.233,8.219A71.316,71.316,0,0,1,305.589,427.338Z" transform="translate(-41.845 -410.9)" fill="#263238"/>
        <path id="Path_2372" data-name="Path 2372" d="M367.869,427.338a145.441,145.441,0,0,1,0-16.438,145.384,145.384,0,0,1,0,16.438Z" transform="translate(-48.425 -410.9)" fill="#263238"/>
        <path id="Path_2373" data-name="Path 2373" d="M430.149,427.338a71.33,71.33,0,0,1-.233-8.219,71.181,71.181,0,0,1,.233-8.219,145.365,145.365,0,0,1,0,16.438Z" transform="translate(-55.005 -410.9)" fill="#263238"/>
      </g>
      <g id="freepik--Plant--inject-102" transform="translate(298.876 317.781)">
        <path id="Path_2374" data-name="Path 2374" d="M352.444,373.726c-1.529,2.057-4.365,1.288-5.652,0s-1.789-3.184-2.263-4.964c-1.055-4.078-2.12-8.344-1.145-12.44a6.922,6.922,0,0,1,1.672-3.327,3.577,3.577,0,0,1,3.443-1.046c1.431.42,2.29,1.851,2.9,3.211a29.514,29.514,0,0,1,2.585,12.762,10.214,10.214,0,0,1-1.538,5.831" transform="translate(-333.981 -351.853)" fill="#27496d"/>
        <g id="Group_721" data-name="Group 721" transform="translate(9.019)" opacity="0.2">
          <path id="Path_2375" data-name="Path 2375" d="M352.444,373.726c-1.529,2.057-4.365,1.288-5.652,0s-1.789-3.184-2.263-4.964c-1.055-4.078-2.12-8.344-1.145-12.44a6.922,6.922,0,0,1,1.672-3.327,3.577,3.577,0,0,1,3.443-1.046c1.431.42,2.29,1.851,2.9,3.211a29.514,29.514,0,0,1,2.585,12.762,10.214,10.214,0,0,1-1.538,5.831" transform="translate(-343 -351.853)"/>
        </g>
        <path id="Path_2376" data-name="Path 2376" d="M345.592,387.84a12.727,12.727,0,0,0-7.87-1.172,6.556,6.556,0,0,0-3.944,1.637c-1,1.055-1.234,2.942-.143,3.9a3.8,3.8,0,0,0,2.442.689c2.093,0,4.418-.277,6.046,1.02.939.742,1.538,1.95,2.683,2.334a2.683,2.683,0,0,0,3-1.243,4.561,4.561,0,0,0,.42-3.381,5.16,5.16,0,0,0-2.63-3.783Z" transform="translate(-332.915 -355.512)" fill="#27496d"/>
        <path id="Path_2377" data-name="Path 2377" d="M357.828,377.711a7.62,7.62,0,0,1-1-7.056,13.415,13.415,0,0,1,4.32-5.921,22.358,22.358,0,0,1,7.557-4.2,8.049,8.049,0,0,1,3.372-.483,3.524,3.524,0,0,1,2.764,1.789c.742,1.512-.054,3.309-.894,4.767a57.413,57.413,0,0,1-5.089,7.316c-1.52,1.851-3.247,3.676-5.509,4.472s-4.57.635-5.715-.948" transform="translate(-335.394 -352.716)" fill="#27496d"/>
        <path id="Path_2378" data-name="Path 2378" d="M351.5,409.378a4.683,4.683,0,0,1-.107-.957q-.08-1.046-.188-2.6a36.485,36.485,0,0,0-.483-3.837,29.085,29.085,0,0,0-1.27-4.534,16.779,16.779,0,0,0-2.191-4.141,8.523,8.523,0,0,0-2.844-2.486,8.167,8.167,0,0,0-2.424-.832,4.165,4.165,0,0,1-.948-.161,4.976,4.976,0,0,1,.966,0,7.549,7.549,0,0,1,2.531.733,8.5,8.5,0,0,1,3.005,2.522,16.287,16.287,0,0,1,2.272,4.212,27.355,27.355,0,0,1,1.261,4.615,31.464,31.464,0,0,1,.4,3.881c.054,1.1.063,1.994.063,2.62A4.241,4.241,0,0,1,351.5,409.378Z" transform="translate(-333.775 -355.862)" fill="#263238"/>
        <path id="Path_2379" data-name="Path 2379" d="M352.156,404.357a1.711,1.711,0,0,1,0-.447q0-.5,0-1.261c0-1.1.072-2.683.072-4.651,0-3.926-.2-9.346-.689-15.311s-1.234-11.349-1.923-15.2c-.161-.966-.331-1.842-.483-2.6s-.277-1.422-.4-1.959l-.268-1.243a1.569,1.569,0,0,1-.063-.438,2.349,2.349,0,0,1,.143.42c.089.322.2.724.331,1.225s.3,1.181.474,1.95.358,1.628.546,2.594a144.8,144.8,0,0,1,2.039,15.2c.492,5.983.644,11.421.572,15.347,0,1.968-.116,3.577-.2,4.66q-.063.76-.107,1.261A2.2,2.2,0,0,1,352.156,404.357Z" transform="translate(-334.551 -352.844)" fill="#263238"/>
        <path id="Path_2380" data-name="Path 2380" d="M352.869,394.315a8.7,8.7,0,0,1,.045-1.324c.072-.85.224-2.075.5-3.577a47.8,47.8,0,0,1,1.306-5.187,46.249,46.249,0,0,1,2.343-6.108,33.09,33.09,0,0,1,6.663-9.838,15.3,15.3,0,0,1,1.547-1.359c.233-.188.438-.376.653-.528l.6-.385a10.2,10.2,0,0,1,1.127-.689,40.676,40.676,0,0,0-3.729,3.157,34.623,34.623,0,0,0-6.466,9.82,48.841,48.841,0,0,0-2.361,6.055,52.844,52.844,0,0,0-1.368,5.125c-.313,1.485-.5,2.683-.626,3.533a7.1,7.1,0,0,1-.233,1.306Z" transform="translate(-335.023 -353.275)" fill="#263238"/>
      </g>
      <g id="freepik--character-3--inject-102" transform="translate(324.641 107.387)">
        <path id="Path_2381" data-name="Path 2381" d="M407.252,184.131h0a9.838,9.838,0,0,1-9.444-9.337l-.429-8.72s-8.121-.832-8.639-8.881-.1-26.625-.1-26.625h0a28.047,28.047,0,0,1,28.324,2.057l1.243.894-.787,40.952a9.838,9.838,0,0,1-10.169,9.659Z" transform="translate(-364.552 -117.773)" fill="#b78876"/>
        <path id="Path_2382" data-name="Path 2382" d="M398.41,170.057a18.781,18.781,0,0,0,10.348-3.577s-2.182,5.93-10.258,5.625Z" transform="translate(-365.601 -121.873)" fill="#aa6550"/>
        <path id="Path_2383" data-name="Path 2383" d="M421.09,143.518c.134-.063,5.456-1.932,5.563,3.577s-5.447,4.472-5.456,4.338S421.09,143.518,421.09,143.518Z" transform="translate(-367.997 -119.41)" fill="#b78876"/>
        <path id="Path_2384" data-name="Path 2384" d="M423,149.482a1.46,1.46,0,0,0,.268.143,1.019,1.019,0,0,0,.716,0,2.388,2.388,0,0,0,1.055-2.155,3.211,3.211,0,0,0-.3-1.377,1.118,1.118,0,0,0-.742-.715.483.483,0,0,0-.555.268c-.072.161,0,.268-.063.277s-.125-.089-.081-.322a.6.6,0,0,1,.206-.349.743.743,0,0,1,.528-.152,1.368,1.368,0,0,1,1.02.841,3.148,3.148,0,0,1,.367,1.529,2.486,2.486,0,0,1-1.351,2.406,1.02,1.02,0,0,1-.894-.125A.427.427,0,0,1,423,149.482Z" transform="translate(-368.199 -119.614)" fill="#aa6550"/>
        <path id="Path_2385" data-name="Path 2385" d="M393.66,145.01a1.154,1.154,0,0,0,1.172,1.1,1.1,1.1,0,0,0,1.127-1.1,1.145,1.145,0,0,0-1.163-1.1,1.1,1.1,0,0,0-1.136,1.1Z" transform="translate(-365.099 -119.489)" fill="#263238"/>
        <path id="Path_2386" data-name="Path 2386" d="M391,143.333c.152.143.993-.546,2.227-.608s2.182.51,2.307.349-.1-.331-.51-.6a3.13,3.13,0,0,0-1.851-.465,3,3,0,0,0-1.789.671A1.192,1.192,0,0,0,391,143.333Z" transform="translate(-364.818 -119.287)" fill="#263238"/>
        <path id="Path_2387" data-name="Path 2387" d="M407.18,144.32a1.154,1.154,0,0,0,1.172,1.1,1.091,1.091,0,0,0,1.127-1.1,1.145,1.145,0,0,0-1.163-1.1,1.1,1.1,0,0,0-1.136,1.1Z" transform="translate(-366.527 -119.416)" fill="#263238"/>
        <path id="Path_2388" data-name="Path 2388" d="M404.648,142.842c.152.134.993-.554,2.227-.617s2.182.51,2.307.358-.1-.34-.51-.608a3.192,3.192,0,0,0-1.851-.465,3.059,3.059,0,0,0-1.789.671C404.692,142.529,404.576,142.842,404.648,142.842Z" transform="translate(-366.258 -119.235)" fill="#263238"/>
        <path id="Path_2389" data-name="Path 2389" d="M399.8,152.339a8.743,8.743,0,0,0-2.03-.25c-.322,0-.626-.063-.689-.277a1.582,1.582,0,0,1,.161-.948l.814-2.459a47.1,47.1,0,0,0,1.789-6.4,42.361,42.361,0,0,0-2.281,6.26c-.268.894-.519,1.681-.769,2.468a1.87,1.87,0,0,0-.1,1.243.8.8,0,0,0,.546.438,2,2,0,0,0,.546.045A8.1,8.1,0,0,0,399.8,152.339Z" transform="translate(-365.413 -119.287)" fill="#263238"/>
        <path id="Path_2390" data-name="Path 2390" d="M404,137.5c.143.331,1.368.107,2.826.206s2.683.429,2.835.116c.08-.143-.143-.447-.635-.751a4.686,4.686,0,0,0-2.129-.626,4.785,4.785,0,0,0-2.182.376C404.2,137.066,403.945,137.343,404,137.5Z" transform="translate(-366.191 -118.7)" fill="#263238"/>
        <path id="Path_2391" data-name="Path 2391" d="M391.325,139.294c.233.268,1.073-.072,2.093-.134s1.9.089,2.093-.215c.08-.152-.072-.429-.465-.671a3.032,3.032,0,0,0-3.372.277C391.325,138.883,391.218,139.16,391.325,139.294Z" transform="translate(-364.848 -118.853)" fill="#263238"/>
        <path id="Path_2392" data-name="Path 2392" d="M384,124.515a2.942,2.942,0,0,1,.957-2.683,2.111,2.111,0,0,1,2.746.054,2.451,2.451,0,0,1,1.959-3.094c1.306-.152,2.477.787,3.765,1.064a5.947,5.947,0,0,0,3.738-.635c1.172-.537,2.254-1.261,3.434-1.789a10.312,10.312,0,0,1,13.5,5.366,4.579,4.579,0,0,1,4.946,1.583,7.486,7.486,0,0,1,1.422,5.223,16.563,16.563,0,0,1-.733,3.667v.3c.152,4.472-.08,9.668-1.968,9.838-3.291.224-2.835-6.028-2.835-6.028-4.123-1.35-2.933-7.486-3.989-8.344s-3.291-2.9-11.528,1.878a16.367,16.367,0,0,1-9.981,1.61h-.286a7.737,7.737,0,0,1-2.227-.8,4.293,4.293,0,0,1-1.887-1.9,2.361,2.361,0,0,1,.331-2.549A5.107,5.107,0,0,1,384,124.515Z" transform="translate(-364.074 -116.604)" fill="#263238"/>
        <path id="Path_2393" data-name="Path 2393" d="M399.188,157.7a5.7,5.7,0,0,0,.8,1.377,1.905,1.905,0,0,0,1.368.7,1.672,1.672,0,0,0,1.377-.85,2.683,2.683,0,0,0,.313-1.628c-.054-.51-.313-1.109-.823-1.136a1.217,1.217,0,0,0-.608.161L399,157.537" transform="translate(-365.663 -120.783)" fill="#aa6550"/>
        <path id="Path_2394" data-name="Path 2394" d="M400.312,159.8a4.149,4.149,0,0,0,1.4-.25,1.968,1.968,0,0,0,1.02-1.028,2.128,2.128,0,0,0-.054-1.789,1.9,1.9,0,0,0-.25-.385c-.116-.107-.089-.1-.206-.08a2.357,2.357,0,0,0-.42.188l-.42.206-1.494.671a4.472,4.472,0,0,1-1.422.51,5.447,5.447,0,0,1,1.279-.814c.4-.224.894-.483,1.44-.76l.42-.215a3.987,3.987,0,0,1,.474-.224.581.581,0,0,1,.393,0,.617.617,0,0,1,.3.215,2.2,2.2,0,0,1,.331.483,2.522,2.522,0,0,1,0,2.137,2.272,2.272,0,0,1-1.288,1.154,2.1,2.1,0,0,1-1.154.107C400.429,159.9,400.3,159.824,400.312,159.8Z" transform="translate(-365.607 -120.744)" fill="#263238"/>
        <path id="Path_2395" data-name="Path 2395" d="M411.793,129.07a4.723,4.723,0,0,0-.045-.975,3.81,3.81,0,0,0-1.377-2.2,5.151,5.151,0,0,0-3.694-1,15.785,15.785,0,0,0-4.651,1.3c-.814.313-1.61.617-2.406.841a12.37,12.37,0,0,1-2.343.4,12.69,12.69,0,0,1-4-.313,11.689,11.689,0,0,1-2.531-.894,7.311,7.311,0,0,1-.653-.349c-.143-.089-.215-.134-.206-.143s.313.152.894.411a13.416,13.416,0,0,0,2.54.841,12.967,12.967,0,0,0,3.935.259,12.7,12.7,0,0,0,2.3-.411c.778-.224,1.574-.519,2.379-.841a15.634,15.634,0,0,1,4.731-1.3,5.259,5.259,0,0,1,3.81,1.1,3.792,3.792,0,0,1,1.359,2.307,2.174,2.174,0,0,1-.045.966Z" transform="translate(-364.701 -117.456)" fill="#455a64"/>
        <path id="Path_2396" data-name="Path 2396" d="M421.5,142.612a1.619,1.619,0,0,1-.116-.17c-.063-.107-.161-.277-.277-.5a10.1,10.1,0,0,1-.742-1.968,10.668,10.668,0,0,1-.367-3.1,27.383,27.383,0,0,1,.519-3.774,7.387,7.387,0,0,0-.188-3.7,3.81,3.81,0,0,0-.841-1.368,2.853,2.853,0,0,0-1.2-.7,2.683,2.683,0,0,0-1.985.152,5.317,5.317,0,0,0-.6.465,1.61,1.61,0,0,1,.554-.546,2.683,2.683,0,0,1,2.075-.233,2.978,2.978,0,0,1,1.288.724,3.747,3.747,0,0,1,.894,1.422,7.369,7.369,0,0,1,.215,3.819,31.471,31.471,0,0,0-.537,3.747,11.254,11.254,0,0,0,.313,3.059,12.527,12.527,0,0,0,.671,1.968,7.411,7.411,0,0,1,.322.707Z" transform="translate(-367.427 -117.708)" fill="#455a64"/>
        <path id="Path_2397" data-name="Path 2397" d="M412.41,127.858a2.361,2.361,0,0,1,0-.322v-.894a10.914,10.914,0,0,0-.546-3.327,6.137,6.137,0,0,0-1.189-1.977,4.186,4.186,0,0,0-2.236-1.315,5.509,5.509,0,0,0-2.871.268,13.62,13.62,0,0,0-2.817,1.458,23.257,23.257,0,0,1-2.781,1.628,8.944,8.944,0,0,1-2.916.742,9.328,9.328,0,0,1-2.683-.188,11.09,11.09,0,0,1-2.236-.787,9.122,9.122,0,0,1-2.683-2.075,5.614,5.614,0,0,1-.572-.742,2.674,2.674,0,0,1-.17-.277,1.789,1.789,0,0,1,.215.25,7.577,7.577,0,0,0,.59.707,9.3,9.3,0,0,0,2.683,1.985,10.413,10.413,0,0,0,2.2.742,9.221,9.221,0,0,0,2.683.17,8.711,8.711,0,0,0,2.835-.742,24.438,24.438,0,0,0,2.755-1.61,13.174,13.174,0,0,1,2.862-1.476,5.617,5.617,0,0,1,3.005-.268,4.472,4.472,0,0,1,2.334,1.4,5.993,5.993,0,0,1,1.189,2.057,10.151,10.151,0,0,1,.483,3.381v.894a1.952,1.952,0,0,1-.134.322Z" transform="translate(-364.576 -116.933)" fill="#455a64"/>
        <path id="Path_2398" data-name="Path 2398" d="M399.332,455.039l11.457-113.225L382.76,339.65l.215,113.5Z" transform="translate(-363.947 -140.169)" fill="#b78876"/>
        <path id="Path_2399" data-name="Path 2399" d="M415.76,339.157l-4.087,28.691,49.189,42.678-10.491,12.226L395.155,385.9c-4.472-3.148-9.632-9.328-9.346-14.8l1.959-36.024Z" transform="translate(-364.268 -139.685)" fill="#b78876"/>
        <path id="Path_2400" data-name="Path 2400" d="M455.235,430.182h0s-4.472,18.826-1.833,20.865l19.524-29.165-7.6-5.143-.474,1.234A26.07,26.07,0,0,1,455.235,430.182Z" transform="translate(-371.323 -148.313)" fill="#27496d"/>
        <g id="Group_722" data-name="Group 722" transform="translate(92.724 272.43)" opacity="0.6">
          <path id="Path_2401" data-name="Path 2401" d="M465.847,421.542a1.44,1.44,0,0,1,1.914.081,1.377,1.377,0,0,1-.072,1.9,1.5,1.5,0,0,1-2.021-.1,1.431,1.431,0,0,1,.3-1.968" transform="translate(-465.402 -421.216)" fill="#fff"/>
        </g>
        <g id="Group_723" data-name="Group 723" transform="translate(81.329 272.067)" opacity="0.6">
          <path id="Path_2402" data-name="Path 2402" d="M472.935,422.312l-2.415-1.5L452.7,449.331s-.3,1.681.707,2.146Z" transform="translate(-452.662 -420.81)" fill="#fff"/>
        </g>
        <path id="Path_2403" data-name="Path 2403" d="M455,431.971c.143.1.689-.572,1.619-.966s1.789-.367,1.789-.537-.939-.51-2.048,0S454.872,431.917,455,431.971Z" transform="translate(-371.577 -149.735)" fill="#263238"/>
        <path id="Path_2404" data-name="Path 2404" d="M454.158,436.43c.116.125.769-.331,1.69-.411s1.664.206,1.789.063-.662-.778-1.789-.653S454.015,436.34,454.158,436.43Z" transform="translate(-371.489 -150.286)" fill="#263238"/>
        <path id="Path_2405" data-name="Path 2405" d="M456.622,441.115c.116-.107-.465-.778-1.485-.939s-1.789.3-1.708.447.778,0,1.619.143S456.47,441.249,456.622,441.115Z" transform="translate(-371.413 -150.786)" fill="#263238"/>
        <path id="Path_2406" data-name="Path 2406" d="M455.117,431.1a3.407,3.407,0,0,0,.966-1.467,7.9,7.9,0,0,0,.555-1.842,7.642,7.642,0,0,0,.116-1.136,2.244,2.244,0,0,0-.045-.671.751.751,0,0,0-.715-.572.939.939,0,0,0-.742.4,2.474,2.474,0,0,0-.3.6,6.667,6.667,0,0,0-.3,1.118,6.437,6.437,0,0,0,0,1.941,3.1,3.1,0,0,0,.608,1.655c.1,0-.134-.662-.188-1.7a7.22,7.22,0,0,1,.134-1.789,6.47,6.47,0,0,1,.3-1.011c.125-.358.3-.626.492-.617s.1,0,.143.143a2.009,2.009,0,0,1,0,.492,9.74,9.74,0,0,1-.483,2.844,11.886,11.886,0,0,0-.554,1.61Z" transform="translate(-371.536 -149.229)" fill="#263238"/>
        <path id="Path_2407" data-name="Path 2407" d="M454.889,431.419c.063,0-.259-.653-1.154-1.324a5.761,5.761,0,0,0-1.726-.894,5.68,5.68,0,0,0-1.136-.215,1.44,1.44,0,0,0-1.359.438.814.814,0,0,0,0,.894,2.317,2.317,0,0,0,.438.51,3.8,3.8,0,0,0,.984.662,4.079,4.079,0,0,0,1.923.384c1.145-.063,1.708-.546,1.672-.59a7.692,7.692,0,0,1-1.672.17,4.134,4.134,0,0,1-1.681-.456,3.666,3.666,0,0,1-.823-.59c-.277-.259-.456-.537-.34-.635a.975.975,0,0,1,.814-.188,5.372,5.372,0,0,1,1.037.161,6.118,6.118,0,0,1,1.646.7C454.406,430.972,454.818,431.482,454.889,431.419Z" transform="translate(-370.986 -149.604)" fill="#263238"/>
        <path id="Path_2408" data-name="Path 2408" d="M387.587,351.8a1.834,1.834,0,0,1,0,.528c0,.394-.08.894-.134,1.511-.125,1.368-.3,3.238-.519,5.527s-.438,5.116-.537,8.2-.224,6.556,1.136,9.838a25.15,25.15,0,0,0,5.751,8.094,59.941,59.941,0,0,0,6.26,5.295c1.878,1.4,3.434,2.486,4.472,3.238l1.225.894a2.688,2.688,0,0,1,.411.331,1.9,1.9,0,0,1-.465-.25l-1.279-.8c-1.1-.716-2.683-1.789-4.6-3.121a56.2,56.2,0,0,1-6.368-5.259,25.165,25.165,0,0,1-5.876-8.228,16.034,16.034,0,0,1-1.136-5.143c-.089-1.7-.072-3.336,0-4.883.125-3.112.393-5.894.635-8.228s.492-4.212.671-5.518c.089-.608.161-1.1.215-1.494A2.139,2.139,0,0,1,387.587,351.8Z" transform="translate(-364.276 -141.453)" fill="#aa6550"/>
        <path id="Path_2409" data-name="Path 2409" d="M415.207,372.955a16.993,16.993,0,0,0-3.086-.617,16.759,16.759,0,0,0-3.121.393,4.472,4.472,0,0,1,3.139-.894A4.382,4.382,0,0,1,415.207,372.955Z" transform="translate(-366.72 -143.567)" fill="#aa6550"/>
        <path id="Path_2410" data-name="Path 2410" d="M380.753,465h0s-18.585,5.456-19.023,8.783l35.014,2.442.68-9.149-1.306.206A26.008,26.008,0,0,1,380.753,465Z" transform="translate(-361.726 -153.412)" fill="#27496d"/>
        <g id="Group_724" data-name="Group 724" transform="translate(29.827 315.073)" opacity="0.6">
          <path id="Path_2411" data-name="Path 2411" d="M396.8,468.926a1.431,1.431,0,0,1,.894,1.7,1.368,1.368,0,0,1-1.672.894,1.52,1.52,0,0,1-.894-1.789,1.431,1.431,0,0,1,1.851-.724" transform="translate(-395.075 -468.896)" fill="#fff"/>
        </g>
        <g id="Group_725" data-name="Group 725" transform="translate(0 318.743)" opacity="0.6">
          <path id="Path_2412" data-name="Path 2412" d="M396.743,477.078l.1-2.844L363.232,473s-1.6.572-1.5,1.681Z" transform="translate(-361.725 -473)" fill="#fff"/>
        </g>
        <path id="Path_2413" data-name="Path 2413" d="M382.38,464.754c0,.17.841.313,1.646.894s1.2,1.35,1.359,1.3,0-1.064-1.011-1.789S382.353,464.593,382.38,464.754Z" transform="translate(-363.907 -153.371)" fill="#263238"/>
        <path id="Path_2414" data-name="Path 2414" d="M378.15,466.173c-.054.161.671.51,1.2,1.27s.644,1.538.814,1.547.349-.957-.322-1.9S378.168,466.012,378.15,466.173Z" transform="translate(-363.46 -153.53)" fill="#263238"/>
        <path id="Path_2415" data-name="Path 2415" d="M375.343,470.567c.152.054.447-.787.072-1.789s-1.145-1.4-1.225-1.261.376.671.671,1.476S375.173,470.54,375.343,470.567Z" transform="translate(-363.041 -153.675)" fill="#263238"/>
        <path id="Path_2416" data-name="Path 2416" d="M382.81,464.394a3.292,3.292,0,0,0,1.789.116,8.228,8.228,0,0,0,1.878-.438,8.041,8.041,0,0,0,1.037-.465,2.047,2.047,0,0,0,.563-.376.751.751,0,0,0,.143-.894.975.975,0,0,0-.724-.447,2.516,2.516,0,0,0-.662.045,6.567,6.567,0,0,0-1.118.3,6.118,6.118,0,0,0-1.69.948c-.894.7-1.189,1.315-1.136,1.35s.51-.447,1.377-1.011a7.086,7.086,0,0,1,1.628-.769,5.977,5.977,0,0,1,1.029-.241c.376-.072.689-.054.778.116s0,.089-.054.2a1.788,1.788,0,0,1-.411.277,9.531,9.531,0,0,1-.966.465,9.837,9.837,0,0,1-1.735.528A13.321,13.321,0,0,0,382.81,464.394Z" transform="translate(-363.953 -153.083)" fill="#263238"/>
        <path id="Path_2417" data-name="Path 2417" d="M382.759,464.332a2.826,2.826,0,0,0,.581-1.664,5.848,5.848,0,0,0-.107-1.932,5.518,5.518,0,0,0-.376-1.1,1.422,1.422,0,0,0-1.055-.957.787.787,0,0,0-.76.438,2.576,2.576,0,0,0-.233.626,4.106,4.106,0,0,0-.08,1.18,4.052,4.052,0,0,0,.626,1.86c.617.957,1.315,1.216,1.333,1.154a7.145,7.145,0,0,1-.966-1.359,4.04,4.04,0,0,1-.447-1.69,3.641,3.641,0,0,1,.107-1.011c.08-.367.241-.653.376-.608a1.252,1.252,0,0,1,.572.617,5.759,5.759,0,0,1,.367.984,6.261,6.261,0,0,1,.224,1.789C382.929,463.652,382.705,464.278,382.759,464.332Z" transform="translate(-363.731 -152.744)" fill="#263238"/>
        <path id="Path_2418" data-name="Path 2418" d="M380.09,340.317l5.572-56.836,6.77-1.261-6.538,58.2Z" transform="translate(-363.665 -134.101)" fill="#263238"/>
        <path id="Path_2419" data-name="Path 2419" d="M433.936,277.227s2.486,16.671.456,21.116-9.418,17.377-10.151,22.922L422.318,348.1l-35.908-5.187.152-3.846,2.325-59.179L416.746,269.5Z" transform="translate(-364.333 -132.758)" fill="#407182"/>
        <path id="Path_2420" data-name="Path 2420" d="M389.84,300.46c.125,0-.528,9.48-1.458,21.142s-1.789,21.125-1.914,21.116.519-9.48,1.449-21.151S389.706,300.451,389.84,300.46Z" transform="translate(-364.338 -136.028)" fill="#455a64"/>
        <path id="Path_2421" data-name="Path 2421" d="M416.807,314.883a3.809,3.809,0,0,1-1-.537,14.853,14.853,0,0,1-2.415-1.932,22.769,22.769,0,0,1-5.366-8.613,45.926,45.926,0,0,1-2.2-9.927c-.161-1.3-.268-2.343-.322-3.068a4.686,4.686,0,0,1-.045-1.127,6.158,6.158,0,0,1,.224,1.109c.125.814.277,1.789.465,3.032a53.313,53.313,0,0,0,2.316,9.838,23.987,23.987,0,0,0,5.16,8.541A30.064,30.064,0,0,0,416.807,314.883Z" transform="translate(-366.344 -134.89)" fill="#455a64"/>
        <path id="Path_2422" data-name="Path 2422" d="M417.265,172l15.571,12.834.823,82.119s-16.993-5.08-24.058-3.094-16.1,9.3-19.3,9.14a33.931,33.931,0,0,0-5.429.063l.966-12.19s-3.211-10.035-1.6-17.422,5.831-31.079,6.457-42.115l7.03-20.1Z" transform="translate(-364.056 -122.457)" fill="#f4cb3c"/>
        <path id="Path_2423" data-name="Path 2423" d="M409.428,253.39a3.8,3.8,0,0,1-.277.948,19.854,19.854,0,0,1-1.073,2.486,26.827,26.827,0,0,1-2.066,3.434,28.145,28.145,0,0,1-6.976,6.886,27.2,27.2,0,0,1-3.443,1.994,21.467,21.467,0,0,1-2.5,1.037,4.748,4.748,0,0,1-.957.268c0-.08,1.306-.546,3.3-1.6a30.4,30.4,0,0,0,3.372-2.084,32.188,32.188,0,0,0,3.712-3.112,32.639,32.639,0,0,0,3.157-3.667,29.6,29.6,0,0,0,2.129-3.345C408.864,254.687,409.347,253.354,409.428,253.39Z" transform="translate(-364.938 -131.055)" fill="#263238"/>
        <g id="Group_726" data-name="Group 726" transform="translate(45.061 75.059)" opacity="0.3">
          <path id="Path_2424" data-name="Path 2424" d="M412.262,202.6c-.447,10.07-.134,21.616,4.016,30.8,1.914,4.266,4.534,8.38,4.955,13.04a28.99,28.99,0,0,1-1.163,9.194c-.823,3.434-2.683,8.192-1.243,10.822a27.323,27.323,0,0,0,8-15.016c.724-4.042-.107-8.192-1.064-12.2-3.157-13.2-7.745-26.017-12.575-38.716" transform="translate(-412.109 -200.53)"/>
        </g>
        <path id="Path_2425" data-name="Path 2425" d="M427.76,180.855s5.8,1.028,8.049,4.883,9.319,43.886,9.319,43.886l-26.58.572-6.26-27.662S408.675,179.656,427.76,180.855Z" transform="translate(-367.038 -123.387)" fill="#f4cb3c"/>
        <path id="Path_2426" data-name="Path 2426" d="M445.139,229.639a3.124,3.124,0,0,1-.5.045l-1.458.072-5.482.179-19.13.492h-.179v-.179L415.08,215.2c-.787-3.577-1.547-7.092-2.263-10.357h0a20.839,20.839,0,0,1-.769-6.547,31.692,31.692,0,0,1,.707-5.983,18.46,18.46,0,0,1,1.789-5.071,13.692,13.692,0,0,1,2.907-3.577,10.66,10.66,0,0,1,5.912-2.683,6.854,6.854,0,0,1,1.02,0,4.391,4.391,0,0,1,.742.045l.6.107a15.072,15.072,0,0,0-2.343,0,10.732,10.732,0,0,0-5.742,2.79,13.747,13.747,0,0,0-2.8,3.577,18.381,18.381,0,0,0-1.7,5,31.539,31.539,0,0,0-.662,5.9,20.572,20.572,0,0,0,.769,6.4h0c.724,3.264,1.485,6.761,2.281,10.357,1.154,5.366,2.263,10.419,3.273,15.061l-.215-.17,19.13-.331,5.491-.054h1.458Z" transform="translate(-367.04 -123.403)" fill="#263238"/>
        <path id="Path_2427" data-name="Path 2427" d="M410.1,198.45a78.232,78.232,0,0,1-8.452.948,77.818,77.818,0,0,1-8.487.492,79.488,79.488,0,0,1,8.452-.957,76.391,76.391,0,0,1,8.487-.483Z" transform="translate(-365.046 -125.251)" fill="#fafafa"/>
        <path id="Path_2428" data-name="Path 2428" d="M437.457,192.929c.045.116-5.509,1.932-12.4,4.042s-12.521,3.72-12.521,3.577,5.509-1.932,12.4-4.042S437.421,192.8,437.457,192.929Z" transform="translate(-367.094 -124.667)" fill="#fafafa"/>
        <path id="Path_2429" data-name="Path 2429" d="M413.45,223.846c0,.125-5.456.25-12.19.277s-12.19-.063-12.19-.2,5.456-.25,12.19-.277S413.45,223.712,413.45,223.846Z" transform="translate(-364.614 -127.913)" fill="#fafafa"/>
        <path id="Path_2430" data-name="Path 2430" d="M444.532,226.5c0,.125-5.652,1-12.664,1.95s-12.7,1.61-12.718,1.485,5.652-1,12.655-1.95S444.514,226.373,444.532,226.5Z" transform="translate(-367.792 -128.213)" fill="#fafafa"/>
        <path id="Path_2431" data-name="Path 2431" d="M422.708,180.371c-.107.1-1.556-1.35-3.577-2.808s-3.864-2.388-3.8-2.513a11.921,11.921,0,0,1,4.078,2.137A12.153,12.153,0,0,1,422.708,180.371Z" transform="translate(-367.388 -122.779)" fill="#fafafa"/>
        <path id="Path_2432" data-name="Path 2432" d="M407.392,255.424a4.337,4.337,0,0,1-.894,0c-.6,0-1.458-.072-2.513-.134-2.12-.134-5.044-.358-8.282-.626s-6.153-.537-8.264-.76c-1.055-.107-1.914-.206-2.5-.286a3.664,3.664,0,0,1-.894-.161,3.415,3.415,0,0,1,.894,0l2.513.134c2.12.143,5.044.358,8.273.626s6.144.546,8.264.76c1.055.107,1.9.206,2.5.286A3.067,3.067,0,0,1,407.392,255.424Z" transform="translate(-364.084 -131.059)" fill="#fafafa"/>
        <path id="Path_2433" data-name="Path 2433" d="M424.617,250a97.181,97.181,0,0,1-13.147,3.014A97.187,97.187,0,0,1,424.617,250Z" transform="translate(-366.981 -130.697)" fill="#fafafa"/>
        <path id="Path_2434" data-name="Path 2434" d="M417.057,272.819c0,.125-7.074,1.547-15.839,3.175s-15.91,2.844-15.928,2.683,7.065-1.538,15.839-3.166S417.03,272.694,417.057,272.819Z" transform="translate(-364.215 -133.107)" fill="#fafafa"/>
        <path id="Path_2435" data-name="Path 2435" d="M442,235.45l2.254,16.215a13.317,13.317,0,0,1-2.88,10.285l-24.147,29.6s-2.415,11.269-4.409,13.853c0,0-6.359-8.8-6.028-14.775l4.758-4.7L425.1,254.312l-2.942-18.433Z" transform="translate(-366.485 -129.16)" fill="#b78876"/>
      </g>
      <g id="freepik--character-1--inject-102" transform="translate(24.565 117.234)">
        <path id="Path_2436" data-name="Path 2436" d="M204.5,440.157l-5.858-11.027-14.068,8.639L195.3,452.9l-.51,13.746c-6.886,1.789-7.915,5.214-7.915,5.214h14.31l12.995-25.042Z" transform="translate(-42.932 -159.469)" fill="#455a64"/>
        <g id="Group_727" data-name="Group 727" transform="translate(143.964 285.929)" opacity="0.6">
          <path id="Path_2437" data-name="Path 2437" d="M214.474,448.733,201.48,473.766l-14.31.018,1.61-2.146,11.636-.653,11.993-23.664Z" transform="translate(-187.17 -447.32)" fill="#fff"/>
        </g>
        <path id="Path_2438" data-name="Path 2438" d="M196.119,463.89c.107.143.894-.331,2.039-.3s1.914.492,2.03.349-.68-.966-2.021-.984S196.012,463.81,196.119,463.89Z" transform="translate(-44.151 -163.044)" fill="#263238"/>
        <path id="Path_2439" data-name="Path 2439" d="M196.377,460.026c.143.107.778-.742,1.914-.966s2.057.3,2.146.152-.116-.3-.519-.519a2.684,2.684,0,0,0-1.789-.25,2.736,2.736,0,0,0-1.52.894C196.359,459.7,196.3,459.991,196.377,460.026Z" transform="translate(-44.176 -162.561)" fill="#263238"/>
        <path id="Path_2440" data-name="Path 2440" d="M196.265,455.114c.152.08.644-.751,1.637-1.091s1.9,0,1.968-.188-.143-.268-.537-.411a2.469,2.469,0,0,0-2.916,1.029C196.2,454.819,196.184,455.078,196.265,455.114Z" transform="translate(-44.163 -162.021)" fill="#263238"/>
        <path id="Path_2441" data-name="Path 2441" d="M191.993,451.262c.17.054.572-.76,1.467-1.333s1.789-.662,1.789-.841-1.055-.411-2.137.322S191.805,451.244,191.993,451.262Z" transform="translate(-43.71 -161.559)" fill="#263238"/>
        <g id="Group_728" data-name="Group 728" transform="translate(159.856 285.222)" opacity="0.6">
          <path id="Path_2442" data-name="Path 2442" d="M204.94,448.22a1.7,1.7,0,1,0,1.69-1.69A1.7,1.7,0,0,0,204.94,448.22Z" transform="translate(-204.94 -446.53)" fill="#fff"/>
        </g>
        <path id="Path_2443" data-name="Path 2443" d="M55.669,432.19,49.158,451.1s-21.411-.3-22.958,3.1l33.9,13.057,11.1-29.138Z" transform="translate(-26.2 -159.793)" fill="#455a64"/>
        <path id="Path_2444" data-name="Path 2444" d="M64.786,456.368a1.583,1.583,0,0,1,.376,2.084,1.521,1.521,0,0,1-2.057.385,1.672,1.672,0,0,1-.385-2.209,1.574,1.574,0,0,1,2.182-.161" transform="translate(-30.031 -162.319)" fill="#e0e0e0"/>
        <g id="Group_729" data-name="Group 729" transform="translate(0 293.128)" opacity="0.6">
          <path id="Path_2445" data-name="Path 2445" d="M60.1,469.706l1.029-2.969L28.337,455.37s-1.878.081-2.137,1.279Z" transform="translate(-26.2 -455.37)" fill="#fff"/>
        </g>
        <path id="Path_2446" data-name="Path 2446" d="M51.29,452.863c-.063.179.8.6,1.44,1.5s.832,1.833,1.02,1.789.322-1.136-.483-2.209S51.316,452.693,51.29,452.863Z" transform="translate(-28.85 -161.971)" fill="#263238"/>
        <path id="Path_2447" data-name="Path 2447" d="M46.369,453c-.107.161.546.751.894,1.735s.179,1.833.358,1.9.68-.894.259-2.111S46.44,452.826,46.369,453Z" transform="translate(-28.33 -161.987)" fill="#263238"/>
        <path id="Path_2448" data-name="Path 2448" d="M41.968,456.733c.143.1.733-.689.653-1.789s-.76-1.851-.894-1.726.179.832.233,1.789S41.8,456.644,41.968,456.733Z" transform="translate(-27.837 -162.013)" fill="#263238"/>
        <path id="Path_2449" data-name="Path 2449" d="M53.49,448.215c0,.188.894.259,1.887.707S57,450,57.166,449.879s-.358-1.037-1.511-1.556S53.454,448.046,53.49,448.215Z" transform="translate(-29.083 -161.464)" fill="#263238"/>
        <path id="Path_2450" data-name="Path 2450" d="M107.086,298.59,74.209,362.053l-21,63.007,20.123,8.1,22.18-61.737,38.278-51.971Z" transform="translate(-29.054 -145.678)" fill="#407182"/>
        <path id="Path_2451" data-name="Path 2451" d="M122.474,319.76c0,2.281,55.342,107.027,55.342,107.027l15.884-8.863L148.983,309.26l-28.333,10.5" transform="translate(-36.179 -146.805)" fill="#407182"/>
        <path id="Path_2452" data-name="Path 2452" d="M75.978,281.377c1.789-.707,6.717-2.558,3.488-3.577l-.143-.054c-3.2-.894-5.366-2.683-5.634-3.667a1.261,1.261,0,0,1,2.075-1.02c.054.054.143.1.206.152a16.229,16.229,0,0,0,3.148,1.315,8.942,8.942,0,0,0,3.023.447c.841,0,1.592-.063,2.263-.116l34.745-28.2,17.887-4.418c1.368,8.291-1.851,18.361-9.1,22.609L89.017,288.1h0a96.646,96.646,0,0,1-8.729,5.876c-4.364,2.37-4.6,1.985-4.794,1.431-.546-1.476,7.513-4.472,5.366-4.8s-9.355,4.82-9.856,3.291c-.662-2.039,7.835-5,8.541-5.295s1.959-1.663,1.342-1.359c-.894.438-12.011,5.2-12.673,3.193-.376-1.109,1.708-1.538,1.708-1.538s9.14-3.479,8.791-4.418-5.786.894-7.575,1.672-2.862.224-2.567-.832C68.778,284.57,74.189,282.119,75.978,281.377Z" transform="translate(-30.634 -139.725)" fill="#ffbe9d"/>
        <path id="Path_2453" data-name="Path 2453" d="M131.417,183.087c1.86-1.789,5.053-.241,6.618,1.789s2.683,4.74,5.062,5.786,5.473.143,7.468,1.789c2.755,2.29,1.207,7.593,4.186,9.578,1.181.787,2.746.76,4.007,1.413,2.978,1.538,2.942,5.733,2.477,9.051-.644,4.66-1.35,9.489-3.917,13.415s-7.575,6.7-12.02,5.187c-4.275-1.467-6.466-6.073-8.21-10.249l-7.217-17.3a40.66,40.66,0,0,1-3.246-10.312c-.456-3.586.152-7.459,2.433-10.267" transform="translate(-36.795 -133.392)" fill="#263238"/>
        <path id="Path_2454" data-name="Path 2454" d="M132.785,178.729c1.359-.161,2.4,1.494,2.039,2.817a4.329,4.329,0,0,1-2.916,2.683,4.471,4.471,0,0,1-2.254.259,2.227,2.227,0,0,1-1.7-1.377,1.279,1.279,0,0,1,.617-1.7c.894-.563,1.422-1,2.129-1.386,1.073-.6,1.011-.68,2.084-1.27" transform="translate(-36.938 -133.014)" fill="#27496d"/>
        <path id="Path_2455" data-name="Path 2455" d="M132.026,140.856c.054-1.9-1.708-3.381-3.488-4.078s-3.756-.966-5.366-2.03c-1.4-.948-2.343-2.424-3.533-3.622a11.761,11.761,0,0,0-19.783,5.366c-.68,2.683-.215,5.93,1.932,7.745,2.486,2.093,6.171,1.628,9.364.975s6.8-1.3,9.462.572c1.6,1.136,2.522,2.969,3.506,4.668s2.209,3.434,4.069,4.078,4.373-.465,4.472-2.433" transform="translate(-33.951 -127.614)" fill="#263238"/>
        <path id="Path_2456" data-name="Path 2456" d="M131.2,142.572c-.215,1.6.948,3.041,2.1,4.168s2.451,2.325,2.683,3.926c.232,1.878-1.127,3.721-.733,5.563.25,1.172,1.163,2.066,1.717,3.13a6.7,6.7,0,0,1,.34,4.91c-.474,1.61-1.234,5.214-2.352,6.466a25.989,25.989,0,0,1-12.521,7.495,48.724,48.724,0,0,1-13.871.76c-3.8-.232-8.165-.063-11.331-5.286-1.637-2.683-2.451-6.305-3.327-9.346-.742-2.62-1.4-5.42-.617-8.049.456-1.52,1.368-2.871,1.789-4.4.563-1.9.358-3.935.581-5.9a13.54,13.54,0,0,1,19.282-10.732" transform="translate(-33.251 -128.285)" fill="#263238"/>
        <path id="Path_2457" data-name="Path 2457" d="M97.951,149.563c.358-5.447,3.989-12.127,9.418-11.537l16.993,4.32a3.2,3.2,0,0,1,2.853,3.247l-1.9,40.89h.116s-3.864,11.537-15.07,8.049c-2.227-.7-3.238-3.13-3.676-5.634h-.116V188a26.83,26.83,0,0,1-.063-5.617h0v-4.624c0,.027-7.092-1.127-8.55-10.249C97.28,163.041,97.521,155.618,97.951,149.563Z" transform="translate(-33.736 -128.711)" fill="#ffbe9d"/>
        <path id="Path_2458" data-name="Path 2458" d="M100.05,157.745a1.154,1.154,0,0,0,1.118,1.172,1.1,1.1,0,0,0,1.2-1.046,1.163,1.163,0,0,0-1.118-1.181,1.109,1.109,0,0,0-1.2,1.055Z" transform="translate(-34.002 -130.686)" fill="#263238"/>
        <path id="Path_2459" data-name="Path 2459" d="M99.748,155.105c.143.152,1.029-.5,2.281-.5s2.173.635,2.307.483-.072-.34-.474-.635a3.246,3.246,0,0,0-1.851-.572,3.041,3.041,0,0,0-1.789.582C99.81,154.756,99.676,155.034,99.748,155.105Z" transform="translate(-33.968 -130.389)" fill="#263238"/>
        <path id="Path_2460" data-name="Path 2460" d="M114,157.745a1.154,1.154,0,0,0,1.118,1.172,1.118,1.118,0,0,0,1.207-1.046,1.181,1.181,0,0,0-1.118-1.181A1.127,1.127,0,0,0,114,157.745Z" transform="translate(-35.476 -130.686)" fill="#263238"/>
        <path id="Path_2461" data-name="Path 2461" d="M113.528,155.4c.143.152,1.029-.5,2.281-.492s2.173.635,2.307.483-.072-.349-.474-.635a3.184,3.184,0,0,0-3.667,0C113.59,155.047,113.456,155.324,113.528,155.4Z" transform="translate(-35.424 -130.42)" fill="#263238"/>
        <path id="Path_2462" data-name="Path 2462" d="M108.043,164.686a8.154,8.154,0,0,0-2.03-.367c-.322,0-.626-.1-.68-.322a1.619,1.619,0,0,1,.215-.948c.3-.769.617-1.583.948-2.433a42.991,42.991,0,0,0,2.146-6.377,42.408,42.408,0,0,0-2.683,6.189c-.322.894-.626,1.672-.894,2.451a1.842,1.842,0,0,0-.17,1.252.8.8,0,0,0,.528.474,2.605,2.605,0,0,0,.537.081A8.391,8.391,0,0,0,108.043,164.686Z" transform="translate(-34.51 -130.427)" fill="#263238"/>
        <path id="Path_2463" data-name="Path 2463" d="M107.42,182.13a23.056,23.056,0,0,0,12.172-3.22s-2.969,6.26-12.056,5.366Z" transform="translate(-34.781 -133.034)" fill="#eb996e"/>
        <path id="Path_2464" data-name="Path 2464" d="M108.984,169.2a2.254,2.254,0,0,1,2.021-.832,2.039,2.039,0,0,1,1.422.769,1.3,1.3,0,0,1,.1,1.494,1.52,1.52,0,0,1-1.646.411,4.74,4.74,0,0,1-1.6-.957,1.583,1.583,0,0,1-.358-.376.42.42,0,0,1,0-.465" transform="translate(-34.932 -131.918)" fill="#eb996e"/>
        <path id="Path_2465" data-name="Path 2465" d="M112.068,166.9c-.2,0-.206,1.35-1.368,2.316s-2.62.8-2.629,1,.322.259.894.277a3.407,3.407,0,0,0,2.2-.751,2.987,2.987,0,0,0,1.064-1.941C112.318,167.231,112.166,166.891,112.068,166.9Z" transform="translate(-34.85 -131.765)" fill="#263238"/>
        <path id="Path_2466" data-name="Path 2466" d="M112.909,152.97c.116.34,1.368.188,2.844.367s2.683.581,2.853.277c.089-.143-.116-.465-.6-.8a4.937,4.937,0,0,0-4.338-.492C113.124,152.54,112.856,152.809,112.909,152.97Z" transform="translate(-35.36 -130.194)" fill="#263238"/>
        <path id="Path_2467" data-name="Path 2467" d="M100.276,151.039c.215.286,1.082,0,2.12,0s1.914.2,2.12-.107c.089-.143,0-.429-.429-.7a3.068,3.068,0,0,0-3.425.1C100.294,150.61,100.178,150.869,100.276,151.039Z" transform="translate(-34.023 -129.954)" fill="#263238"/>
        <path id="Path_2468" data-name="Path 2468" d="M131.529,172a8.049,8.049,0,0,1-9.6-8.943c.286-2.236,1.485-4.472.715-6.618-1.029-2.79-4.937-3.649-5.974-6.439-.608-1.619-.063-3.506-.751-5.1A5.849,5.849,0,0,0,112.184,142a15.366,15.366,0,0,1-4.472-1.932c-1.279-.993-2.084-2.88-1.252-4.275a86.178,86.178,0,0,1,19.855,4.821,7.717,7.717,0,0,1,3.917,2.54c.876,1.315.894,3.193.8,4.865q-.581,12.244-1.145,24.478" transform="translate(-34.644 -128.478)" fill="#263238"/>
        <path id="Path_2469" data-name="Path 2469" d="M130.9,174.589a.892.892,0,0,0,.143-.1l.4-.3c.349-.277.894-.689,1.5-1.252a15.445,15.445,0,0,0,2.137-2.245,8.309,8.309,0,0,0,1.7-3.738,5.679,5.679,0,0,0-1.172-4.785,18.709,18.709,0,0,0-2.111-1.789,4.9,4.9,0,0,1-1.655-2.245c-.671-1.86-.376-4-.635-6.189a12.27,12.27,0,0,0-2.576-6.26,8.532,8.532,0,0,0-2.683-2.209,17.565,17.565,0,0,0-3.184-1.073,7.468,7.468,0,0,1-2.79-1.368,11.108,11.108,0,0,1-2.021-2.236c-1.145-1.619-1.985-3.345-3.068-4.785a10.456,10.456,0,0,0-1.789-1.9,6.852,6.852,0,0,0-2.12-1.154,4.472,4.472,0,0,0-4.034.4,3.694,3.694,0,0,0-1.431,2.683,2.683,2.683,0,0,0,.546,1.869,1.645,1.645,0,0,0,.367.358.891.891,0,0,0,.143.1s0-.054-.116-.134a1.79,1.79,0,0,1-.331-.367,2.683,2.683,0,0,1-.456-1.789,3.577,3.577,0,0,1,1.4-2.549,4.311,4.311,0,0,1,3.819-.313,6.492,6.492,0,0,1,2.021,1.127,10.418,10.418,0,0,1,1.717,1.86c1.055,1.413,1.878,3.139,3.032,4.8a11.312,11.312,0,0,0,2.093,2.316,7.7,7.7,0,0,0,2.916,1.449,16.358,16.358,0,0,1,3.112,1.055,8.147,8.147,0,0,1,2.567,2.1,11.993,11.993,0,0,1,2.5,6.055c.259,2.12,0,4.293.671,6.26a5.366,5.366,0,0,0,1.789,2.4,18.326,18.326,0,0,1,2.1,1.789,5.428,5.428,0,0,1,1.136,4.516,8.237,8.237,0,0,1-1.6,3.649,16.682,16.682,0,0,1-2.057,2.263c-.617.581-1.118,1.011-1.458,1.306a3.66,3.66,0,0,0-.528.429Z" transform="translate(-34.579 -127.935)" fill="#455a64"/>
        <path id="Path_2470" data-name="Path 2470" d="M105.194,197.892,95.41,304.615l50.227-6.341s-.456-99.532-5.938-104.558-11.627-10.84-11.627-10.84l-1.458-5.366-21.464,12.87Z" transform="translate(-33.512 -132.886)" fill="#ebebeb"/>
        <path id="Path_2471" data-name="Path 2471" d="M128.708,184.66c.072.107-4.606,3.47-10.446,7.521s-10.634,7.244-10.732,7.155,4.606-3.47,10.446-7.521S128.636,184.552,128.708,184.66Z" transform="translate(-34.792 -133.641)" fill="#263238"/>
        <path id="Path_2472" data-name="Path 2472" d="M136.824,188.869a11.126,11.126,0,0,0-16.635,3.694c-4.087,7.691-10.213,20.266-10.509,27.224-.456,10.5-4.57,95.874-4.57,95.874l61.612,5.939-14.614-83.765S151.249,200.37,136.824,188.869Z" transform="translate(-34.537 -133.844)" fill="#f4cb3c"/>
        <path id="Path_2473" data-name="Path 2473" d="M110.281,318.125a79.851,79.851,0,0,1-.349-8.577,76.359,76.359,0,0,1,.125-8.568,80.966,80.966,0,0,1,.34,8.568A75.531,75.531,0,0,1,110.281,318.125Z" transform="translate(-35.039 -145.931)" fill="#fafafa"/>
        <path id="Path_2474" data-name="Path 2474" d="M114.189,316.314a51.666,51.666,0,0,1-.233-6.878,51.754,51.754,0,0,1,.233-6.886,49.993,49.993,0,0,1,.233,6.886A49.913,49.913,0,0,1,114.189,316.314Z" transform="translate(-35.469 -146.096)" fill="#fafafa"/>
        <path id="Path_2475" data-name="Path 2475" d="M120.022,317.727a63.843,63.843,0,0,1-.34-7.584,59.982,59.982,0,0,1,.125-7.593,63.5,63.5,0,0,1,.34,7.584,60.068,60.068,0,0,1-.125,7.593Z" transform="translate(-36.069 -146.096)" fill="#fafafa"/>
        <path id="Path_2476" data-name="Path 2476" d="M126.41,318.245a67.981,67.981,0,0,1-.894-8,69.219,69.219,0,0,1-.456-8.049,71.661,71.661,0,0,1,.894,8A70.415,70.415,0,0,1,126.41,318.245Z" transform="translate(-36.645 -146.059)" fill="#fafafa"/>
        <path id="Path_2477" data-name="Path 2477" d="M132.346,318.778a73.082,73.082,0,0,1-.8-8.416,77.166,77.166,0,0,1-.331-8.443,78.207,78.207,0,0,1,.8,8.416,79.908,79.908,0,0,1,.331,8.443Z" transform="translate(-37.294 -146.03)" fill="#fafafa"/>
        <path id="Path_2478" data-name="Path 2478" d="M137.875,318.894a6.8,6.8,0,0,1-.555-1.932,25.649,25.649,0,0,1-.5-4.812,26.231,26.231,0,0,1,.394-4.829,7.252,7.252,0,0,1,.51-1.941c.143,0-.492,3.023-.438,6.761S138.018,318.858,137.875,318.894Z" transform="translate(-37.887 -146.395)" fill="#fafafa"/>
        <path id="Path_2479" data-name="Path 2479" d="M143.233,319.85a14.688,14.688,0,0,1-.483-2.737c-.224-1.7-.465-4.06-.626-6.672s-.215-4.982-.206-6.69a14.958,14.958,0,0,1,.134-2.781,19.716,19.716,0,0,1,.2,2.772c.072,1.708.179,4.069.34,6.672s.349,4.955.492,6.663A19.6,19.6,0,0,1,143.233,319.85Z" transform="translate(-38.424 -145.929)" fill="#fafafa"/>
        <path id="Path_2480" data-name="Path 2480" d="M149.761,319.9a63.149,63.149,0,0,1-.769-7.718,63.492,63.492,0,0,1-.3-7.745,65.071,65.071,0,0,1,.769,7.718,65.718,65.718,0,0,1,.3,7.745Z" transform="translate(-39.139 -146.296)" fill="#fafafa"/>
        <path id="Path_2481" data-name="Path 2481" d="M159.907,319.637a87.184,87.184,0,0,1-2.558-8.675,89.684,89.684,0,0,1-2.12-8.791,85.452,85.452,0,0,1,2.567,8.666,88.814,88.814,0,0,1,2.111,8.8Z" transform="translate(-39.832 -146.056)" fill="#fafafa"/>
        <path id="Path_2482" data-name="Path 2482" d="M166.439,319.328a11.382,11.382,0,0,1-.7-2.191c-.385-1.359-.894-3.238-1.574-5.295s-1.288-3.9-1.789-5.241a12.452,12.452,0,0,1-.689-2.191,10.276,10.276,0,0,1,.993,2.075c.546,1.315,1.243,3.148,1.9,5.214s1.145,3.971,1.449,5.366A10.876,10.876,0,0,1,166.439,319.328Z" transform="translate(-40.514 -146.293)" fill="#fafafa"/>
        <path id="Path_2483" data-name="Path 2483" d="M161.108,295.809a3.478,3.478,0,0,1-.5.125l-1.449.277c-1.252.233-3.085.519-5.366.832a164.2,164.2,0,0,1-17.771,1.422,167.391,167.391,0,0,1-17.887-.492c-2.272-.188-4.114-.384-5.366-.554l-1.458-.2a3.008,3.008,0,0,1-.5-.1,1.863,1.863,0,0,1,.51,0l1.467.116c1.27.116,3.112.259,5.366.4,4.552.3,10.857.537,17.824.358s13.245-.742,17.78-1.288c2.263-.268,4.1-.5,5.366-.68l1.458-.2a1.9,1.9,0,0,1,.528-.027Z" transform="translate(-35.139 -145.383)" fill="#fafafa"/>
        <path id="Path_2484" data-name="Path 2484" d="M160.37,290.93a1.789,1.789,0,0,1-.483.1l-1.4.188c-1.216.152-2.978.349-5.16.555-4.364.411-10.4.832-17.091,1.029s-12.745.1-17.127-.072c-2.191-.081-3.962-.17-5.178-.259l-1.413-.107a2.529,2.529,0,0,1-.483-.063,1.792,1.792,0,0,1,.492,0h1.413l5.178.116c4.382.08,10.428.107,17.109-.072s12.709-.563,17.073-.894l5.169-.4,1.413-.1a2.918,2.918,0,0,1,.492-.018Z" transform="translate(-35.268 -144.868)" fill="#fafafa"/>
        <path id="Path_2485" data-name="Path 2485" d="M159.176,286.78a1.84,1.84,0,0,1-.483.08l-1.386.161c-1.207.116-2.951.277-5.107.447-4.32.331-10.285.707-16.885.948s-12.584.3-16.912.277c-2.164,0-3.917,0-5.125-.072l-1.4-.054a2.842,2.842,0,0,1-.483,0,1.549,1.549,0,0,1,.483-.045h1.4l5.125-.08c4.32-.054,10.294-.17,16.894-.411s12.521-.563,16.876-.814l5.116-.3,1.4-.063A1.929,1.929,0,0,1,159.176,286.78Z" transform="translate(-35.201 -144.43)" fill="#fafafa"/>
        <path id="Path_2486" data-name="Path 2486" d="M167.069,332.367c0,.134-12.423-1.207-27.725-2.987s-27.653-3.336-27.644-3.461,12.414,1.216,27.725,3S167.078,332.251,167.069,332.367Z" transform="translate(-35.233 -148.564)" fill="#fafafa"/>
        <path id="Path_2487" data-name="Path 2487" d="M164.042,327.339c0,.125-12.092-1.02-26.974-2.558s-26.947-2.889-26.929-3.023,12.083,1.02,26.974,2.558S164.06,327.2,164.042,327.339Z" transform="translate(-35.068 -148.125)" fill="#fafafa"/>
        <path id="Path_2488" data-name="Path 2488" d="M111.969,283.091a41.38,41.38,0,0,1-.233-6.26,41.479,41.479,0,0,1,.233-6.26,42.928,42.928,0,0,1,.233,6.26,42.83,42.83,0,0,1-.233,6.26Z" transform="translate(-35.234 -142.718)" fill="#fafafa"/>
        <path id="Path_2489" data-name="Path 2489" d="M116.969,282.55a54.016,54.016,0,0,1-.233-7.155,54.016,54.016,0,0,1,.233-7.155,55.911,55.911,0,0,1,.233,7.155,55.918,55.918,0,0,1-.233,7.155Z" transform="translate(-35.762 -142.472)" fill="#fafafa"/>
        <path id="Path_2490" data-name="Path 2490" d="M125.253,280.725c-.134,0,.206-2.88.116-6.412s-.537-6.386-.4-6.412a6.394,6.394,0,0,1,.456,1.842,33.092,33.092,0,0,1,.411,4.552,31.876,31.876,0,0,1-.215,4.57A6.437,6.437,0,0,1,125.253,280.725Z" transform="translate(-36.632 -142.436)" fill="#fafafa"/>
        <path id="Path_2491" data-name="Path 2491" d="M132.649,280.126a40.751,40.751,0,0,1-.528-6.1,38.553,38.553,0,0,1-.063-6.126,42.033,42.033,0,0,1,.528,6.1A39.878,39.878,0,0,1,132.649,280.126Z" transform="translate(-37.374 -142.436)" fill="#fafafa"/>
        <path id="Path_2492" data-name="Path 2492" d="M139.577,281.725a43.754,43.754,0,0,1-.653-6.4,45.614,45.614,0,0,1-.179-6.421,44.343,44.343,0,0,1,.644,6.395A45.04,45.04,0,0,1,139.577,281.725Z" transform="translate(-38.086 -142.541)" fill="#fafafa"/>
        <path id="Path_2493" data-name="Path 2493" d="M147.2,281.152a39.351,39.351,0,0,1-.957-5.93,39.718,39.718,0,0,1-.5-5.992,36.848,36.848,0,0,1,.957,5.93A39.721,39.721,0,0,1,147.2,281.152Z" transform="translate(-38.829 -142.576)" fill="#fafafa"/>
        <path id="Path_2494" data-name="Path 2494" d="M154.825,282.232a35.552,35.552,0,0,1-.975-5.625,34.082,34.082,0,0,1-.51-5.7,35.553,35.553,0,0,1,.975,5.634A35.191,35.191,0,0,1,154.825,282.232Z" transform="translate(-39.632 -142.754)" fill="#fafafa"/>
        <path id="Path_2495" data-name="Path 2495" d="M159.531,281.456a42.326,42.326,0,0,1-.984-6.082,41.137,41.137,0,0,1-.528-6.144,39.9,39.9,0,0,1,.993,6.082,40.313,40.313,0,0,1,.519,6.144Z" transform="translate(-40.127 -142.576)" fill="#fafafa"/>
        <path id="Path_2496" data-name="Path 2496" d="M129.066,263.624a14.411,14.411,0,0,1-2.549,0c-1.574,0-3.747-.08-6.144-.089s-4.57,0-6.144.045a14.584,14.584,0,0,1-2.549-.045,12.738,12.738,0,0,1,2.531-.286c1.574-.107,3.756-.188,6.162-.179s4.588.107,6.153.233a12.741,12.741,0,0,1,2.54.322Z" transform="translate(-35.231 -141.925)" fill="#fafafa"/>
        <path id="Path_2497" data-name="Path 2497" d="M125.786,260.309a48.689,48.689,0,0,1-6.627,0,49.068,49.068,0,0,1-6.609-.483,45.513,45.513,0,0,1,6.627,0,45.47,45.47,0,0,1,6.609.483Z" transform="translate(-35.323 -141.57)" fill="#fafafa"/>
        <path id="Path_2498" data-name="Path 2498" d="M113.443,239.591a16.3,16.3,0,0,1-1.145-3.7,16.654,16.654,0,0,1-.689-3.819,31.956,31.956,0,0,1,1.789,7.521Z" transform="translate(-35.224 -138.65)" fill="#fafafa"/>
        <path id="Path_2499" data-name="Path 2499" d="M118.072,238.312a21.885,21.885,0,0,1-2.325-10.9c.143,0,.259,2.5.894,5.509S118.2,238.258,118.072,238.312Z" transform="translate(-35.658 -138.158)" fill="#fafafa"/>
        <path id="Path_2500" data-name="Path 2500" d="M122.47,240.53a38.179,38.179,0,0,1-1.4-5.8,37.675,37.675,0,0,1-.894-5.885,38.277,38.277,0,0,1,1.386,5.8A38.569,38.569,0,0,1,122.47,240.53Z" transform="translate(-36.129 -138.31)" fill="#fafafa"/>
        <path id="Path_2501" data-name="Path 2501" d="M120.42,222.668a9.436,9.436,0,0,1-3.756,1.708,9.658,9.658,0,0,1-4.114.4c0-.134,1.789-.268,3.989-.894S120.358,222.543,120.42,222.668Z" transform="translate(-35.323 -137.655)" fill="#fafafa"/>
        <path id="Path_2502" data-name="Path 2502" d="M117.02,219.29a4.767,4.767,0,0,1-1.869.894,4.839,4.839,0,0,1-2.021.429,5.347,5.347,0,0,1,1.869-.894A4.624,4.624,0,0,1,117.02,219.29Z" transform="translate(-35.384 -137.3)" fill="#fafafa"/>
        <path id="Path_2503" data-name="Path 2503" d="M149.584,214.608c-.134,0-.608-2.352-1.583-5.151s-2.057-4.964-1.932-5.026a16.993,16.993,0,0,1,2.37,4.874A16.8,16.8,0,0,1,149.584,214.608Z" transform="translate(-38.863 -135.73)" fill="#fafafa"/>
        <path id="Path_2504" data-name="Path 2504" d="M152.267,214.835c-.143,0-.42-2.442-1.225-5.366s-1.789-5.2-1.664-5.259a22.117,22.117,0,0,1,2.889,10.634Z" transform="translate(-39.213 -135.707)" fill="#fafafa"/>
        <path id="Path_2505" data-name="Path 2505" d="M153.33,220.787c0,.134-.778.349-1.789.5a3.926,3.926,0,0,1-1.851,0,3.944,3.944,0,0,1,1.789-.5A3.872,3.872,0,0,1,153.33,220.787Z" transform="translate(-39.247 -137.446)" fill="#fafafa"/>
        <path id="Path_2506" data-name="Path 2506" d="M154.691,224.3c.045.116-.5.438-1.225.715s-1.342.4-1.386.286.5-.447,1.225-.724S154.6,224.179,154.691,224.3Z" transform="translate(-39.499 -137.825)" fill="#fafafa"/>
        <path id="Path_2507" data-name="Path 2507" d="M83.928,249.854l-10.768-22.8,13.549-2.987,11.206,24.791Z" transform="translate(-31.161 -137.805)" fill="#263238"/>
        <path id="Path_2508" data-name="Path 2508" d="M79.479,225.652c-.34-.394-.653-1.064-.224-1.359a.653.653,0,0,1,.894.358,1.913,1.913,0,0,1,0,1.055l-.367.188" transform="translate(-31.783 -137.822)" fill="#263238"/>
        <path id="Path_2509" data-name="Path 2509" d="M105.72,187.91a2.224,2.224,0,0,1,0,.233c0,.188-.063.411-.1.7a13.988,13.988,0,0,1-.769,2.567,38.27,38.27,0,0,1-1.932,3.765,16.993,16.993,0,0,0-1.9,5.187,22.975,22.975,0,0,0-.179,6.7,47.56,47.56,0,0,0,1.583,7.575c.733,2.683,1.655,5.366,2.406,8.264a36.016,36.016,0,0,1,1.359,9.167,19.675,19.675,0,0,1-.563,4.7,4.471,4.471,0,0,1-1.154,2.093,2.835,2.835,0,0,1-2.245.751,6.368,6.368,0,0,1-3.873-2.209,14.434,14.434,0,0,1-2.37-3.577,71.173,71.173,0,0,1-2.683-7.334,17.672,17.672,0,0,0-3.13-5.894,8.631,8.631,0,0,0-4.552-2.925,6.6,6.6,0,0,0-4.051.465,5.107,5.107,0,0,0-2.021,1.646c-.358.492-.447.8-.483.8s0-.08.08-.224a3.486,3.486,0,0,1,.322-.626,5.143,5.143,0,0,1,2.021-1.789,6.681,6.681,0,0,1,4.186-.554,8.783,8.783,0,0,1,4.74,2.96,17.815,17.815,0,0,1,3.255,5.974,70.259,70.259,0,0,0,2.683,7.28,14.113,14.113,0,0,0,2.3,3.425,5.929,5.929,0,0,0,3.577,2.057,2.388,2.388,0,0,0,1.9-.635,3.971,3.971,0,0,0,1.02-1.878,19.392,19.392,0,0,0,.546-4.579,36.2,36.2,0,0,0-1.333-9.051c-.742-2.88-1.655-5.608-2.379-8.264a46.808,46.808,0,0,1-1.556-7.647,23.254,23.254,0,0,1,.241-6.806,17.378,17.378,0,0,1,1.985-5.25,40.445,40.445,0,0,0,1.994-3.712,15.383,15.383,0,0,0,.841-2.522c.063-.268.107-.492.143-.671a.814.814,0,0,1,.089-.161Z" transform="translate(-31.784 -133.985)" fill="#27496d"/>
        <path id="Path_2510" data-name="Path 2510" d="M122.364,171.45a7.718,7.718,0,0,1-.054,1.386,19.347,19.347,0,0,1-.608,3.765,12.521,12.521,0,0,1-2.826,4.9,15.392,15.392,0,0,1-5.634,4.042,10.375,10.375,0,0,1-6.878.528,8.049,8.049,0,0,1-2.755-1.35,6.26,6.26,0,0,1-1.717-2.048,8.318,8.318,0,0,1-.894-3.7,7.212,7.212,0,0,1,0-1.037,1.673,1.673,0,0,1,.045-.358,13,13,0,0,1,.116,1.386,8.738,8.738,0,0,0,1.046,3.577,6.779,6.779,0,0,0,4.311,3.13,10.044,10.044,0,0,0,6.582-.554,15.284,15.284,0,0,0,5.491-3.89,12.521,12.521,0,0,0,2.835-4.7,23.136,23.136,0,0,0,.742-3.694A7.987,7.987,0,0,1,122.364,171.45Z" transform="translate(-34.1 -132.246)" fill="#27496d"/>
        <path id="Path_2511" data-name="Path 2511" d="M119.34,203.1c.4,2.021,10.965,36.919,10.965,36.919s7.217,9.963,7.217,15.624h8.47a7.1,7.1,0,0,0,5.786-2.978h0a7.074,7.074,0,0,0,1.1-5.876l-12.923-50.978s-7.682-8.89-13.344-4.042A24.326,24.326,0,0,0,119.34,203.1Z" transform="translate(-36.04 -134.24)" fill="#ebebeb"/>
        <path id="Path_2512" data-name="Path 2512" d="M76,235.322l16.563-4.042,16.993,8.89,17.234.617c5.786,1.494,8.273,10.929,6.824,16.724L133,259.971,99.62,245.661,80.472,243.98Z" transform="translate(-31.461 -138.567)" fill="#ffbe9d"/>
        <path id="Path_2513" data-name="Path 2513" d="M88.606,237.787a2.611,2.611,0,0,1-1.52.733,12.9,12.9,0,0,1-4.06,0,33.277,33.277,0,0,1-5.625-.841,35.841,35.841,0,0,1,5.67.376,16.492,16.492,0,0,0,3.953.179C88.016,238.064,88.57,237.715,88.606,237.787Z" transform="translate(-31.609 -139.242)" fill="#eb996e"/>
        <path id="Path_2514" data-name="Path 2514" d="M87.936,241.9a19.927,19.927,0,0,1-4.9-.349,19.677,19.677,0,0,1-4.785-1.118,39.07,39.07,0,0,1,4.856.653,38.935,38.935,0,0,1,4.83.814Z" transform="translate(-31.699 -139.533)" fill="#eb996e"/>
        <path id="Path_2515" data-name="Path 2515" d="M146.642,252.776a25.513,25.513,0,0,0-.68-3.39,15.123,15.123,0,0,0-4.4-6.9,13.647,13.647,0,0,0-3.828-2.424,8.577,8.577,0,0,0-3.577-.68,5.232,5.232,0,0,0-2.379.653c-.5.3-.742.537-.769.51s0-.081.143-.2a3.867,3.867,0,0,1,.528-.465,4.99,4.99,0,0,1,2.451-.832,8.72,8.72,0,0,1,3.792.608,13.666,13.666,0,0,1,3.971,2.477,14.631,14.631,0,0,1,4.418,7.155,12.03,12.03,0,0,1,.393,2.531A3.433,3.433,0,0,1,146.642,252.776Z" transform="translate(-37.272 -139.386)" fill="#263238"/>
        <path id="Path_2516" data-name="Path 2516" d="M144.3,235.68a23.082,23.082,0,0,0-6.922.653,23.2,23.2,0,0,0-6.26,3.13,6.135,6.135,0,0,1,1.547-1.4,15.2,15.2,0,0,1,4.606-2.138,14.99,14.99,0,0,1,5-.563A6.1,6.1,0,0,1,144.3,235.68Z" transform="translate(-37.285 -138.996)" fill="#263238"/>
      </g>
      <g id="freepik--character-2--inject-102" transform="translate(131.395 109.883)">
        <path id="Path_2517" data-name="Path 2517" d="M233.546,149.566c-2.29-5.545-2.415-15.2,1.091-20.239s10.052-8.407,16.1-9.7a5.178,5.178,0,0,1,3.041,0,2.048,2.048,0,0,1,1.252,2.477,12.986,12.986,0,0,1,3.792-1.807,4.4,4.4,0,0,1,4.007.894,2.683,2.683,0,0,1,.1,3.8,4.615,4.615,0,0,1,5.822,6.144,14.613,14.613,0,0,1-3.363,4.472,4.148,4.148,0,0,0-1.261,4.06" transform="translate(-154.763 -119.395)" fill="#263238"/>
        <path id="Path_2518" data-name="Path 2518" d="M253.979,180.166c0-2.567.054-10.267.063-10.374s8.675-.4,9.695-8.943c.5-4.114.832-12.673,1.037-20.418a15.982,15.982,0,0,0-14.31-16.313l-.823-.089c-8.944-.438-14.31,6.9-14.48,15.839L234,174.022a10.008,10.008,0,0,0,9.534,10.357h0C249.2,184.638,253.979,180.166,253.979,180.166Z" transform="translate(-154.983 -119.882)" fill="#ffbe9d"/>
        <path id="Path_2519" data-name="Path 2519" d="M255.167,174.554a19.927,19.927,0,0,1-10.777-4.364s1.708,5.366,10.294,5.491Z" transform="translate(-156.082 -124.761)" fill="#eb996e"/>
        <path id="Path_2520" data-name="Path 2520" d="M266.021,148.594a1.216,1.216,0,0,1-1.306,1.1,1.172,1.172,0,0,1-1.136-1.234,1.225,1.225,0,0,1,1.306-1.1,1.172,1.172,0,0,1,1.136,1.234Z" transform="translate(-158.109 -122.349)" fill="#263238"/>
        <path id="Path_2521" data-name="Path 2521" d="M265.29,146.666c-.17.143-1.02-.635-2.334-.778s-2.334.411-2.459.241.116-.349.572-.608a3.309,3.309,0,0,1,1.994-.385,3.247,3.247,0,0,1,1.833.814C265.263,146.3,265.415,146.6,265.29,146.666Z" transform="translate(-157.78 -122.112)" fill="#263238"/>
        <path id="Path_2522" data-name="Path 2522" d="M251.29,147.674a1.234,1.234,0,0,1-1.306,1.1,1.172,1.172,0,0,1-1.145-1.225,1.234,1.234,0,0,1,1.306-1.109,1.18,1.18,0,0,1,1.145,1.234Z" transform="translate(-156.552 -122.252)" fill="#263238"/>
        <path id="Path_2523" data-name="Path 2523" d="M250.859,145.386c-.17.143-1.02-.635-2.334-.778s-2.343.42-2.468.241.125-.349.581-.608a3.3,3.3,0,0,1,1.994-.385,3.246,3.246,0,0,1,1.833.814C250.832,145.02,250.939,145.324,250.859,145.386Z" transform="translate(-156.254 -121.977)" fill="#263238"/>
        <path id="Path_2524" data-name="Path 2524" d="M255.57,155.7a9.068,9.068,0,0,1,2.173-.152c.34,0,.662,0,.742-.259a1.708,1.708,0,0,0-.116-1.011c-.233-.841-.465-1.726-.716-2.683a43.9,43.9,0,0,1-1.5-6.9,44.519,44.519,0,0,1,2.057,6.77l.671,2.683a1.986,1.986,0,0,1,0,1.333.894.894,0,0,1-.6.429,2.609,2.609,0,0,1-.581,0A8.7,8.7,0,0,1,255.57,155.7Z" transform="translate(-157.263 -122.067)" fill="#263238"/>
        <path id="Path_2525" data-name="Path 2525" d="M251.114,157.56c.215,0,.063,1.431,1.172,2.576s2.638,1.145,2.629,1.342-.367.241-1.011.188a3.577,3.577,0,0,1-2.2-1.037,3.139,3.139,0,0,1-.894-2.155C250.819,157.873,250.98,157.542,251.114,157.56Z" transform="translate(-156.76 -123.427)" fill="#263238"/>
        <path id="Path_2526" data-name="Path 2526" d="M251.706,139.722c-.161.34-1.458,0-3.014.054s-2.844.3-3.014,0c-.072-.161.179-.474.715-.769a5.152,5.152,0,0,1,2.3-.537,5.071,5.071,0,0,1,2.3.528C251.528,139.248,251.787,139.561,251.706,139.722Z" transform="translate(-156.217 -121.41)" fill="#263238"/>
        <path id="Path_2527" data-name="Path 2527" d="M265.255,142.358c-.268.277-1.136-.134-2.218-.259s-2.03,0-2.209-.358c-.072-.152.107-.438.537-.68a3.139,3.139,0,0,1,1.851-.3,3.059,3.059,0,0,1,1.708.8C265.273,141.911,265.371,142.224,265.255,142.358Z" transform="translate(-157.817 -121.649)" fill="#263238"/>
        <path id="Path_2528" data-name="Path 2528" d="M234.645,148.85c-.134-.081-5.67-2.361-6.117,3.488s5.527,5.089,5.545,4.919S234.645,148.85,234.645,148.85Z" transform="translate(-154.403 -122.454)" fill="#ffbe9d"/>
        <path id="Path_2529" data-name="Path 2529" d="M232.627,155.127a1.8,1.8,0,0,1-.286.125.993.993,0,0,1-.76,0,2.531,2.531,0,0,1-.993-2.352,3.371,3.371,0,0,1,.394-1.44,1.207,1.207,0,0,1,.823-.724.519.519,0,0,1,.581.331c.072.17,0,.277.054.3s.134-.089.1-.34a.635.635,0,0,0-.2-.385.76.76,0,0,0-.554-.188,1.467,1.467,0,0,0-1.136.823,3.577,3.577,0,0,0-.474,1.61,2.683,2.683,0,0,0,1.3,2.683,1.091,1.091,0,0,0,.939-.089C232.61,155.27,232.7,155.136,232.627,155.127Z" transform="translate(-154.578 -122.676)" fill="#eb996e"/>
        <path id="Path_2530" data-name="Path 2530" d="M269.366,129.546c.107,7.638-9.471,10.088-13.245,5.536-1.789-2.111-3.22-4.686-5.733-5.769a6.985,6.985,0,0,0-5.366.152h-.054c-2.5,1.064-4.141,3.747-4.722,6.413-.8,3.7-.456,7.056-1.7,10.428a2.343,2.343,0,0,1-.823,1.27c-.742.456-1.735-.072-2.263-.76a7.226,7.226,0,0,1-1.172-3.971,24.147,24.147,0,0,1,1.073-9.453,16.376,16.376,0,0,1,5.366-7.754,15.58,15.58,0,0,1,11.287-2.933,19.148,19.148,0,0,1,10.625,5.151,11.3,11.3,0,0,1,3.13,4.516" transform="translate(-155.005 -119.731)" fill="#263238"/>
        <path id="Path_2531" data-name="Path 2531" d="M266.162,125.178a1.646,1.646,0,0,1,.8.089,4.069,4.069,0,0,1,1.851,1.225,4.981,4.981,0,0,1,1.225,3.059,5.617,5.617,0,0,1-1.413,3.765,7.387,7.387,0,0,1-3.354,2.227,9.936,9.936,0,0,1-3.246.465,12.517,12.517,0,0,1-2.182-.232,2.682,2.682,0,0,1-.778-.224c0-.08,1.136.17,2.96.134a10.294,10.294,0,0,0,3.112-.537,7.154,7.154,0,0,0,3.139-2.12,5.312,5.312,0,0,0,1.342-3.47,4.758,4.758,0,0,0-1.055-2.862,4.177,4.177,0,0,0-1.663-1.261A7.542,7.542,0,0,1,266.162,125.178Z" transform="translate(-157.633 -120.004)" fill="#455a64"/>
        <path id="Path_2532" data-name="Path 2532" d="M261.928,121.849a.806.806,0,0,1,.546.134,1.878,1.878,0,0,1,.823,1.324,3.462,3.462,0,0,1-.617,2.2,9.668,9.668,0,0,1-1.789,2.12,10.134,10.134,0,0,1-4.382,2.334,4.99,4.99,0,0,1-2.048.188c0-.08.778-.125,1.968-.5a11.081,11.081,0,0,0,4.168-2.361,10.3,10.3,0,0,0,1.717-1.994,3.22,3.22,0,0,0,.653-1.95,1.788,1.788,0,0,0-.6-1.216C262.1,121.921,261.919,121.885,261.928,121.849Z" transform="translate(-157.146 -119.653)" fill="#455a64"/>
        <path id="Path_2533" data-name="Path 2533" d="M312.12,433.07l6.511,18.907s21.411-.268,22.958,3.112l-36.212,13.943L294,439.992Z" transform="translate(-161.323 -152.535)" fill="#27496d"/>
        <path id="Path_2534" data-name="Path 2534" d="M308.278,457.249a1.583,1.583,0,0,0-.376,2.084,1.511,1.511,0,0,0,2.057.384,1.655,1.655,0,0,0,.385-2.2,1.565,1.565,0,0,0-2.182-.17" transform="translate(-162.767 -155.061)" fill="#e0e0e0"/>
        <g id="Group_730" data-name="Group 730" transform="translate(143.024 301.302)" opacity="0.6">
          <path id="Path_2535" data-name="Path 2535" d="M306.6,471.485l-1.029-2.933,35.1-12.262s1.878.081,2.137,1.288Z" transform="translate(-305.57 -456.29)" fill="#fff"/>
        </g>
        <path id="Path_2536" data-name="Path 2536" d="M321.813,453.753c.063.179-.8.6-1.44,1.5s-.832,1.789-1.02,1.789-.322-1.127.483-2.209S321.786,453.574,321.813,453.753Z" transform="translate(-163.987 -154.713)" fill="#263238"/>
        <path id="Path_2537" data-name="Path 2537" d="M326.8,453.876c.107.152-.546.751-.894,1.726s-.188,1.842-.367,1.9-.671-.894-.259-2.1S326.8,453.706,326.8,453.876Z" transform="translate(-164.611 -154.729)" fill="#263238"/>
        <path id="Path_2538" data-name="Path 2538" d="M331.332,457.583c-.143.1-.733-.689-.653-1.789s.76-1.842.894-1.726-.179.832-.233,1.789S331.5,457.521,331.332,457.583Z" transform="translate(-165.197 -154.752)" fill="#263238"/>
        <path id="Path_2539" data-name="Path 2539" d="M319.482,449.1c0,.188-.894.259-1.887.716s-1.628,1.064-1.789.948.358-1.037,1.511-1.556S319.554,448.926,319.482,449.1Z" transform="translate(-163.624 -154.206)" fill="#263238"/>
        <path id="Path_2540" data-name="Path 2540" d="M163.591,430.29l-.4.537-7.835,10.222-9.7,6.663,12.995,25.042h14.31s-1.037-3.443-7.924-5.223l-.447-13.746,12.36-13.576" transform="translate(-145.65 -152.241)" fill="#27496d"/>
        <g id="Group_731" data-name="Group 731" transform="translate(0 294.049)" opacity="0.6">
          <path id="Path_2541" data-name="Path 2541" d="M145.65,449.593l12.995,25.042,14.31.009-1.61-2.147-11.636-.653L147.716,448.18Z" transform="translate(-145.65 -448.18)" fill="#fff"/>
        </g>
        <path id="Path_2542" data-name="Path 2542" d="M166.748,464.791c-.107.143-.894-.322-2.039-.3s-1.923.492-2.03.349.671-.966,2.021-.975S166.873,464.675,166.748,464.791Z" transform="translate(-147.448 -155.789)" fill="#263238"/>
        <path id="Path_2543" data-name="Path 2543" d="M166.516,460.9c-.143.1-.778-.742-1.923-.966s-2.048.3-2.146.143.116-.3.519-.519a2.62,2.62,0,0,1,1.789-.242,2.683,2.683,0,0,1,1.52.894C166.516,460.565,166.561,460.815,166.516,460.9Z" transform="translate(-147.422 -155.301)" fill="#263238"/>
        <path id="Path_2544" data-name="Path 2544" d="M166.653,455.974c-.161.08-.644-.742-1.646-1.091s-1.887,0-1.959-.179.143-.277.537-.42a2.433,2.433,0,0,1,1.637,0,2.406,2.406,0,0,1,1.27,1.02C166.706,455.678,166.724,455.947,166.653,455.974Z" transform="translate(-147.487 -154.761)" fill="#263238"/>
        <path id="Path_2545" data-name="Path 2545" d="M170.976,452.122c-.17.063-.572-.751-1.458-1.333s-1.789-.662-1.789-.841,1.064-.4,2.138.322S171.146,452.1,170.976,452.122Z" transform="translate(-147.983 -154.299)" fill="#263238"/>
        <g id="Group_732" data-name="Group 732" transform="translate(8.013 293.343)" opacity="0.6">
          <path id="Path_2546" data-name="Path 2546" d="M158.009,449.089a1.7,1.7,0,1,1-1.7-1.7A1.7,1.7,0,0,1,158.009,449.089Z" transform="translate(-154.61 -447.39)" fill="#fff"/>
        </g>
        <path id="Path_2547" data-name="Path 2547" d="M219,314.424l44.235,64.84,23.924,56.7,20.257-10.831-20.481-56.782L256.84,308.7Z" transform="translate(-153.399 -139.395)" fill="#518fa4"/>
        <path id="Path_2548" data-name="Path 2548" d="M194.13,308.7l-7.387,52.2-30.2,65.86,17.994,10.455,38.4-65.279L234.259,308.7Z" transform="translate(-146.8 -139.395)" fill="#518fa4"/>
        <path id="Path_2549" data-name="Path 2549" d="M176.66,437.891a2.037,2.037,0,0,1,.152-.313l.5-.894,1.968-3.452,7.289-12.691c6.216-10.679,14.775-25.391,24.219-41.65l4.525-7.736v.045l13.281-40c1.69-5.008,3.041-9.042,3.989-11.85l1.1-3.184c.116-.349.215-.617.286-.823a1.219,1.219,0,0,1,.116-.277,1.429,1.429,0,0,1-.072.286l-.25.841c-.241.751-.581,1.833-1.02,3.211l-3.908,11.922-13.111,40.022h0l-4.472,7.745-24.335,41.578c-3.121,5.295-5.652,9.587-7.423,12.575-.894,1.467-1.556,2.612-2.039,3.407l-.537.894A2.206,2.206,0,0,1,176.66,437.891Z" transform="translate(-148.926 -140.068)" fill="#455a64"/>
        <path id="Path_2550" data-name="Path 2550" d="M196.049,298.279c6.108,3.667,67.193-.787,67.193-.787l.993-14.775-7.405-16.993-7.155-75.215.948-6.117L228.263,169.6v6.52c-13.415,2.021-20.659,28.315-20.659,28.315l-.465,53.885L192.23,294.854Z" transform="translate(-150.571 -124.699)" fill="#f4cb3c"/>
        <g id="Group_733" data-name="Group 733" transform="translate(47.329 144.725)" opacity="0.3">
          <path id="Path_2551" data-name="Path 2551" d="M198.57,292.649a69.974,69.974,0,0,0,13.5,13.058c2.772,2.084,6.064,4.06,9.489,3.515s5.786-3.264,7.96-5.822q6.1-7.173,12.226-14.426a5.884,5.884,0,0,0,1.574-2.746,3.81,3.81,0,0,0-1.708-3.577,8.361,8.361,0,0,0-3.89-1.279c-8.595-1.011-16.993,3.247-25.623,3.327-2.96,0-7.763-.563-10.562.4l-2.969,7.512" transform="translate(-198.57 -281.217)"/>
        </g>
        <path id="Path_2552" data-name="Path 2552" d="M149.131,232.636c-4.069-4.212,7.432-24.612,19.676-34.683a15.2,15.2,0,0,1,21.214,1.914l53.232,62.1-9.838,14.435-11.153,14.453a8.729,8.729,0,0,1-13.049.894Z" transform="translate(-145.93 -127.331)" fill="#455a64"/>
        <path id="Path_2553" data-name="Path 2553" d="M238,178.616S223.626,171,201.92,205.446l3.846,4.472s18.128-31.866,30.113-28.011-3.077,46.113-3.077,46.113S256.609,185.9,238,178.616Z" transform="translate(-151.595 -125.576)" fill="#263238"/>
        <path id="Path_2554" data-name="Path 2554" d="M240.947,276.123l16.1-11.564s-5.366-5.411-11.922-12.333S230.018,236.7,230.018,236.7s19.193-55.915,3.318-55.1c0,0-13.049.671-19.139,21.572-2.522,8.675-5.921,26.759-8.139,37.607-1.028,5.044,2.415,8.774,6.824,11.627Z" transform="translate(-152.013 -125.966)" fill="#f4cb3c"/>
        <path id="Path_2555" data-name="Path 2555" d="M212.852,253.447a2.683,2.683,0,0,1-.581-.34,14.143,14.143,0,0,1-1.583-1.127,10.338,10.338,0,0,1-1.055-.894c-.188-.179-.385-.358-.581-.555s-.376-.429-.572-.653a11.778,11.778,0,0,1-2.084-3.506,8.826,8.826,0,0,1-.483-4.91q.51-2.6,1.073-5.527c.778-3.917,1.574-8.192,2.567-12.664s1.968-8.729,3.032-12.521,2.191-7.226,3.2-10.052,1.959-5.071,2.683-6.6c.331-.733.59-1.324.8-1.789a3.291,3.291,0,0,1,.3-.6,3.58,3.58,0,0,1-.224.635c-.179.447-.411,1.046-.715,1.789-.617,1.556-1.494,3.819-2.486,6.645s-2.057,6.26-3.1,10.061-2.039,8.049-2.987,12.521-1.789,8.756-2.558,12.646q-.59,2.916-1.109,5.518a8.487,8.487,0,0,0,.4,4.722,13.755,13.755,0,0,0,4.016,5.643c.626.554,1.163.894,1.52,1.181A5.76,5.76,0,0,1,212.852,253.447Z" transform="translate(-152.001 -127.035)" fill="#263238"/>
        <path id="Path_2556" data-name="Path 2556" d="M231.52,243.21a3.209,3.209,0,0,1,.456.394l1.27,1.189,4.6,4.472,15.034,14.748,7.012,6.94.179.179-.188.152c-2.272,1.842-4.472,3.381-6.484,4.74l-5.205,3.577c-1.449,1-2.585,1.789-3.354,2.4l-.894.653a1.307,1.307,0,0,1-.322.215,2.563,2.563,0,0,1,.277-.268c.188-.161.465-.411.832-.715.742-.608,1.851-1.467,3.282-2.5s3.175-2.254,5.151-3.631,4.177-2.942,6.413-4.776v.322l-7.056-6.994-14.936-14.846c-1.869-1.878-3.39-3.425-4.472-4.534-.5-.51-.894-.894-1.207-1.252A2.586,2.586,0,0,1,231.52,243.21Z" transform="translate(-154.722 -132.476)" fill="#263238"/>
        <path id="Path_2557" data-name="Path 2557" d="M242.3,212.12c.116,0-1.86,6.609-4.472,14.667s-4.74,14.56-4.865,14.515,1.86-6.6,4.472-14.658S242.171,212.084,242.3,212.12Z" transform="translate(-154.874 -129.191)" fill="#263238"/>
        <path id="Path_2558" data-name="Path 2558" d="M231.452,244.26a12.282,12.282,0,0,1-1.511-.42,9.658,9.658,0,0,0-3.685-.161,9.552,9.552,0,0,0-3.47,1.288,14.215,14.215,0,0,1-1.306.894,3.514,3.514,0,0,1,1.118-1.136,8.362,8.362,0,0,1,7.441-1.163A3.525,3.525,0,0,1,231.452,244.26Z" transform="translate(-153.661 -132.47)" fill="#263238"/>
        <path id="Path_2559" data-name="Path 2559" d="M254.116,184.962a14.6,14.6,0,0,0-1.19,1.574,11.671,11.671,0,0,0-1.869,4.785l-.081.581-.286-.519a29.6,29.6,0,0,0-4.91-6.6,30.684,30.684,0,0,0-8.881-6.26c-2.549-1.172-4.257-1.583-4.23-1.672a6.659,6.659,0,0,1,1.207.259,26.188,26.188,0,0,1,3.157,1.109,29.076,29.076,0,0,1,9.078,6.26,28.118,28.118,0,0,1,4.928,6.752l-.367.063a11.269,11.269,0,0,1,2.066-4.865,8.649,8.649,0,0,1,.975-1.109C253.955,185.033,254.1,184.944,254.116,184.962Z" transform="translate(-154.844 -125.465)" fill="#263238"/>
        <path id="Path_2560" data-name="Path 2560" d="M259.208,309.636a4.382,4.382,0,0,1-1.619-.787,11.35,11.35,0,0,1-3.1-3.05,11.679,11.679,0,0,1-1.789-3.971,4.525,4.525,0,0,1-.17-1.789,17.888,17.888,0,0,0,2.325,5.509A17.377,17.377,0,0,0,259.208,309.636Z" transform="translate(-156.939 -138.48)" fill="#263238"/>
        <path id="Path_2561" data-name="Path 2561" d="M202.922,226.848l-.161-.134-.447-.4-1.7-1.619-6.171-5.983-9.113-8.944-2.629-2.585c-.894-.894-1.789-1.789-2.781-2.629a11.529,11.529,0,0,0-3.282-2.075,5.626,5.626,0,0,0-3.864-.116,10.258,10.258,0,0,0-3.4,2.084c-1,.894-1.941,1.789-2.862,2.737a67.213,67.213,0,0,0-4.955,5.643A70.654,70.654,0,0,0,151.139,231.3c-.376.894-.626,1.69-.814,2.191-.08.224-.152.411-.206.572a.832.832,0,0,1-.089.188.68.68,0,0,1,.045-.206l.161-.581c.161-.519.385-1.27.733-2.227a61.707,61.707,0,0,1,3.4-7.906,66.881,66.881,0,0,1,6.86-10.777,62.006,62.006,0,0,1,4.964-5.688c.894-.894,1.86-1.878,2.88-2.772a10.785,10.785,0,0,1,3.577-2.182,6.064,6.064,0,0,1,4.168.134,11.787,11.787,0,0,1,3.416,2.155c1.011.894,1.9,1.789,2.8,2.683l2.62,2.594,9.069,9,6.073,6.091,1.628,1.672.42.447C202.886,226.786,202.931,226.839,202.922,226.848Z" transform="translate(-146.113 -128.081)" fill="#263238"/>
        <path id="Path_2562" data-name="Path 2562" d="M191.048,198.457a27.646,27.646,0,0,0-7.87,0,27.243,27.243,0,0,0-7.387,2.683,7.227,7.227,0,0,1,1.941-1.324,18.29,18.29,0,0,1,11.036-1.985,7.71,7.71,0,0,1,2.281.626Z" transform="translate(-148.834 -127.664)" fill="#263238"/>
        <path id="Path_2563" data-name="Path 2563" d="M264.867,284.218c-1.914-.233-1.458.957-.492,2.263-2.916,2.9-6.028,6.377-10.035,7.3l-7.53-8.568,11.117-7.611,1.565,1.333a28.816,28.816,0,0,0,4.668,2.254,8.051,8.051,0,0,0,2.594.528,11.925,11.925,0,0,0,3.3-.233c.966-.3,1.789.724,1.261,1.467S268.131,284.594,264.867,284.218Z" transform="translate(-156.338 -136.109)" fill="#ffbe9d"/>
        <path id="Path_2564" data-name="Path 2564" d="M266.334,286.08a7.342,7.342,0,0,1-1.163,1.833A21.384,21.384,0,0,1,257,294.326a7.781,7.781,0,0,1-2.057.7,29.472,29.472,0,0,0,11.394-8.943Z" transform="translate(-157.196 -137.005)" fill="#455a64"/>
      </g>
      <g id="freepik--Light--inject-102" transform="translate(276.888 29.36)">
        <rect id="Rectangle_730" data-name="Rectangle 730" width="6.788" height="181.231" transform="translate(17.601 14.721)" fill="#455a64"/>
        <circle id="Ellipse_614" data-name="Ellipse 614" cx="20.99" cy="20.99" r="20.99" fill="#27496d"/>
        <circle id="Ellipse_615" data-name="Ellipse 615" cx="20.99" cy="20.99" r="20.99" fill="#fff"/>
        <rect id="Rectangle_731" data-name="Rectangle 731" width="11.877" height="2.567" rx="1.283" transform="translate(14.891 41.069)" fill="#455a64"/>
        <path id="Path_2565" data-name="Path 2565" d="M337.787,391.921l-13.567.367V228.3h13.567Z" transform="translate(-310.009 -50.378)" fill="#263238"/>
        <rect id="Rectangle_732" data-name="Rectangle 732" width="23.45" height="2.817" rx="1.409" transform="translate(9.194 175.105)" fill="#263238"/>
      </g>
    </g>
  </g>
</svg>
