<svg xmlns="http://www.w3.org/2000/svg" width="353.404" height="357.858" viewBox="0 0 353.404 357.858">
  <g id="Address-amico" transform="translate(-37.791 -38.84)">
    <g id="freepik--Floor--inject-1--inject-104" transform="translate(37.791 205.003)">
      <path id="freepik--floor--inject-1--inject-104-2" data-name="freepik--floor--inject-1--inject-104" d="M89.549,401.122c69.006,37.422,180.887,37.43,249.892,0s69.006-98.122,0-135.552-180.887-37.43-249.892,0S20.535,363.692,89.549,401.122Z" transform="translate(-37.791 -237.498)" fill="#c4d2dc" opacity="0.7"/>
    </g>
    <g id="freepik--Shadow--inject-1--inject-104" transform="translate(84.271 239.19)">
      <ellipse id="freepik--shadow--inject-1--inject-104-2" data-name="freepik--shadow--inject-1--inject-104" cx="47.702" cy="22.734" rx="47.702" ry="22.734" fill="#e0e0e0"/>
    </g>
    <g id="freepik--Plants--inject-1--inject-104" transform="translate(46.28 209.418)">
      <g id="freepik--plants--inject-1--inject-104-2" data-name="freepik--plants--inject-1--inject-104">
        <g id="freepik--plants--inject-1--inject-104-3" data-name="freepik--plants--inject-1--inject-104">
          <path id="Path_1647" data-name="Path 1647" d="M75.62,293.8l5.362-3.061s2.576-14.169.652-26.348c-2.71-17.13-14.37-23.035-18.6-21.337s-5.228,6.775,2.417,16.67C70,265.547,75.771,277.909,75.62,293.8Z" transform="translate(-49.875 -242.776)" fill="#f4cb3c"/>
          <g id="Group_698" data-name="Group 698" transform="translate(9.896)" opacity="0.1">
            <path id="Path_1648" data-name="Path 1648" d="M75.62,293.8l5.362-3.061s2.576-14.169.652-26.348c-2.71-17.13-14.37-23.035-18.6-21.337s-5.228,6.775,2.417,16.67C70,265.547,75.771,277.909,75.62,293.8Z" transform="translate(-59.771 -242.776)"/>
          </g>
          <path id="Path_1649" data-name="Path 1649" d="M78.71,287.483h-.042a.393.393,0,0,1-.326-.435c2.2-16-4.249-33.566-11.493-40.676a.385.385,0,0,1,.535-.552c7.377,7.21,13.952,25.093,11.71,41.336a.385.385,0,0,1-.385.326Z" transform="translate(-51.015 -243.258)" fill="#fff"/>
          <path id="Path_1650" data-name="Path 1650" d="M58.814,305.267c-.836.485-2.593-.577-3.262-1.029a8.13,8.13,0,0,1-2.693-3.086,7.611,7.611,0,0,1-.669-4.55,17.221,17.221,0,0,1,.577-2.417l.678-2.35a6.056,6.056,0,0,0,.343-2.367c-.209-1.606-1.673-2.735-2.928-3.705-1.439-1.071-2.928-2.509-2.919-4.425a6.809,6.809,0,0,1,1.673-4.048c.92-1.171,2.016-2.2,2.852-3.438a4.8,4.8,0,0,0,.979-3,5.061,5.061,0,0,0-.661-1.882,26.473,26.473,0,0,1-2.049-3.764,3.769,3.769,0,0,1,.652-4.007,4.416,4.416,0,0,1,3.346-.836,7.527,7.527,0,0,1,3.095,1.087c3.07,1.673,4.826,5.336,8.08,6.691a34.408,34.408,0,0,0,3.948.962,4.835,4.835,0,0,1,3.229,2.208c1.2,2.392-1.02,5.328-.176,7.871.744,2.242,2.919,3.095,4.182,5.119a4.818,4.818,0,0,1,.569,2.936,14.018,14.018,0,0,1-1.23,4.968,35.775,35.775,0,0,1-2.727,4.467C73.635,296.719,58.939,305.217,58.814,305.267Z" transform="translate(-47.94 -245.643)" fill="#f4cb3c"/>
          <path id="Path_1651" data-name="Path 1651" d="M68.955,301.108h0a.376.376,0,0,1-.368-.393c.627-15.181-6.524-31.935-11.71-36.8a.379.379,0,0,1,.519-.552c5.3,4.96,12.605,22,11.961,37.38a.376.376,0,0,1-.4.368Z" transform="translate(-49.382 -246.126)" fill="#fff"/>
          <path id="Path_1652" data-name="Path 1652" d="M66.389,286.583h-.117A51.445,51.445,0,0,0,55.256,284.8a.385.385,0,0,1,0-.761,52.381,52.381,0,0,1,11.208,1.807.385.385,0,0,1-.109.753Z" transform="translate(-49.083 -249.525)" fill="#fff"/>
        </g>
        <g id="freepik--plants--inject-1--inject-104-4" data-name="freepik--plants--inject-1--inject-104" transform="translate(279.915 101.484)">
          <path id="Path_1653" data-name="Path 1653" d="M390.731,390.875c2.886-6.273,13.383-17.18,23.629-22.333s23.2-6.407,29.334-.586c5.7,5.42.895,13.96-10.037,16.076s-26.649,3.839-34.929,12.354l-13.308,9Z" transform="translate(-383.056 -364.106)" fill="#f4cb3c"/>
          <path id="Path_1654" data-name="Path 1654" d="M390.731,390.875c2.886-6.273,13.383-17.18,23.629-22.333s23.2-6.407,29.334-.586c5.7,5.42.895,13.96-10.037,16.076s-26.649,3.839-34.929,12.354l-13.308,9Z" transform="translate(-383.056 -364.106)" opacity="0.1"/>
          <path id="Path_1655" data-name="Path 1655" d="M386.446,400.389a.51.51,0,0,0,.586-.176c14.027-19.48,39.312-28.924,51.457-28.012a.51.51,0,0,0,.544-.468.5.5,0,0,0-.468-.535c-12.362-.937-38.116,8.649-52.352,28.439a.5.5,0,0,0,.117.7A.326.326,0,0,0,386.446,400.389Z" transform="translate(-383.17 -365.255)" fill="#fff"/>
          <path id="Path_1656" data-name="Path 1656" d="M382.81,419.335c2.626-3.061,9.6-6.9,18.77-8.507,10.146-1.782,21.011.251,25.16-2.852,4.977-3.73,2.944-10.347-5.412-13s-27.234,1.757-36.92,16.988Z" transform="translate(-382.629 -369.037)" fill="#f4cb3c"/>
          <path id="Path_1657" data-name="Path 1657" d="M382.934,415.991a.5.5,0,0,0,.535-.125c14.98-15.323,31.927-15.332,38.794-13.2a.5.5,0,0,0,.627-.335.493.493,0,0,0-.326-.627c-7.595-2.359-24.524-2.183-39.822,13.458a.5.5,0,0,0,0,.711.494.494,0,0,0,.192.117Z" transform="translate(-382.594 -370.075)" fill="#fff"/>
        </g>
      </g>
    </g>
    <g id="freepik--Line--inject-1--inject-104" transform="translate(174.505 278.787)">
      <g id="freepik--line--inject-1--inject-104-2" data-name="freepik--line--inject-1--inject-104">
        <g id="freepik--Arrow--inject-1--inject-104">
          <path id="Path_1658" data-name="Path 1658" d="M201.24,329.491l9.82,5.663-3.27,1.89h13.082v-7.553l-3.27,1.89-9.811-5.671Z" transform="translate(-201.24 -325.71)" fill="#f4cb3c"/>
        </g>
        <g id="freepik--line--inject-1--inject-104-3" data-name="freepik--line--inject-1--inject-104" transform="translate(22.111 12.424)">
          <path id="Path_1659" data-name="Path 1659" d="M230.908,343.58a.787.787,0,0,1-.4-.109l-2.442-1.414a.808.808,0,0,1,.811-1.4l2.442,1.414a.836.836,0,0,1-.41,1.506Z" transform="translate(-227.675 -340.564)" fill="#f4cb3c"/>
          <path id="Path_1660" data-name="Path 1660" d="M335.633,404.047a.787.787,0,0,1-.4-.109l-4.709-2.718a.836.836,0,0,1,.836-1.4l4.7,2.718a.836.836,0,0,1-.4,1.506ZM324.2,397.439a.837.837,0,0,1-.4-.1l-4.709-2.718a.836.836,0,1,1,.836-1.4l4.709,2.718a.836.836,0,0,1-.41,1.5Zm-11.434-6.6a.787.787,0,0,1-.4-.109l-4.709-2.743a.8.8,0,1,1,.811-1.388l4.709,2.718a.836.836,0,0,1-.41,1.5Zm-11.434-6.6a.786.786,0,0,1-.4-.109l-4.709-2.718a.808.808,0,0,1,.811-1.4l4.7,2.718a.836.836,0,0,1-.4,1.506Zm-11.434-6.6a.786.786,0,0,1-.4-.109l-4.709-2.718a.836.836,0,0,1,.836-1.4l4.709,2.718a.808.808,0,0,1-.435,1.506Zm-11.434-6.6a.836.836,0,0,1-.4-.109l-4.709-2.718a.836.836,0,1,1,.836-1.4l4.709,2.718a.809.809,0,0,1-.435,1.506Zm-11.434-6.608a.837.837,0,0,1-.4-.1l-4.709-2.718a.836.836,0,0,1,.836-1.4l4.709,2.718a.836.836,0,0,1-.41,1.5ZM255.6,357.876a.786.786,0,0,1-.4-.109l-4.709-2.718a.808.808,0,0,1,.811-1.4L256,356.37a.836.836,0,0,1-.41,1.506Zm-11.434-6.6a.786.786,0,0,1-.4-.109l-4.709-2.718a.836.836,0,0,1,.836-1.4l4.709,2.718a.779.779,0,0,1-.435,1.464Z" transform="translate(-229.494 -341.618)" fill="#f4cb3c"/>
          <path id="Path_1661" data-name="Path 1661" d="M364.9,420.932a.836.836,0,0,1-.4-.1l-2.442-1.414a.808.808,0,0,1,.811-1.4l2.434,1.414a.836.836,0,0,1-.4,1.5Z" transform="translate(-249.592 -353.217)" fill="#f4cb3c"/>
        </g>
      </g>
    </g>
    <g id="freepik--Pin--inject-1--inject-104" transform="translate(233.833 128.811)">
      <g id="freepik--pin--inject-1--inject-104-2" data-name="freepik--pin--inject-1--inject-104">
        <path id="Path_1662" data-name="Path 1662" d="M403.6,165.572h0l-.753-.435-23.37-13.383a32.219,32.219,0,0,0-18.251-5.345c-8.172,0-16.419,2.961-26.13,8.364-33.934,18.8-62.925,73.02-62.925,108.619V273.2c0,43.143,56.743,95.8,56.743,95.8L352.442,382.6a.1.1,0,0,0,.1.042c-.786-.928,25-38.551,49.349-111.94C428.775,189.435,404.1,166.04,403.6,165.572ZM363.885,294.566c-19.238,11.1-35.322,5.286-39.881-12.622-8.808-1.213-15.173-7.988-17.138-19.112-2.467-35.967,16.62-64.564,43.954-76.174,11.71-4.257,21.48-1.221,26.716,7.578,16.059-2.76,27.552,8.247,27.552,28.974C405.087,249.474,386.619,281.443,363.885,294.566Z" transform="translate(-272.17 -146.406)" fill="#455a64"/>
        <path id="Path_1663" data-name="Path 1663" d="M415.224,232.482c0,26.264-18.443,58.232-41.2,71.356-19.238,11.1-35.322,5.286-39.881-12.622,5.78.836,12.6-.711,19.94-4.952,20.844-12.02,37.723-41.278,37.723-65.317,0-7.143-1.489-13.023-4.132-17.44C403.731,200.748,415.224,211.755,415.224,232.482Z" transform="translate(-282.306 -155.677)" fill="#263238"/>
        <path id="Path_1664" data-name="Path 1664" d="M343.44,300.5l13.073,7.553V282.723L343.44,275.17Z" transform="translate(-283.828 -167.468)" fill="#f4cb3c"/>
        <path id="Path_1665" data-name="Path 1665" d="M343.44,300.5l13.073,7.553V282.723L343.44,275.17Z" transform="translate(-283.828 -167.468)" opacity="0.2"/>
        <path id="Path_1666" data-name="Path 1666" d="M406.178,247.383l-30.3-14.2-30.3,49.2,11.292-6.524v25.327l14.32-8.264v-16.57l9.376-5.412V287.5l14.336-8.281V253.89Z" transform="translate(-284.176 -160.599)" fill="#f4cb3c"/>
        <path id="Path_1667" data-name="Path 1667" d="M360.234,224.15l13.082,7.553-30.3,49.2-13.082-7.553Z" transform="translate(-281.618 -159.122)" fill="#f4cb3c"/>
        <path id="Path_1668" data-name="Path 1668" d="M360.234,224.15l13.082,7.553-10.395,16.876L343.012,280.9l-13.082-7.553Z" transform="translate(-281.618 -159.122)" opacity="0.1"/>
        <path id="Path_1669" data-name="Path 1669" d="M366.16,224.15l13.082,7.553,30.3,14.2-13.082-7.553Z" transform="translate(-287.544 -159.122)" fill="#f4cb3c"/>
        <path id="Path_1670" data-name="Path 1670" d="M366.16,224.15l13.082,7.553,30.3,14.2-13.082-7.553Z" transform="translate(-287.544 -159.122)" fill="#fff" opacity="0.4"/>
        <path id="Path_1671" data-name="Path 1671" d="M376.19,300.3l9.376-5.42V278.32l-9.376,5.412Z" transform="translate(-289.184 -167.983)" fill="#f4cb3c"/>
        <path id="Path_1672" data-name="Path 1672" d="M376.19,300.3l9.376-5.42V278.32l-9.376,5.412Z" transform="translate(-289.184 -167.983)" opacity="0.2"/>
        <path id="Path_1673" data-name="Path 1673" d="M408.409,168.434h0l-.753-.435c-11.342-6.374-26.5-5.52-43.151,4.082-25.093,14.512-46.84,44.992-57.12,76.952-4.082,12.672-5.8,19.38-5.8,31.634v9.845c0,33.248,37.071,77.972,54.41,93.94a7.821,7.821,0,0,0,1.263.954.1.1,0,0,0,.1.042,8.515,8.515,0,0,0,12.128-3.513c14.939-30.588,58.5-122.8,58.5-158.562V213.56C427.982,191.394,420.487,175.695,408.409,168.434ZM328.814,284.807c-.234-.912-.452-1.865-.619-2.844a45.049,45.049,0,0,1-.7-8.314c0-26.264,18.4-58.224,41.2-71.348a49.219,49.219,0,0,1,7.528-3.546,35.507,35.507,0,0,1,6.131-1.673c16.059-2.76,27.552,8.247,27.552,28.974,0,26.264-18.443,58.232-41.2,71.356C349.482,308.528,333.373,302.715,328.814,284.807Z" transform="translate(-276.981 -149.268)" fill="#407182"/>
      </g>
    </g>
    <g id="freepik--Character--inject-1--inject-104" transform="translate(99.408 78.679)">
      <g id="freepik--character--inject-1--inject-104-2" data-name="freepik--character--inject-1--inject-104">
        <path id="Path_1678" data-name="Path 1678" d="M171.4,129.21c2.509.217,5.152,1.3,6.967,5.019l7.528,15.457s-1.271,5.085-7.9,5.763l-2.626-4.032Z" transform="translate(-121.262 -93.461)" fill="#f4cb3c"/>
        <path id="Path_1674" data-name="Path 1674" d="M174.355,120.856H156.79a14.37,14.37,0,0,1-14.37-14.37v-4.057A15.959,15.959,0,0,1,158.379,86.47h0a15.959,15.959,0,0,1,15.959,15.959Z" transform="translate(-116.522 -86.47)" fill="#263238"/>
        <path id="Path_1675" data-name="Path 1675" d="M144.739,95.434,141,93.452a2.041,2.041,0,0,1,2.8-.928A2.217,2.217,0,0,1,144.739,95.434Z" transform="translate(-116.29 -87.421)" fill="#263238"/>
        <path id="Path_1676" data-name="Path 1676" d="M145.038,96.282l-3.931,1.472a2.041,2.041,0,0,1,1.146-2.718,2.225,2.225,0,0,1,2.785,1.246Z" transform="translate(-116.28 -87.851)" fill="#263238"/>
        <path id="Path_1677" data-name="Path 1677" d="M185.879,151.93l4.835,8.858L184,166.551l-6.717-10.414Z" transform="translate(-122.224 -97.177)" fill="#9a4a4d"/>
        <path id="Path_1679" data-name="Path 1679" d="M171.4,129.21c2.509.217,5.152,1.3,6.967,5.019l7.528,15.457s-1.271,5.085-7.9,5.763l-2.626-4.032Z" transform="translate(-121.262 -93.461)" fill="#f4cb3c" opacity="0.1"/>
        <path id="Path_1680" data-name="Path 1680" d="M116.93,274.57c-1.263-.652-2.058.945-3.2,2.233a8.9,8.9,0,0,0-2.233,3.346c-.276,1.522,1.1,3.906,2.61,5.228s3.27,2.258,3.822,5.144a7.038,7.038,0,0,0,4.667,5.9c3.279,1.414,7.67.962,9.159,0,1.765-1.146.151-2.392-2.317-5.93-3.229-4.617-5.746-7.921-5.746-12.229Z" transform="translate(-111.457 -117.213)" fill="#263238"/>
        <path id="Path_1681" data-name="Path 1681" d="M120.441,270.07l-2.651,3.889a3.73,3.73,0,0,0,.9,5.169l.084.059a4.015,4.015,0,0,0,5.077-.786l4.132-4.517Z" transform="translate(-112.384 -116.501)" fill="#b16668"/>
        <path id="Path_1682" data-name="Path 1682" d="M168.616,181.078c.167,4.952,1.037,23-2.576,32.479a88.879,88.879,0,0,1-7.528,15.449c-1.079,1.849-32.086,32.035-32.086,32.035s-5.27-.385-6.106-5.487c0,0,12.705-21.605,15.457-26.03s12.5-11.225,12.5-11.225l-.887-41.529Z" transform="translate(-112.907 -101.24)" fill="#407182"/>
        <rect id="Rectangle_367" data-name="Rectangle 367" width="6.725" height="9.795" transform="translate(56.46 181.761) rotate(167.19)" fill="#b16668"/>
        <path id="Path_1683" data-name="Path 1683" d="M160.757,196.094a41.77,41.77,0,0,0,6-6.9C171.773,182.268,171,176.12,171,176.12h-2.058l-27.109.552c-2.693,4.408-3.279,11.091-2.367,17.565,1.882,13.508,13.073,36.887,13.073,36.887-.159,1.849-.937,9.611.836,16.494,2.785,10.874,10.363,29.275,10.363,29.275s4.743.678,7.1-2.066c0,0-4.182-37.313-5.328-46.84C164.262,217.6,160.757,196.094,160.757,196.094Z" transform="translate(-115.973 -101.134)" fill="#407182"/>
        <path id="Path_1684" data-name="Path 1684" d="M176.656,299.717l-.217-.937c.694.134,3.638,5.019,6.558,7.143,3.2,2.325,5.972,3.7,7.4,4.751,1.907,1.4-.836,4.274-5.562,4.525-2.334.125-6.583-.586-7.9-1.823s-2.258-3.346-3.3-4.182-3.145-1.673-3.856-2.819a8.15,8.15,0,0,1-.4-3.53c.05-1.338.075-2.576.5-2.559a5.785,5.785,0,0,0,.159.719,8.213,8.213,0,0,0,3.99.878C175.142,301.816,177.2,301.557,176.656,299.717Z" transform="translate(-120.931 -121.197)" fill="#263238"/>
        <path id="Path_1685" data-name="Path 1685" d="M168.9,224.725s-3.162-22.458-3.9-25.52c0,0,5.571-2.125,7.285-4.065a13.27,13.27,0,0,1-5.211,5.136Z" transform="translate(-120.215 -104.245)" fill="#263238"/>
        <path id="Path_1686" data-name="Path 1686" d="M149.64,229.47s3.262,8.557,4.617,10.405c0,0-.343,6.365-.293,7.653l-1.765,1.531a37.9,37.9,0,0,1,.836-8.582,43.863,43.863,0,0,1-3.4-11.007Z" transform="translate(-117.703 -109.86)" fill="#263238"/>
        <path id="Path_1687" data-name="Path 1687" d="M170.373,153.12c.427,3.931,1.522,20.074,1.522,20.074-12.973,6.926-29.066,2.334-31.525-.519a27.443,27.443,0,0,1,7.285-12.4l-4.182-11.71s-.5-1.2-.493-1.213c.259-.435,6.533-6.089,3.446-15.056a2.258,2.258,0,0,1,1.966-2.969l3.722-.3,10.1-.3c2.409.142,4.132.368,4.132.368,1.547,1.455,3.99,5.428,5.571,9.477C172.916,141.218,174.02,145.392,170.373,153.12Z" transform="translate(-116.187 -93.382)" fill="#f4cb3c"/>
        <path id="Path_1688" data-name="Path 1688" d="M147.208,156.4l1.48-5.73L150.52,163.9l-3.705,2.058,1.89-2.066-1.915-5.345Z" transform="translate(-117.237 -96.971)" opacity="0.1"/>
        <path id="Path_1689" data-name="Path 1689" d="M169.547,94.78c1.673,1,3.772,5.236,3.563,14.119-.176,7.528-2.618,9.4-3.839,9.937s-3.588.209-5.855-.176v4.525s3.421,6.332,2.651,8.858c-1.673.284-3.772-.836-6.742-2.852a34.778,34.778,0,0,1-5.972-5.679l.05-10.4s-1.355,1.313-3.647-.694c-1.89-1.673-2.509-4.441-1.054-5.947a3.3,3.3,0,0,1,5.244,1.046,18.218,18.218,0,0,0,8.548-2.509,13.726,13.726,0,0,0,7.051-10.23Z" transform="translate(-117.418 -87.829)" fill="#b16668"/>
        <path id="Path_1690" data-name="Path 1690" d="M167.627,109.217a.954.954,0,1,1-1-.937A.97.97,0,0,1,167.627,109.217Z" transform="translate(-120.333 -90.037)" fill="#263238"/>
        <g id="Group_699" data-name="Group 699" transform="translate(47.485 25.536)" opacity="0.5" style="mix-blend-mode: multiply;isolation: isolate">
          <path id="Path_1691" data-name="Path 1691" d="M168.28,117l2.2.7a1.138,1.138,0,0,1-1.43.786A1.2,1.2,0,0,1,168.28,117Z" transform="translate(-168.229 -117)" fill="#9a4a4d"/>
        </g>
        <path id="Path_1692" data-name="Path 1692" d="M176.9,105.558l-1.9-1.322a1.112,1.112,0,0,1,1.589-.326,1.2,1.2,0,0,1,.309,1.648Z" transform="translate(-121.851 -89.289)" fill="#263238"/>
        <path id="Path_1693" data-name="Path 1693" d="M176.354,108.4a.954.954,0,0,1-.9,1.029.987.987,0,1,1,.895-1.029Z" transform="translate(-121.75 -89.902)" fill="#263238"/>
        <g id="Group_700" data-name="Group 700" transform="translate(50.138 17.958)" opacity="0.5" style="mix-blend-mode: multiply;isolation: isolate">
          <path id="Path_1694" data-name="Path 1694" d="M171.4,107.94l.151,5.7,3-.928Z" transform="translate(-171.4 -107.94)" fill="#9a4a4d"/>
        </g>
        <g id="Group_701" data-name="Group 701" transform="translate(37.775 27.109)" opacity="0.5" style="mix-blend-mode: multiply;isolation: isolate">
          <path id="Path_1695" data-name="Path 1695" d="M164.809,122.6c-2.426-.318-7.411-1.748-8.189-3.722a5.119,5.119,0,0,0,1.748,2.509c1.489,1.271,6.441,2.71,6.441,2.71Z" transform="translate(-156.62 -118.88)" fill="#9a4a4d"/>
        </g>
        <path id="Path_1696" data-name="Path 1696" d="M130.772,172.11c.059-.836,1.589-9.51,2.635-14.37l10.221,3.128-1.673,6.817-8.49,8.222A3.346,3.346,0,0,1,130.772,172.11Z" transform="translate(-114.61 -98.128)" fill="#b16668"/>
        <path id="Path_1697" data-name="Path 1697" d="M147.108,129.49c-3.923.343-9.092.928-11.551,12.095-2.309,10.464-2.877,14.119-2.877,14.119s3.02,3.822,10.832,3.4l2.869-11.9C151.608,140.322,149.927,135.4,147.108,129.49Z" transform="translate(-114.929 -93.507)" fill="#f4cb3c"/>
        <path id="Path_1698" data-name="Path 1698" d="M188.292,164.281c1.405-2.61,1.757-2.727,2.585-3.346s5.964-1.338,8.088-1.514c2.509-.209,3.388.251,2.693,2.4-1.489,4.6-6.006,14.37-7.018,15.725-.661.836-.795,1.673-3.605,1.974-2.626.259-5.922.4-6.892.46s-2.309.3-1.439-2.551a93.94,93.94,0,0,1,3.839-9.477C187.623,165.644,188.292,164.281,188.292,164.281Z" transform="translate(-123.065 -98.395)" fill="#263238"/>
        <path id="Path_1699" data-name="Path 1699" d="M142.515,168.714s22.717,2.4,25.653,1.489,6.9-3.856,9.025-5.069,3.647-1.322,3.647-.836-1.815,3.287-2.225,4.433,1.957,1.146,5.069.435,4.358-2.509,5.169-1.472-1.723,6.231-6.892,8.164-9.008.652-13.274.836-28.74,2.091-34.67.226a5.228,5.228,0,0,1,2.049-5.019A18.293,18.293,0,0,1,142.515,168.714Z" transform="translate(-115.137 -99.156)" fill="#b16668"/>
      </g>
    </g>
    <g id="freepik--Clouds--inject-1--inject-104" transform="translate(240.048 38.84)">
      <g id="freepik--clouds--inject-1--inject-104-2" data-name="freepik--clouds--inject-1--inject-104">
        <path id="Path_1700" data-name="Path 1700" d="M317.245,67.27l6.231-3.6a5.536,5.536,0,0,1-.05-.761V61.106a11.133,11.133,0,0,1,5.019-8.716,3.9,3.9,0,0,1,3-.577c.46-4.567,3.622-9.728,7.469-11.944,4.182-2.4,7.528-.46,7.528,4.349v2.693a13.014,13.014,0,0,1-.636,3.864l5.177-2.986c1.539-.887,2.785-.167,2.785,1.614a6.173,6.173,0,0,1-2.785,4.835l-33.742,19.48c-1.539.887-2.785.167-2.785-1.614a6.173,6.173,0,0,1,2.785-4.835Z" transform="translate(-285.302 -38.84)" fill="#f0f0f0"/>
        <path id="Path_1701" data-name="Path 1701" d="M281.708,118.643l4.7-2.718a4.183,4.183,0,0,1-.042-.577v-1.355a8.414,8.414,0,0,1,3.8-6.583,2.928,2.928,0,0,1,2.267-.435,12.706,12.706,0,0,1,5.638-9.017c3.137-1.815,5.688-.343,5.688,3.279v2.041a9.778,9.778,0,0,1-.485,2.911l3.906-2.25c1.163-.669,2.108-.125,2.108,1.213a4.676,4.676,0,0,1-2.108,3.655l-25.469,14.7c-1.163.678-2.108.134-2.108-1.213a4.651,4.651,0,0,1,2.108-3.647Z" transform="translate(-279.6 -48.382)" fill="#f0f0f0"/>
      </g>
    </g>
  </g>
</svg>
