<svg xmlns="http://www.w3.org/2000/svg" xmlns:xlink="http://www.w3.org/1999/xlink" width="1160.5" height="864.712" viewBox="0 0 1160.5 864.712">
  <defs>
    <linearGradient id="linear-gradient" x1="0.5" x2="0.5" y2="1" gradientUnits="objectBoundingBox">
      <stop offset="0" stop-color="#fafafa"/>
      <stop offset="1" stop-color="#7d7d7d"/>
    </linearGradient>
    <linearGradient id="linear-gradient-6" x1="0.5" x2="0.5" y2="1" gradientUnits="objectBoundingBox">
      <stop offset="0" stop-color="#f5f5f5"/>
      <stop offset="1" stop-color="#7b7b7b"/>
    </linearGradient>
    <linearGradient id="linear-gradient-7" x1="0.5" x2="1" y2="1" gradientUnits="objectBoundingBox">
      <stop offset="0" stop-color="#f4cb3c"/>
      <stop offset="1" stop-color="#e0dfda"/>
    </linearGradient>
    <linearGradient id="linear-gradient-8" x1="0.5" x2="0.5" y2="1" gradientUnits="objectBoundingBox">
      <stop offset="0" stop-color="#f4cb3c"/>
      <stop offset="1" stop-color="#fff"/>
    </linearGradient>
  </defs>
  <g id="Group_827" data-name="Group 827" transform="translate(-759.5 -167.873)">
    <g id="City_driver-rafiki_2_" data-name="City driver-rafiki (2)" transform="translate(759.5 112.873)">
      <g id="freepik--background-complete--inject-68" transform="translate(0 55)">
        <rect id="Rectangle_838" data-name="Rectangle 838" width="1160.5" height="0.58" transform="translate(0 759.895)" fill="#ebebeb"/>
        <path id="Path_2680" data-name="Path 2680" d="M499.6,711.379H51.44a13.253,13.253,0,0,1-13.23-13.253V68.137A13.253,13.253,0,0,1,51.44,55H499.6a13.253,13.253,0,0,1,13.253,13.253V698.126A13.253,13.253,0,0,1,499.6,711.379ZM51.44,55.464A12.673,12.673,0,0,0,38.79,68.137V698.126A12.673,12.673,0,0,0,51.44,710.8H499.6a12.7,12.7,0,0,0,12.673-12.673V68.137A12.7,12.7,0,0,0,499.6,55.464Z" transform="translate(50.475 -55)" fill="#ebebeb"/>
        <path id="Path_2681" data-name="Path 2681" d="M715.938,711.379H267.753A13.276,13.276,0,0,1,254.5,698.126V68.137A13.276,13.276,0,0,1,267.753,55H715.938a13.253,13.253,0,0,1,13.206,13.137V698.126A13.253,13.253,0,0,1,715.938,711.379ZM267.753,55.464A12.7,12.7,0,0,0,255.08,68.137V698.126A12.7,12.7,0,0,0,267.753,710.8H715.938a12.7,12.7,0,0,0,12.673-12.673V68.137a12.7,12.7,0,0,0-12.673-12.673Z" transform="translate(336.194 -55)" fill="#ebebeb"/>
        <rect id="Rectangle_839" data-name="Rectangle 839" width="60.346" height="0.58" transform="translate(983.872 797.24)" fill="#ebebeb"/>
        <rect id="Rectangle_840" data-name="Rectangle 840" width="104.515" height="0.58" transform="translate(721.831 803.553)" fill="#ebebeb"/>
        <rect id="Rectangle_841" data-name="Rectangle 841" width="141.094" height="0.58" transform="translate(840.457 775.701)" fill="#ebebeb"/>
        <rect id="Rectangle_842" data-name="Rectangle 842" width="44.633" height="0.58" transform="translate(121.76 779.601)" fill="#ebebeb"/>
        <rect id="Rectangle_843" data-name="Rectangle 843" width="128.328" height="0.58" transform="translate(187.073 779.601)" fill="#ebebeb"/>
        <rect id="Rectangle_844" data-name="Rectangle 844" width="172.845" height="0.58" transform="translate(393.804 789.395)" fill="#ebebeb"/>
        <rect id="Rectangle_845" data-name="Rectangle 845" width="49.205" height="170.315" transform="translate(107.323 589.58)" fill="url(#linear-gradient)"/>
        <rect id="Rectangle_846" data-name="Rectangle 846" width="49.205" height="132.947" transform="translate(150.401 626.949)" fill="url(#linear-gradient)"/>
        <rect id="Rectangle_847" data-name="Rectangle 847" width="49.205" height="242.498" transform="translate(181.874 517.397)" fill="url(#linear-gradient)"/>
        <rect id="Rectangle_848" data-name="Rectangle 848" width="49.205" height="439.133" transform="translate(214.576 320.762)" fill="url(#linear-gradient)"/>
        <rect id="Rectangle_849" data-name="Rectangle 849" width="132.042" height="404.945" transform="translate(253.453 354.951)" fill="url(#linear-gradient)"/>
        <rect id="Rectangle_850" data-name="Rectangle 850" width="56.215" height="116.561" transform="translate(955.092 759.895) rotate(180)" fill="#fafafa"/>
        <rect id="Rectangle_851" data-name="Rectangle 851" width="56.215" height="90.983" transform="translate(905.84 759.895) rotate(180)" fill="#fafafa"/>
        <rect id="Rectangle_852" data-name="Rectangle 852" width="56.215" height="165.975" transform="translate(869.911 759.895) rotate(180)" fill="#fafafa"/>
        <rect id="Rectangle_853" data-name="Rectangle 853" width="56.215" height="300.546" transform="translate(832.543 759.895) rotate(180)" fill="#fafafa"/>
        <rect id="Rectangle_854" data-name="Rectangle 854" width="172.52" height="367.159" transform="translate(634.028 392.736)" fill="#f0f0f0"/>
        <rect id="Rectangle_855" data-name="Rectangle 855" width="8.216" height="44.679" transform="translate(781.898 408.125)" fill="#f5f5f5"/>
        <rect id="Rectangle_856" data-name="Rectangle 856" width="8.216" height="44.679" transform="translate(781.898 478.01)" fill="#f5f5f5"/>
        <rect id="Rectangle_857" data-name="Rectangle 857" width="8.216" height="44.679" transform="translate(781.898 547.872)" fill="#f5f5f5"/>
        <rect id="Rectangle_858" data-name="Rectangle 858" width="8.216" height="44.679" transform="translate(781.898 617.734)" fill="#f5f5f5"/>
        <rect id="Rectangle_859" data-name="Rectangle 859" width="8.216" height="44.679" transform="translate(781.898 687.619)" fill="#f5f5f5"/>
        <rect id="Rectangle_860" data-name="Rectangle 860" width="8.216" height="44.679" transform="translate(752.793 408.125)" fill="#f5f5f5"/>
        <rect id="Rectangle_861" data-name="Rectangle 861" width="8.216" height="44.679" transform="translate(752.793 478.01)" fill="#f5f5f5"/>
        <rect id="Rectangle_862" data-name="Rectangle 862" width="8.216" height="44.679" transform="translate(752.793 547.872)" fill="#f5f5f5"/>
        <rect id="Rectangle_863" data-name="Rectangle 863" width="8.216" height="44.679" transform="translate(752.793 617.734)" fill="#f5f5f5"/>
        <rect id="Rectangle_864" data-name="Rectangle 864" width="8.216" height="44.679" transform="translate(752.793 687.619)" fill="#f5f5f5"/>
        <rect id="Rectangle_865" data-name="Rectangle 865" width="8.216" height="44.679" transform="translate(723.688 408.125)" fill="#f5f5f5"/>
        <rect id="Rectangle_866" data-name="Rectangle 866" width="8.216" height="44.679" transform="translate(723.688 478.01)" fill="#f5f5f5"/>
        <rect id="Rectangle_867" data-name="Rectangle 867" width="8.216" height="44.679" transform="translate(723.688 547.872)" fill="#f5f5f5"/>
        <rect id="Rectangle_868" data-name="Rectangle 868" width="8.216" height="44.679" transform="translate(723.688 617.734)" fill="#f5f5f5"/>
        <rect id="Rectangle_869" data-name="Rectangle 869" width="8.216" height="44.679" transform="translate(723.688 687.619)" fill="#f5f5f5"/>
        <rect id="Rectangle_870" data-name="Rectangle 870" width="8.216" height="44.679" transform="translate(694.582 408.125)" fill="#f5f5f5"/>
        <rect id="Rectangle_871" data-name="Rectangle 871" width="8.216" height="44.679" transform="translate(694.582 478.01)" fill="#f5f5f5"/>
        <rect id="Rectangle_872" data-name="Rectangle 872" width="8.216" height="44.679" transform="translate(694.582 547.872)" fill="#f5f5f5"/>
        <rect id="Rectangle_873" data-name="Rectangle 873" width="8.216" height="44.679" transform="translate(694.582 617.734)" fill="#f5f5f5"/>
        <rect id="Rectangle_874" data-name="Rectangle 874" width="8.216" height="44.679" transform="translate(694.582 687.619)" fill="#f5f5f5"/>
        <rect id="Rectangle_875" data-name="Rectangle 875" width="8.216" height="44.679" transform="translate(665.454 408.125)" fill="#f5f5f5"/>
        <rect id="Rectangle_876" data-name="Rectangle 876" width="8.216" height="44.679" transform="translate(665.454 478.01)" fill="#f5f5f5"/>
        <rect id="Rectangle_877" data-name="Rectangle 877" width="8.216" height="44.679" transform="translate(665.454 547.872)" fill="#f5f5f5"/>
        <rect id="Rectangle_878" data-name="Rectangle 878" width="8.216" height="44.679" transform="translate(665.454 617.734)" fill="#f5f5f5"/>
        <rect id="Rectangle_879" data-name="Rectangle 879" width="8.216" height="44.679" transform="translate(665.454 687.619)" fill="#f5f5f5"/>
        <path id="Path_2682" data-name="Path 2682" d="M273.17,224.21H308.7l15.458,367.159H273.17Z" transform="translate(360.858 168.526)" fill="#e0e0e0" opacity="0.5"/>
        <path id="Path_2683" data-name="Path 2683" d="M236.63,163.09l102.31,19.357V672.109H236.63Z" transform="translate(312.588 87.787)" fill="#f0f0f0"/>
        <rect id="Rectangle_880" data-name="Rectangle 880" width="81.862" height="509.018" transform="translate(467.357 250.877)" fill="#518fa4"/>
        <rect id="Rectangle_881" data-name="Rectangle 881" width="184.171" height="2.6" transform="translate(651.528 295.672) rotate(180)" fill="#e0e0e0"/>
        <rect id="Rectangle_882" data-name="Rectangle 882" width="184.171" height="2.6" transform="translate(651.528 323.385) rotate(180)" fill="#e0e0e0"/>
        <rect id="Rectangle_883" data-name="Rectangle 883" width="184.171" height="2.6" transform="translate(651.528 351.098) rotate(180)" fill="#e0e0e0"/>
        <rect id="Rectangle_884" data-name="Rectangle 884" width="184.171" height="2.6" transform="translate(651.528 378.787) rotate(180)" fill="#e0e0e0"/>
        <rect id="Rectangle_885" data-name="Rectangle 885" width="184.171" height="2.6" transform="translate(651.528 406.523) rotate(180)" fill="#e0e0e0"/>
        <rect id="Rectangle_886" data-name="Rectangle 886" width="184.171" height="2.6" transform="translate(651.528 434.236) rotate(180)" fill="#e0e0e0"/>
        <rect id="Rectangle_887" data-name="Rectangle 887" width="184.171" height="2.6" transform="translate(651.528 461.949) rotate(180)" fill="#e0e0e0"/>
        <rect id="Rectangle_888" data-name="Rectangle 888" width="184.171" height="2.6" transform="translate(651.528 489.661) rotate(180)" fill="#e0e0e0"/>
        <rect id="Rectangle_889" data-name="Rectangle 889" width="184.171" height="2.6" transform="translate(651.528 517.397) rotate(180)" fill="#e0e0e0"/>
        <rect id="Rectangle_890" data-name="Rectangle 890" width="184.171" height="2.6" transform="translate(651.528 545.11) rotate(180)" fill="#e0e0e0"/>
        <rect id="Rectangle_891" data-name="Rectangle 891" width="184.171" height="2.6" transform="translate(651.528 572.823) rotate(180)" fill="#e0e0e0"/>
        <rect id="Rectangle_892" data-name="Rectangle 892" width="184.171" height="2.6" transform="translate(651.528 600.512) rotate(180)" fill="#e0e0e0"/>
        <rect id="Rectangle_893" data-name="Rectangle 893" width="184.171" height="2.6" transform="translate(651.528 628.248) rotate(180)" fill="#e0e0e0"/>
        <rect id="Rectangle_894" data-name="Rectangle 894" width="184.171" height="2.6" transform="translate(651.528 655.961) rotate(180)" fill="#e0e0e0"/>
        <rect id="Rectangle_895" data-name="Rectangle 895" width="184.171" height="2.6" transform="translate(651.528 683.674) rotate(180)" fill="#e0e0e0"/>
        <rect id="Rectangle_896" data-name="Rectangle 896" width="184.171" height="2.6" transform="translate(651.528 711.386) rotate(180)" fill="#e0e0e0"/>
        <rect id="Rectangle_897" data-name="Rectangle 897" width="184.171" height="2.6" transform="translate(651.528 739.122) rotate(180)" fill="#e0e0e0"/>
        <rect id="Rectangle_898" data-name="Rectangle 898" width="85.575" height="617.2" transform="translate(337.009 142.695)" fill="#406482"/>
        <path id="Path_2684" data-name="Path 2684" d="M230.775,147.5H145.2L176.7,93H299.245Z" transform="translate(191.809 -4.802)" fill="#fafafa"/>
        <path id="Path_2685" data-name="Path 2685" d="M182.07,147.5,250.539,93V764.7H182.07Z" transform="translate(240.514 -4.802)" fill="#ebebeb"/>
        <rect id="Rectangle_899" data-name="Rectangle 899" width="154.045" height="3.296" transform="translate(337.009 171.452)" fill="#e0e0e0"/>
        <rect id="Rectangle_900" data-name="Rectangle 900" width="154.045" height="3.296" transform="translate(337.009 206.383)" fill="#e0e0e0"/>
        <rect id="Rectangle_901" data-name="Rectangle 901" width="154.045" height="3.296" transform="translate(337.009 241.314)" fill="#e0e0e0"/>
        <rect id="Rectangle_902" data-name="Rectangle 902" width="154.045" height="3.296" transform="translate(337.009 276.269)" fill="#e0e0e0"/>
        <rect id="Rectangle_903" data-name="Rectangle 903" width="154.045" height="3.296" transform="translate(337.009 311.2)" fill="#e0e0e0"/>
        <rect id="Rectangle_904" data-name="Rectangle 904" width="154.045" height="3.296" transform="translate(337.009 346.131)" fill="#e0e0e0"/>
        <rect id="Rectangle_905" data-name="Rectangle 905" width="154.045" height="3.296" transform="translate(337.009 381.062)" fill="#e0e0e0"/>
        <rect id="Rectangle_906" data-name="Rectangle 906" width="154.045" height="3.296" transform="translate(337.009 415.993)" fill="#e0e0e0"/>
        <rect id="Rectangle_907" data-name="Rectangle 907" width="154.045" height="3.296" transform="translate(337.009 450.924)" fill="#e0e0e0"/>
        <rect id="Rectangle_908" data-name="Rectangle 908" width="154.045" height="3.296" transform="translate(337.009 485.878)" fill="#e0e0e0"/>
        <rect id="Rectangle_909" data-name="Rectangle 909" width="154.045" height="3.296" transform="translate(337.009 520.809)" fill="#e0e0e0"/>
        <rect id="Rectangle_910" data-name="Rectangle 910" width="154.045" height="3.296" transform="translate(337.009 555.74)" fill="#e0e0e0"/>
        <rect id="Rectangle_911" data-name="Rectangle 911" width="154.045" height="3.296" transform="translate(337.009 590.671)" fill="#e0e0e0"/>
        <rect id="Rectangle_912" data-name="Rectangle 912" width="154.045" height="3.296" transform="translate(337.009 625.602)" fill="#e0e0e0"/>
        <rect id="Rectangle_913" data-name="Rectangle 913" width="154.045" height="3.296" transform="translate(337.009 660.533)" fill="#e0e0e0"/>
        <rect id="Rectangle_914" data-name="Rectangle 914" width="154.045" height="3.296" transform="translate(337.009 695.488)" fill="#e0e0e0"/>
        <rect id="Rectangle_915" data-name="Rectangle 915" width="154.045" height="3.296" transform="translate(337.009 730.419)" fill="#e0e0e0"/>
        <rect id="Rectangle_916" data-name="Rectangle 916" width="93.42" height="318.534" transform="translate(228.735 441.361)" fill="#518fa4"/>
        <rect id="Rectangle_917" data-name="Rectangle 917" width="14.994" height="51.132" transform="translate(247.117 457.817)" fill="#e6e6e6"/>
        <rect id="Rectangle_918" data-name="Rectangle 918" width="14.994" height="51.132" transform="translate(283.905 457.817)" fill="#e6e6e6"/>
        <rect id="Rectangle_919" data-name="Rectangle 919" width="14.994" height="51.132" transform="translate(247.117 524.035)" fill="#e6e6e6"/>
        <rect id="Rectangle_920" data-name="Rectangle 920" width="14.994" height="51.132" transform="translate(283.905 524.035)" fill="#e6e6e6"/>
        <rect id="Rectangle_921" data-name="Rectangle 921" width="14.994" height="51.132" transform="translate(247.117 590.23)" fill="#e6e6e6"/>
        <rect id="Rectangle_922" data-name="Rectangle 922" width="14.994" height="51.132" transform="translate(283.905 590.23)" fill="#e6e6e6"/>
        <rect id="Rectangle_923" data-name="Rectangle 923" width="14.994" height="51.132" transform="translate(247.117 656.448)" fill="#e6e6e6"/>
        <rect id="Rectangle_924" data-name="Rectangle 924" width="14.994" height="51.132" transform="translate(283.905 656.448)" fill="#e6e6e6"/>
        <path id="Path_2686" data-name="Path 2686" d="M191.947,257.723H98.55l21.91-22.073h93.42Z" transform="translate(130.185 183.639)" fill="#fff"/>
        <path id="Path_2687" data-name="Path 2687" d="M138.79,257.723l21.934-22.073,21.91,22.073V576.257H138.79Z" transform="translate(183.342 183.639)" fill="#e6e6e6"/>
      </g>
      <g id="freepik--Shadow--inject-68" transform="translate(130.231 867.164)">
        <ellipse id="freepik--path--inject-68" cx="450.019" cy="26.274" rx="450.019" ry="26.274" fill="url(#linear-gradient-6)"/>
      </g>
      <g id="freepik--Smartphone--inject-68" transform="translate(636.766 193.285)">
        <path id="Path_2763" data-name="Path 2763" d="M11.494,0H327.628a11.494,11.494,0,0,1,11.494,11.494V688.636a11.494,11.494,0,0,1-11.494,11.494H11.494A11.494,11.494,0,0,1,0,688.636V11.494A11.494,11.494,0,0,1,11.494,0Z" transform="translate(13.415)" fill="#344e64"/>
        <path id="Path_2765" data-name="Path 2765" d="M11.494,0H327.628a11.494,11.494,0,0,1,11.494,11.494V688.636a11.494,11.494,0,0,1-11.494,11.494H11.494A11.494,11.494,0,0,1,0,688.636V11.494A11.494,11.494,0,0,1,11.494,0Z" fill="#39688a"/>
        <path id="Path_2764" data-name="Path 2764" d="M11.494,0H327.628a11.494,11.494,0,0,1,11.494,11.494V688.636a11.494,11.494,0,0,1-11.494,11.494H11.494A11.494,11.494,0,0,1,0,688.636V11.494A11.494,11.494,0,0,1,11.494,0Z" fill="#fff" opacity="0.7"/>
        <g id="Group_737" data-name="Group 737" opacity="0.9">
          <rect id="Rectangle_928" data-name="Rectangle 928" width="18.359" height="700.13" transform="translate(49.716)" fill="#fff"/>
          <rect id="Rectangle_929" data-name="Rectangle 929" width="11.257" height="700.13" transform="translate(251.063)" fill="#fff"/>
          <path id="Path_2688" data-name="Path 2688" d="M274.35,192.055v18.359l339.121-21.005V171.05Z" transform="translate(-274.35 -39.983)" fill="#fff"/>
          <rect id="Rectangle_930" data-name="Rectangle 930" width="18.359" height="339.121" transform="translate(0.023 604.156) rotate(-90)" fill="#fff"/>
          <rect id="Rectangle_931" data-name="Rectangle 931" width="10.004" height="339.121" transform="translate(0 253.732) rotate(-90)" fill="#fff"/>
          <path id="Path_2689" data-name="Path 2689" d="M274.35,386.87V407.9l339.121-114.75V272.12Z" transform="translate(-274.35 93.53)" fill="#fff"/>
          <path id="Path_2690" data-name="Path 2690" d="M336.009,114.58H317.65l49.344,700.153h18.359Z" transform="translate(-217.151 -114.58)" fill="#fff"/>
        </g>
      </g>
      <g id="freepik--Car--inject-68" transform="translate(178.206 511.392)">
        <path id="Path_2691" data-name="Path 2691" d="M624.788,456.915H221.05V331.07H576.929l33.214,26.993a39.6,39.6,0,0,1,14.646,30.869Z" transform="translate(113.801 -146.703)" fill="#f4cb3c"/>
        <path id="Path_2692" data-name="Path 2692" d="M624.788,456.915H221.05V331.07H576.929l33.214,26.993a39.6,39.6,0,0,1,14.646,30.869Z" transform="translate(113.801 -146.703)" opacity="0.5"/>
        <path id="Path_2693" data-name="Path 2693" d="M248.082,427.731c0-45.933,20.889-83.161,46.42-83.161H245.25c-25.693,0-46.42,37.136-46.42,83.161s20.889,83.185,46.42,83.185h49.344C268.855,510.916,248.082,473.664,248.082,427.731Z" transform="translate(84.448 -128.87)" fill="#263238"/>
        <ellipse id="Ellipse_619" data-name="Ellipse 619" cx="46.513" cy="83.161" rx="46.513" ry="83.161" transform="translate(332.53 215.7)" fill="#263238"/>
        <path id="Path_2767" data-name="Path 2767" d="M32.981,0C51.2,0,65.963,29.034,65.963,64.849S51.2,129.7,32.981,129.7,0,100.664,0,64.849,14.766,0,32.981,0Z" transform="translate(349.798 234.013)" fill="#b7b7b7"/>
        <path id="Path_2694" data-name="Path 2694" d="M132.572,427.731c0-45.933,20.889-83.161,46.42-83.161H129.74c-25.693,0-46.42,37.136-46.42,83.161s20.889,83.185,46.42,83.185h49.344C153.391,510.916,132.572,473.664,132.572,427.731Z" transform="translate(-68.14 -128.87)" fill="#263238"/>
        <ellipse id="Ellipse_621" data-name="Ellipse 621" cx="46.513" cy="83.161" rx="46.513" ry="83.161" transform="translate(64.431 215.7)" fill="#263238"/>
        <path id="Path_2695" data-name="Path 2695" d="M385.412,427.731c0-45.933,20.889-83.161,46.42-83.161H382.58c-25.67,0-46.42,37.136-46.42,83.161s20.889,83.185,46.42,83.185h49.344C406.254,510.916,385.412,473.664,385.412,427.731Z" transform="translate(265.861 -128.87)" fill="#263238"/>
        <ellipse id="Ellipse_622" data-name="Ellipse 622" cx="46.513" cy="83.161" rx="46.513" ry="83.161" transform="translate(651.273 215.7)" fill="#263238"/>
        <path id="Path_2766" data-name="Path 2766" d="M32.981,0C51.2,0,65.963,29.034,65.963,64.849S51.2,129.7,32.981,129.7,0,100.664,0,64.849,14.766,0,32.981,0Z" transform="translate(668.564 234.013)" fill="#d9d9d9"/>
        <path id="Path_2696" data-name="Path 2696" d="M354.349,437.361H294.676l-3.342-3.249a18.336,18.336,0,0,0-12.951-5.385H129.235a18.336,18.336,0,0,0-12.951,5.385l-2.043,2.019H108.81a32.03,32.03,0,0,1-32.03-32.192V354.85H415.228L388.3,413.386a35.976,35.976,0,0,1-33.956,23.976Z" transform="translate(-76.78 -115.29)" fill="#f4cb3c"/>
        <path id="Path_2697" data-name="Path 2697" d="M354.349,437.361H294.676l-3.342-3.249a18.336,18.336,0,0,0-12.951-5.385H129.235a18.336,18.336,0,0,0-12.951,5.385l-2.043,2.019H108.81a32.03,32.03,0,0,1-32.03-32.192V354.85H415.228L388.3,413.386a35.976,35.976,0,0,1-33.956,23.976Z" transform="translate(-76.78 -115.29)" opacity="0.2"/>
        <path id="Path_2698" data-name="Path 2698" d="M348.821,281.911a1.045,1.045,0,0,1-.58-.163,1.137,1.137,0,0,1-.418-1.578l16.247-27.852a1.161,1.161,0,1,1,2,1.161l-16.247,27.852A1.16,1.16,0,0,1,348.821,281.911Z" transform="translate(281.053 -251.636)" fill="#263238"/>
        <path id="Path_2699" data-name="Path 2699" d="M578.725,415.84V384.181c0-16.642-24.185-95.161-57.445-109.876s-113.729-21.26-164.42-18.568S238.49,364.453,238.49,364.453l7.358,91.169c10.305,0,43.124-3.11,47.929,87.084a24.788,24.788,0,0,0,24.812,23.535H496.051a24.718,24.718,0,0,0,24.463-21.307c4.642-32.146,16.758-89.382,45.979-89.382,20.495,0,35.187,17.547,35.187,37.67h0a136.385,136.385,0,0,0-15.644-63.456Z" transform="translate(136.839 -247)" fill="#f4cb3c"/>
        <path id="Path_2700" data-name="Path 2700" d="M321.55,255.4c-92.306,0-196.89,108.716-196.89,108.716H388.952s67.611-106,118.371-108.716Z" transform="translate(-13.53 -246.663)" fill="#f4cb3c"/>
        <path id="Path_2701" data-name="Path 2701" d="M316.841,255.4c-77.753,0-159.313,77.15-183.1,101.451a4.271,4.271,0,0,0,3.064,7.265H350.008a54.543,54.543,0,0,0,44.1-22.235c22.932-31.241,67.1-84.554,102.844-86.481Z" transform="translate(-3.158 -246.663)" fill="#fff" opacity="0.4"/>
        <path id="Path_2702" data-name="Path 2702" d="M452.2,302.24,354.58,379.274l-262.714-.836S76.78,400.372,76.78,424.348H415.228c5.547-14.692,25-30.939,44.331-30.939C459.559,366.067,452.2,302.24,452.2,302.24Z" transform="translate(-76.78 -184.788)" fill="#f4cb3c"/>
        <path id="Path_2703" data-name="Path 2703" d="M211.653,358.987a1.155,1.155,0,0,1-.162-2.3,128.817,128.817,0,0,0,63.363-29.477,18.707,18.707,0,0,0,3.365-24.928,1.16,1.16,0,1,1,1.9-1.323,21.052,21.052,0,0,1-3.783,28.015,130.764,130.764,0,0,1-64.5,29.987Z" transform="translate(99.872 -187.2)" opacity="0.2"/>
        <path id="Path_2704" data-name="Path 2704" d="M83.28,378.438s46.141-53.778,96.043-76.2H443.615l-97.621,77.034Z" transform="translate(-68.193 -184.788)" fill="#f4cb3c"/>
        <rect id="Rectangle_932" data-name="Rectangle 932" width="173.309" height="5.037" transform="translate(46.142 193.651)" fill="#263238"/>
        <path id="Path_2705" data-name="Path 2705" d="M172.329,347.272l9.284-9.284a15.412,15.412,0,0,1,7.613-4.155l70.117-15.272a15.272,15.272,0,0,1,7.45.232l3.76,1.044a15.411,15.411,0,0,1,7.427,24.974l-15.087,17.245a15.457,15.457,0,0,1-10.166,5.2l-68.075,6.174a15.365,15.365,0,0,1-12.3-4.41h0A15.411,15.411,0,0,1,172.329,347.272Z" transform="translate(43.524 -163.694)" fill="#fff"/>
        <path id="Path_2706" data-name="Path 2706" d="M122.009,344.825l-7.682-14.367a12.719,12.719,0,0,0-4.642-4.874h0a12.626,12.626,0,0,0-12.371-.348L91.488,328.3a12.7,12.7,0,0,0-6.081,7.125l-3.551,10.514a12.65,12.65,0,0,0,9.818,16.549l16.038,2.762a12.649,12.649,0,0,0,13.3-6.476l1.068-1.973A12.6,12.6,0,0,0,122.009,344.825Z" transform="translate(-70.97 -156.327)" fill="#fff"/>
        <path id="Path_2707" data-name="Path 2707" d="M269.159,357.954H513.514a13.276,13.276,0,0,0,12.719-17.106c-5.57-18.568-16.247-47.6-32.285-62.412a13.485,13.485,0,0,0-6.336-3.249c-28.8-6.1-75.108-10.166-109.458-12.533a108.066,108.066,0,0,0-84.508,32.123,297.3,297.3,0,0,0-35.256,43.008,12.974,12.974,0,0,0,10.769,20.169Z" transform="translate(160.25 -237.415)" fill="#fff" opacity="0.4"/>
        <path id="Path_2708" data-name="Path 2708" d="M213.535,374.417c0,7.613-7.8,13.81-17.408,13.81s-17.408-6.2-17.408-13.81,7.775-13.787,17.408-13.787S213.535,366.8,213.535,374.417Z" transform="translate(57.883 -107.655)" fill="#263238"/>
        <path id="Path_2709" data-name="Path 2709" d="M141.973,330.53c5.71,0,8.495,5.849,6.22,13.044s-8.727,13.067-14.46,13.067-8.495-5.849-6.22-13.067S136.263,330.53,141.973,330.53Z" transform="translate(-10.813 -147.417)" fill="#263238"/>
        <path id="Path_2710" data-name="Path 2710" d="M88.418,374.417c0,7.613-2.321,13.81-4.9,13.81s-4.921-6.2-4.921-13.81,2.321-13.787,4.921-13.787S88.418,366.8,88.418,374.417Z" transform="translate(-74.375 -107.655)" fill="#263238"/>
        <path id="Path_2711" data-name="Path 2711" d="M258.55,315.668v-7.822a15.087,15.087,0,0,1,18.173-14.785l29.755,6.2A15.11,15.11,0,0,1,318.5,314.044v1.625a15.11,15.11,0,0,1-15.087,15.11H273.66A15.11,15.11,0,0,1,258.55,315.668Z" transform="translate(163.339 -197.334)" fill="#263238"/>
        <path id="Path_2712" data-name="Path 2712" d="M332.2,264.478s-3.969-.395-10.885-1C351.9,326.147,344.1,356.529,344.1,356.529h23.349C367.684,318.372,332.2,264.478,332.2,264.478Z" transform="translate(246.244 -235.99)" fill="#263238"/>
        <path id="Path_2713" data-name="Path 2713" d="M299.662,327.243a19.914,19.914,0,0,1-19.8,18.011h-120.3c-8.773,0-11.953-9.795-5.594-17.082a339.72,339.72,0,0,1,37.275-36.393c22.653-19.079,50.783-28.989,77.08-27.156l9.934.72a19.961,19.961,0,0,1,17.965,15.713,151.189,151.189,0,0,1,3.435,46.188Z" transform="translate(20.776 -234.765)" fill="#f4cb3c" opacity="0.2"/>
        <path id="Path_2714" data-name="Path 2714" d="M332.99,483.124a1.16,1.16,0,0,1-1.16-1.161c0-23.489,11.976-120.344,15.11-134.85,3.04-14.088,3.04-29.825,0-40.06a1.161,1.161,0,0,1,.789-1.439,1.184,1.184,0,0,1,1.439.789c3.133,10.584,3.133,26.761,0,41.2S334.1,458.567,334.1,481.963A1.16,1.16,0,0,1,332.99,483.124Z" transform="translate(260.141 -180.386)" opacity="0.2"/>
        <path id="Path_2715" data-name="Path 2715" d="M349.162,330.751H320.869a3.5,3.5,0,0,1-3.528-4.294l.58-3.273a5.339,5.339,0,0,1,5.037-4.294h28.293a3.5,3.5,0,0,1,3.528,4.294l-.58,3.273a5.338,5.338,0,0,1-5.036,4.294Z" transform="translate(240.883 -162.794)" opacity="0.2"/>
      </g>
      <g id="freepik--Character--inject-68" transform="translate(620.497 374.548)">
        <path id="Path_2718" data-name="Path 2718" d="M297.97,433.346l14.019-.232,4.039-32.494-14,.232Z" transform="translate(-226.879 82.016)" fill="#d18179"/>
        <path id="Path_2719" data-name="Path 2719" d="M331.608,434.164l13.6-4.155-8.449-30.8-13.6,4.178Z" transform="translate(-193.603 80.153)" fill="#d18179"/>
        <path id="Path_2720" data-name="Path 2720" d="M341.489,412.335l-15.179,7.822a1.23,1.23,0,0,0-.6,1.416l3.249,12.325a2.043,2.043,0,0,0,2.948,1.277c4.851-2.6,8.263-4.642,14.413-7.915,3.783-1.95,15.388-7.427,20.611-10.143s3.249-8.216.882-7.566c-10.677,2.855-19.4,3.69-23.906,2.507A3.342,3.342,0,0,0,341.489,412.335Z" transform="translate(-190.3 93.742)" fill="#263238"/>
        <path id="Path_2721" data-name="Path 2721" d="M314.99,413.92l-15.3.255a1.207,1.207,0,0,0-1.16.975l-2.576,12.487A2.019,2.019,0,0,0,298,430.1c5.524-.186,13.485-.627,20.425-.743,8.1-.116,10.468.209,19.984,0,5.733,0,7.241-5.942,4.828-6.429-11-2.321-15.3-2.321-24.835-8.031A6.961,6.961,0,0,0,314.99,413.92Z" transform="translate(-229.601 99.585)" fill="#263238"/>
        <path id="Path_2722" data-name="Path 2722" d="M324.2,231.05c3.18,6.383,6.777,13.137,10.375,19.566s7.4,12.835,11.466,18.846c1.044,1.485,2.019,3.041,3.087,4.456l2.623,3.574c.534.7.836,1.021.928,1.184s.139.395.812.441a13.44,13.44,0,0,0,6.615-3.249c1.277-.975,2.576-2.089,3.853-3.273s2.553-2.553,3.667-3.644l9.261,5.153a46.937,46.937,0,0,1-2.739,5.965,40.76,40.76,0,0,1-3.574,5.617,33.172,33.172,0,0,1-4.874,5.292,22.744,22.744,0,0,1-7.358,4.387,18.221,18.221,0,0,1-10.584.58,20.888,20.888,0,0,1-8.866-4.642,20.039,20.039,0,0,1-1.6-1.509l-.743-.766-.534-.6L333.97,286.1c-1.369-1.555-2.623-3.156-3.922-4.642A202.854,202.854,0,0,1,316.353,261.5c-2.042-3.435-4.062-6.963-5.918-10.421s-3.667-6.963-5.385-10.886Z" transform="translate(-217.526 -141.986)" fill="#d18179"/>
        <path id="Path_2723" data-name="Path 2723" d="M302.69,237.35c-3.783,12.858,22.792,47.882,22.792,47.882l26.808-17.245a171.006,171.006,0,0,0-18.568-31.519C322.743,222.472,306.821,223.215,302.69,237.35Z" transform="translate(-221.131 -148.193)" fill="#518fa4"/>
        <g id="Group_738" data-name="Group 738" transform="translate(81.19 78.158)" opacity="0.2">
          <path id="Path_2724" data-name="Path 2724" d="M302.69,237.35c-3.783,12.858,22.792,47.882,22.792,47.882l26.808-17.245a171.006,171.006,0,0,0-18.568-31.519C322.743,222.472,306.821,223.215,302.69,237.35Z" transform="translate(-302.321 -226.351)"/>
        </g>
        <path id="Path_2725" data-name="Path 2725" d="M315.57,237.739c5.5,2.321,13.624,15.644,17.849,25.531l-11.373,7.311a212.172,212.172,0,0,1-17.106-26.808C308.538,239.782,312.646,236.509,315.57,237.739Z" transform="translate(-217.671 -133.497)" opacity="0.2"/>
        <path id="Path_2726" data-name="Path 2726" d="M331.32,257.39l9.7-15.69,8.472,13.531a16.688,16.688,0,0,1-9.284,7.636Z" transform="translate(-182.823 -127.918)" fill="#b55b52"/>
        <path id="Path_2727" data-name="Path 2727" d="M349,243.788v4.851a6.546,6.546,0,0,1-1.485,4.155l-3.528,4.363-8.472-13.531,8.75-3.18A3.551,3.551,0,0,1,349,243.788Z" transform="translate(-177.275 -129.843)" fill="#d18179"/>
        <path id="Path_2728" data-name="Path 2728" d="M345.942,268.547l-15.272-.232,8.448-31.635,15.272.232Z" transform="translate(-183.682 -134.549)" fill="#f4cb3c"/>
        <path id="Path_2729" data-name="Path 2729" d="M346.612,268.547l-15.272-.232,8.448-31.635,15.272.232Z" transform="translate(-182.797 -134.549)" fill="#263238"/>
        <path id="Path_2730" data-name="Path 2730" d="M314.918,400.63l-2.089,16.734-14.019.232,2.089-16.758Z" transform="translate(-225.769 82.029)" opacity="0.2"/>
        <path id="Path_2731" data-name="Path 2731" d="M323.16,403.388l13.624-4.178,4.34,15.876L327.5,419.263Z" transform="translate(-193.603 80.153)" opacity="0.2"/>
        <path id="Path_2732" data-name="Path 2732" d="M277.2,245.308c11.443,49.252,8.959,98.109,10.212,108.646l74.713-5.57c7.172-80.051-9.818-120.692-9.818-120.692s-4.8-.928-11.327-1.6c-2.043-.209-4.271-.395-6.568-.511-1.277,0-2.553-.116-3.876-.139a277.352,277.352,0,0,0-31.751,2.321c-2,.255-4.015.534-5.988.859l-5.292.975h-.209a12.974,12.974,0,0,0-10.1,15.713Z" transform="translate(-254.778 -149.397)" fill="#518fa4"/>
        <g id="Group_739" data-name="Group 739" transform="translate(22.071 76.043)" opacity="0.2">
          <path id="Path_2733" data-name="Path 2733" d="M277.2,245.308c11.443,49.252,8.959,98.109,10.212,108.646l74.713-5.57c7.172-80.051-9.818-120.692-9.818-120.692s-4.8-.928-11.327-1.6c-2.043-.209-4.271-.395-6.568-.511-1.277,0-2.553-.116-3.876-.139a277.352,277.352,0,0,0-31.751,2.321c-2,.255-4.015.534-5.988.859l-5.292.975h-.209a12.974,12.974,0,0,0-10.1,15.713Z" transform="translate(-276.85 -225.44)"/>
        </g>
        <path id="Path_2734" data-name="Path 2734" d="M287.338,238.48,278.75,249.5a2.553,2.553,0,0,1,0,.418c1.207,7.474,2.135,14.785,2.832,21.841C289.821,261.62,288.614,243.308,287.338,238.48Z" transform="translate(-252.268 -132.171)" opacity="0.2"/>
        <path id="Path_2735" data-name="Path 2735" d="M289.964,219.066c1.787,7.52,1.671,15.876-3.714,21.864,5.965,5.106,13.694,10.932,25.856,10.468s9.447-8.681,5.9-12.835c-10.375-1.671-10.4-8.425-10.491-15.852a3.551,3.551,0,0,0-2.484-3.365l-11.419-3.667a2.855,2.855,0,0,0-3.644,3.389Z" transform="translate(-242.361 -162.473)" fill="#d18179"/>
        <path id="Path_2736" data-name="Path 2736" d="M309.665,271.353c-6.267,0-12.046-7.52-13.183-17.129A19.056,19.056,0,0,1,299.94,239.6a7.822,7.822,0,0,1,5.942-2.832h0c6.243,0,12.046,7.52,13.16,17.129a19.078,19.078,0,0,1-3.435,14.622,7.938,7.938,0,0,1-5.942,2.832Zm-3.76-32.262h0a5.5,5.5,0,0,0-4.2,2.066,16.9,16.9,0,0,0-2.878,12.789c.952,8.193,5.919,15.086,10.862,15.086h0a5.5,5.5,0,0,0,4.224-2.066,16.99,16.99,0,0,0,2.878-12.789h0c-.905-8.193-5.872-15.086-10.793-15.086Z" transform="translate(-229.22 -134.43)" fill="#518fa4"/>
        <path id="Path_2737" data-name="Path 2737" d="M301.959,218.81,290.47,220.3c.255.511.58,1,.882,1.485,2.182,3.481,6.963,5.779,11.93,6.615a24.438,24.438,0,0,1-1.323-9.586Z" transform="translate(-236.786 -158.155)" opacity="0.2"/>
        <path id="Path_2738" data-name="Path 2738" d="M301.84,215.009c6.383,1.068,18.313-6.174,15.528-15.829-3.574,4.479-15.528,2.971-15.528,2.971Z" transform="translate(-221.766 -184.087)" fill="#263238"/>
        <path id="Path_2739" data-name="Path 2739" d="M300.624,210.836c.7,6.452-7.265,17.941-16.734,14.576,4.642-3.3,3.9-15.342,3.9-15.342Z" transform="translate(-245.478 -169.701)" fill="#263238"/>
        <path id="Path_2740" data-name="Path 2740" d="M288.018,214.532c-1.717,13.787-3.435,21.794,2.159,30.173,8.379,12.464,26.39,9.284,32.192-3.644,5.222-11.6,7.149-32.285-5.2-40.223a18.962,18.962,0,0,0-29.152,13.694Z" transform="translate(-242.225 -185.93)" fill="#d18179"/>
        <path id="Path_2741" data-name="Path 2741" d="M293.7,235.2c3.365,3.551,12.626-10.955,10.932-16.247,3.482,1.532,10.166-1.393,9.748-7.149,10.421,5.57,25.531,9.98,25.763,0s-9.284-17.524-18.568-18.313c1.114,2.994-1.834,4.271-7.891,2.994s-29.407-12.023-26.831,9.446C278.123,206.447,276.986,217.5,293.7,235.2Z" transform="translate(-249.808 -192.677)" fill="#263238"/>
        <path id="Path_2742" data-name="Path 2742" d="M283.38,212.744a13.207,13.207,0,0,0,5.106,8.7c3.714,2.762,6.035-.162,6.383-4.526.325-3.946,0-10.12-4.433-11.164a5.918,5.918,0,0,0-7.056,6.986Z" transform="translate(-246.315 -175.578)" fill="#d18179"/>
        <path id="Path_2743" data-name="Path 2743" d="M292.42,282.074l49.112-3.644s6.359,100.8,5.872,143.531c-.487,44.47-20.889,153.488-20.889,153.488l-23.721.371s1.88-105.745,1.88-149.4c0-58.791-12.325-144.343-12.325-144.343" transform="translate(-234.303 -79.397)" fill="#263238"/>
        <path id="Path_2744" data-name="Path 2744" d="M300.56,325.15c.65,2.9,18.916,84.624,24.812,132.3,3.133-19.821,6.359-42.08,8.541-61.739Z" transform="translate(-223.457 -17.68)" opacity="0.2"/>
        <path id="Path_2745" data-name="Path 2745" d="M329.518,279.29s37.391,91.587,45.817,131.763c9.284,43.983,24.022,155.228,24.022,155.228l-25.369,3.946s-19.195-83.161-29.941-125.636c-12.209-48.416-60.625-125.079-62.667-161.727Z" transform="translate(-248.794 -78.261)" fill="#263238"/>
        <path id="Path_2746" data-name="Path 2746" d="M353.778,409.933l-31.519,7.381-3.969-12.139,34.42-5.9Z" transform="translate(-200.036 80.245)" fill="#f4cb3c"/>
        <path id="Path_2747" data-name="Path 2747" d="M324.559,412.125l-28.27.441-.139-9.121,31.566-.975Z" transform="translate(-229.283 84.459)" fill="#f4cb3c"/>
        <path id="Path_2748" data-name="Path 2748" d="M295.381,209.1c-.209,1.114.209,2.112.928,2.321s1.486-.65,1.694-1.764-.209-2.112-.952-2.321S295.589,207.988,295.381,209.1Z" transform="translate(-230.37 -173.352)" fill="#263238"/>
        <path id="Path_2749" data-name="Path 2749" d="M301.3,210.359a1.947,1.947,0,0,0,.928,2.321c.719.209,1.485-.65,1.694-1.764s-.209-2.135-.928-2.321S301.509,209.245,301.3,210.359Z" transform="translate(-222.55 -171.684)" fill="#263238"/>
        <path id="Path_2750" data-name="Path 2750" d="M300.443,209.22a40.41,40.41,0,0,0,3.528,10.491,6.545,6.545,0,0,1-5.5,0Z" transform="translate(-226.218 -170.824)" fill="#ad5a52"/>
        <path id="Path_2751" data-name="Path 2751" d="M300.917,217.909a9.284,9.284,0,0,1-6.035-4.247.333.333,0,1,1,.58-.325,8.983,8.983,0,0,0,6.963,4.131.348.348,0,0,1,0,.673A8.885,8.885,0,0,1,300.917,217.909Z" transform="translate(-231.009 -165.61)" fill="#263238"/>
        <path id="Path_2752" data-name="Path 2752" d="M295.034,207.62a1.318,1.318,0,0,1-.3-.186.719.719,0,0,1,0-.952,6.662,6.662,0,0,1,5.826-1.694.673.673,0,0,1,.464.812.65.65,0,0,1-.789.464h0a5.315,5.315,0,0,0-4.642,1.416A.673.673,0,0,1,295.034,207.62Z" transform="translate(-231.393 -176.836)" fill="#263238"/>
        <path id="Path_2753" data-name="Path 2753" d="M306.749,210.918a.673.673,0,0,1-.441-.464,5.153,5.153,0,0,0-3.11-3.621.668.668,0,0,1,.395-1.277,6.568,6.568,0,0,1,3.992,4.642.627.627,0,0,1-.464.812A.511.511,0,0,1,306.749,210.918Z" transform="translate(-220.594 -175.701)" fill="#263238"/>
        <path id="Path_2754" data-name="Path 2754" d="M336.953,413.131a16.241,16.241,0,0,1-3.481,1.23.278.278,0,0,1-.348,0,.325.325,0,0,1,0-.371c.3-.511,3.04-5.06,4.781-5.06a1.067,1.067,0,0,1,.952.58,2.019,2.019,0,0,1,.186,1.88A4.317,4.317,0,0,1,336.953,413.131Zm-2.855.371a6.8,6.8,0,0,0,4.317-2.484,1.346,1.346,0,0,0-.163-1.276c-.139-.232-.255-.255-.371-.255-.905,0-2.646,2.251-3.783,4.015Z" transform="translate(-180.518 92.993)" fill="#f4cb3c"/>
        <path id="Path_2755" data-name="Path 2755" d="M334.06,415.354h-.186a.371.371,0,0,1-.279-.209,9.956,9.956,0,0,1-.789-5.826,1.88,1.88,0,0,1,1.068-1.045h0a1.068,1.068,0,0,1,1.323.3c1,1.254,0,5.269-1.021,6.638a.232.232,0,0,1-.116.139Zm0-6.336a1.183,1.183,0,0,0-.557.6,8.053,8.053,0,0,0,.557,4.642c.766-1.648,1.3-4.526.72-5.246,0,0-.186-.232-.58,0h-.139Z" transform="translate(-181.038 91.978)" fill="#f4cb3c"/>
        <path id="Path_2756" data-name="Path 2756" d="M304.856,416.526a.325.325,0,0,1,0-.6c.627-.348,6.22-3.3,7.938-2.321a1.114,1.114,0,0,1,.557.882h0a1.9,1.9,0,0,1-.6,1.625c-1.509,1.369-5.524.882-7.8.464Zm7.567-2.437a13.787,13.787,0,0,0-6.313,1.95,9.122,9.122,0,0,0,6.267-.464,1.207,1.207,0,0,0,.371-1.091.371.371,0,0,0-.209-.348Z" transform="translate(-218.052 98.905)" fill="#f4cb3c"/>
        <path id="Path_2757" data-name="Path 2757" d="M304.819,418.36h0a.371.371,0,0,1-.139-.3,9.678,9.678,0,0,1,2.089-5.431,2.553,2.553,0,0,1,1.834-.6h0a1.116,1.116,0,0,1,1.253.928c.279,1.578-3.017,4.642-4.642,5.431A.325.325,0,0,1,304.819,418.36Zm3.969-5.64a.6.6,0,0,0-.325,0h0a1.694,1.694,0,0,0-1.346.441,7.751,7.751,0,0,0-1.787,4.34c1.718-1.044,3.946-3.481,3.783-4.41,0-.139-.046-.279-.325-.371ZM308.487,412.325Z" transform="translate(-218.015 97.071)" fill="#f4cb3c"/>
        <path id="Path_2758" data-name="Path 2758" d="M312.065,242.062c-4.642,8.24-9.284,17.036-13.462,25.694a201.136,201.136,0,0,0-10.793,26.181c-.348,1.091-.6,2.159-.928,3.226-.116.487-.325,1.184-.395,1.509q-.113.4-.186.812a13.553,13.553,0,0,0,.116,4.387,40.76,40.76,0,0,0,4.526,11.3A142.025,142.025,0,0,0,307.7,337.9l-6.731,8.077a101.5,101.5,0,0,1-23.628-21.7,52.2,52.2,0,0,1-8.518-15.69,30.174,30.174,0,0,1-1.462-10.514,24.559,24.559,0,0,1,.3-2.9c.116-.952.255-1.439.395-2.182.279-1.346.534-2.762.836-4.085a176.394,176.394,0,0,1,10.537-30.034,256.639,256.639,0,0,1,14.39-27.666Z" transform="translate(-267.34 -141.788)" fill="#d18179"/>
        <path id="Path_2759" data-name="Path 2759" d="M294.861,228.24c-12.928,3.551-25.531,39.875-25.531,39.875l31.125,8.634a100.292,100.292,0,0,0,12.928-24.881C319.928,234.205,310.5,223.97,294.861,228.24Z" transform="translate(-264.712 -146.975)" fill="#518fa4"/>
        <g id="Group_740" data-name="Group 740" transform="translate(4.618 80.298)" opacity="0.2">
          <path id="Path_2760" data-name="Path 2760" d="M294.861,228.24c-12.928,3.551-25.531,39.875-25.531,39.875l31.125,8.634a100.292,100.292,0,0,0,12.928-24.881C319.928,234.205,310.5,223.97,294.861,228.24Z" transform="translate(-269.33 -227.273)"/>
        </g>
        <path id="Path_2761" data-name="Path 2761" d="M284.5,276.14l14.2,3.737-5.64,13.346s-12.742-2.692-12.673-9.632Z" transform="translate(-250.102 -82.422)" fill="#d18179"/>
        <path id="Path_2762" data-name="Path 2762" d="M296.944,286.8l-4.2,10.561L285.85,291.1l5.64-13.346Z" transform="translate(-242.889 -80.296)" fill="#d18179"/>
      </g>
    </g>
    <g id="Group_745" data-name="Group 745" transform="translate(1299.18 -125.835)">
      <g id="Group_741" data-name="Group 741" transform="translate(264.208 522.914)">
        <path id="Path_2768" data-name="Path 2768" d="M314.125,589.328a24.379,24.379,0,0,0-.04,48.758h.02a24.379,24.379,0,0,0,.02-48.758Z" transform="translate(-258.065 -509.223)" fill="none"/>
        <path id="Path_2769" data-name="Path 2769" d="M342.577,564.8a39.118,39.118,0,0,1-51.7,2.341,50.914,50.914,0,0,0-19.406,15.346c-21.2,28.178-.018,68.616,17.2,87.439,24.213,26.466,57.547,28.726,65.88,29.054q-.152-64.754-.3-129.507A83.067,83.067,0,0,0,342.577,564.8Zm-23.954,77.373h-.02a24.389,24.389,0,1,1,.02,0Z" transform="translate(-262.583 -513.306)" stroke="#1a1818" stroke-miterlimit="10" stroke-width="4" fill="url(#linear-gradient-7)"/>
        <path id="Path_2770" data-name="Path 2770" d="M281.994,520.654a39.147,39.147,0,0,0,6.933,53.831" transform="translate(-260.633 -520.654)" fill="none" stroke="#1a1818" stroke-miterlimit="10" stroke-width="4"/>
        <path id="Path_2771" data-name="Path 2771" d="M280.9,520.654" transform="translate(-259.535 -520.654)" fill="none" stroke="#1a1818" stroke-miterlimit="10" stroke-width="4"/>
        <path id="Path_2772" data-name="Path 2772" d="M331.162,572.133a39.142,39.142,0,0,0,4.337-51.416" transform="translate(-251.168 -520.643)" fill="none" stroke="#1a1818" stroke-miterlimit="10" stroke-width="4"/>
        <path id="Path_2773" data-name="Path 2773" d="M286.84,567.137a39.118,39.118,0,0,0,51.7-2.341" transform="translate(-258.545 -513.306)" fill="none"/>
      </g>
      <path id="Path_2774" data-name="Path 2774" d="M341.441,703c-.152-64.895,0-162.352,0-162.352" transform="translate(14.74 5.587)" fill="#1a1818" stroke="#1a1818" stroke-miterlimit="10" stroke-width="4"/>
      <path id="Path_2775" data-name="Path 2775" d="M291.043,514.78c-6.614-3.266-14.9-5.429-25.2-5.474" transform="translate(2.169 0.371)" fill="none" stroke="#1a1818" stroke-miterlimit="10" stroke-width="4"/>
      <path id="Path_2776" data-name="Path 2776" d="M353.5,509.653c-10.4.047-18.743,1.938-25.388,4.885" transform="translate(12.534 0.428)" fill="none" stroke="#1a1818" stroke-miterlimit="10" stroke-width="4"/>
      <g id="Group_744" data-name="Group 744" transform="translate(293.214 507.08)">
        <g id="Group_742" data-name="Group 742">
          <path id="Path_2777" data-name="Path 2777" d="M287.45,515.152a39.175,39.175,0,0,1,47.4-.175c-17.812,7.92-23.4,23.411-23.586,31.249h-.012C311.257,541.689,305.752,524.192,287.45,515.152Z" transform="translate(-287.45 -507.08)" fill="url(#linear-gradient-8)"/>
        </g>
        <g id="Group_743" data-name="Group 743">
          <path id="Path_2778" data-name="Path 2778" d="M334.855,514.977a39.175,39.175,0,0,0-47.4.175" transform="translate(-287.45 -507.08)" fill="none" stroke="#1a1818" stroke-miterlimit="10" stroke-width="4"/>
          <path id="Path_2779" data-name="Path 2779" d="M328.147,513.9c-.012-.012-.035-.023-.047-.035" transform="translate(-280.683 -505.951)" fill="none" stroke="#1a1818" stroke-miterlimit="10" stroke-width="4"/>
          <path id="Path_2780" data-name="Path 2780" d="M331.492,513.84c-.012,0-.023.012-.035.012-17.812,7.92-23.4,23.411-23.586,31.249-.012.14-.012.28-.012.408" transform="translate(-284.053 -505.955)" fill="none" stroke="#1a1818" stroke-miterlimit="10" stroke-width="4"/>
          <path id="Path_2781" data-name="Path 2781" d="M287.45,514c18.3,9.04,23.807,26.537,23.807,31.074" transform="translate(-287.45 -505.928)" fill="none" stroke="#1a1818" stroke-miterlimit="10" stroke-width="4"/>
        </g>
      </g>
      <path id="Path_2782" data-name="Path 2782" d="M307.188,540.592" transform="translate(9.05 5.578)" fill="#fff" stroke="#1a1818" stroke-miterlimit="10" stroke-width="4"/>
      <path id="Path_2783" data-name="Path 2783" d="M252.82,620.742a79.872,79.872,0,0,0,9.423,26.544A83.057,83.057,0,0,0,277.1,666.247" transform="translate(0 18.92)" fill="none" stroke="#1a1818" stroke-miterlimit="10" stroke-width="3"/>
      <path id="Path_2784" data-name="Path 2784" d="M279.519,663.731c9.99,8.793,15.467,11.137,15.467,11.137" transform="translate(4.444 26.076)" fill="none" stroke="#1a1818" stroke-miterlimit="10" stroke-width="3"/>
    </g>
  </g>
</svg>
