<svg xmlns="http://www.w3.org/2000/svg" width="328.25" height="313.653" viewBox="0 0 328.25 313.653">
  <g id="Navigation-amico" transform="translate(-17.085 -28.149)">
    <g id="freepik--Floor--inject-71" transform="translate(36.03 160.62)">
      <ellipse id="freepik--floor--inject-71-2" data-name="freepik--floor--inject-71" cx="144.557" cy="83.463" rx="144.557" ry="83.463" fill="#f5f5f5"/>
    </g>
    <g id="freepik--Shadows--inject-71" transform="translate(17.085 149.94)">
      <path id="freepik--Shadow--inject-71" d="M231.434,384.865l110.834-63.99c2.429-1.4,2.429-3.672,0-5.073L138.536,198.689a9.73,9.73,0,0,0-8.8,0L18.907,262.642c-2.429,1.437-2.429,3.679,0,5.08L222.645,384.851A9.715,9.715,0,0,0,231.434,384.865Z" transform="translate(-17.085 -197.638)" fill="#e0e0e0"/>
      <path id="freepik--shadow--inject-71-2" data-name="freepik--shadow--inject-71" d="M423.657,452.375a2.831,2.831,0,0,1-2.335-1.315l-18.338-25.732a2.731,2.731,0,0,1-.359-2.925,2.544,2.544,0,0,1,2.321-1.344,3.934,3.934,0,0,1,.841.1l45.759,10.879c2.2.525,2.242,2.077,2.206,2.537s-.345,1.983-2.6,2.156l-22.607,1.437-2.271,11.806a2.7,2.7,0,0,1-2.623,2.393Z" transform="translate(-125.508 -260.513)" fill="#e0e0e0"/>
    </g>
    <g id="freepik--Signal--inject-71" transform="translate(205.96 83.883)">
      <g id="freepik--signal--inject-71-2" data-name="freepik--signal--inject-71">
        <path id="Path_2795" data-name="Path 2795" d="M312.568,107.075a1.2,1.2,0,0,0-.719-.956,3.773,3.773,0,0,0-3.42,0,1.222,1.222,0,0,0-.719.956h0V217.859h4.836V107.075Z" transform="translate(-287.748 -105.71)" fill="#37474f"/>
        <path id="Path_2796" data-name="Path 2796" d="M312.579,107.075c0-.719-1.078-1.365-2.414-1.365s-2.414.611-2.414,1.365,1.078,1.372,2.414,1.372S312.579,107.83,312.579,107.075Z" transform="translate(-287.759 -105.71)" fill="#455a64"/>
        <path id="Path_2797" data-name="Path 2797" d="M316.218,134.293,284.673,116.07l-4.743,2.738,4.743,8.213,31.546,18.23Z" transform="translate(-279.93 -108.625)" fill="#f4cb3c"/>
        <g id="Group_763" data-name="Group 763" transform="translate(0 7.445)" opacity="0.4">
          <path id="Path_2798" data-name="Path 2798" d="M316.218,134.293,284.673,116.07l-4.743,2.738,4.743,8.213,31.546,18.23Z" transform="translate(-279.93 -116.07)"/>
        </g>
        <path id="Path_2799" data-name="Path 2799" d="M286.53,115.532l2.371-1.372,31.589,18.252-2.414,1.344Z" transform="translate(-281.787 -108.088)" fill="#f4cb3c"/>
        <g id="Group_764" data-name="Group 764" transform="translate(4.743 6.072)" opacity="0.3">
          <path id="Path_2800" data-name="Path 2800" d="M286.53,115.532l2.371-1.372,31.589,18.252-2.414,1.344Z" transform="translate(-286.53 -114.16)"/>
        </g>
        <path id="Path_2801" data-name="Path 2801" d="M332.844,150.518l-2.414,1.344V140.9l2.414-1.344Z" transform="translate(-294.142 -115.236)" fill="#f4cb3c"/>
        <path id="Path_2802" data-name="Path 2802" d="M332.844,150.518l-2.414,1.344V140.9l2.414-1.344Z" transform="translate(-294.142 -115.236)" opacity="0.55"/>
        <text id="_2nd_Street" data-name="2nd Street" transform="translate(6.446 15.489)" fill="#fff" font-size="4" font-family="Helvetica-Bold, Helvetica" font-weight="700" letter-spacing="0.05em"><tspan x="0" y="0">2nd St</tspan><tspan y="0" letter-spacing="0.045em">r</tspan><tspan y="0" letter-spacing="0.05em">e</tspan><tspan y="0" letter-spacing="0.046em">e</tspan><tspan y="0" letter-spacing="0.05em">t</tspan></text>
      </g>
    </g>
    <g id="freepik--Plants--inject-71" transform="translate(316.528 211.143)">
      <g id="freepik--plants--inject-71-2" data-name="freepik--plants--inject-71">
        <path id="Path_2803" data-name="Path 2803" d="M437.659,322.562l-3.859-3.327s.151-11.9,3.629-21.471c4.9-13.459,15.284-16.405,18.453-14.372s3.169,6.316-4.592,13.136C446.706,300.566,440.052,309.656,437.659,322.562Z" transform="translate(-433.8 -282.81)" fill="#f4cb3c"/>
        <g id="Group_765" data-name="Group 765" opacity="0.15">
          <path id="Path_2804" data-name="Path 2804" d="M437.659,322.562l-3.859-3.327s.151-11.9,3.629-21.471c4.9-13.459,15.284-16.405,18.453-14.372s3.169,6.316-4.592,13.136C446.706,300.566,440.052,309.656,437.659,322.562Z" transform="translate(-433.8 -282.81)"/>
        </g>
        <path id="Path_2805" data-name="Path 2805" d="M438.378,317.449h.043a.316.316,0,0,0,.331-.3c.719-13.344,8.738-26.587,15.723-31.172a.309.309,0,0,0,.093-.431.323.323,0,0,0-.438-.093c-7.121,4.678-15.263,18.115-16.01,31.661a.316.316,0,0,0,.259.338Z" transform="translate(-435.015 -283.539)" fill="#fff"/>
        <path id="Path_2806" data-name="Path 2806" d="M450.087,337.09c.611.525,2.2-.065,2.81-.323a6.568,6.568,0,0,0,2.666-2.077,6.252,6.252,0,0,0,1.265-3.593,14.006,14.006,0,0,0-.086-2.055l-.172-2.012a4.937,4.937,0,0,1,.093-1.976c.417-1.265,1.753-1.955,2.953-2.537,1.337-.647,2.767-1.559,3.068-3.126a5.634,5.634,0,0,0-.719-3.55c-.568-1.1-1.293-2.113-1.775-3.241a3.888,3.888,0,0,1-.316-2.594,4.031,4.031,0,0,1,.826-1.437,22.044,22.044,0,0,0,2.264-2.731,3.14,3.14,0,0,0,.057-3.313,3.636,3.636,0,0,0-2.565-1.193,6.231,6.231,0,0,0-2.68.4c-2.759.9-4.757,3.593-7.6,4.117a26,26,0,0,1-3.349.158,4.046,4.046,0,0,0-2.989,1.293c-1.344,1.746,0,4.484-1.092,6.41-.963,1.7-2.874,2.055-4.175,3.5a3.945,3.945,0,0,0-.927,2.292,11.568,11.568,0,0,0,.223,4.218,28.365,28.365,0,0,0,1.5,4.053C439.423,327.82,450,337.018,450.087,337.09Z" transform="translate(-434.853 -288.018)" fill="#f4cb3c"/>
        <path id="Path_2807" data-name="Path 2807" d="M446.107,332.71h0a.316.316,0,0,0,.366-.259c1.883-12.41,10.326-24.863,15.313-27.989a.323.323,0,0,0,.1-.431.316.316,0,0,0-.438-.1c-5.088,3.183-13.689,15.845-15.6,28.42A.316.316,0,0,0,446.107,332.71Z" transform="translate(-437.19 -288.74)" fill="#fff"/>
        <path id="Path_2808" data-name="Path 2808" d="M452.623,323.923h.093a42.475,42.475,0,0,1,9.2.295.323.323,0,0,0,.366-.266.309.309,0,0,0-.266-.359,43.315,43.315,0,0,0-9.377-.3.316.316,0,0,0,0,.625Z" transform="translate(-439.028 -294.166)" fill="#fff"/>
      </g>
    </g>
    <g id="freepik--Clouds--inject-71" transform="translate(97.857 104.629)">
      <g id="freepik--clouds--inject-71-2" data-name="freepik--clouds--inject-71">
        <path id="freepik--Cloud--inject-71" d="M150.537,136.542l-3.593,2.077a3.6,3.6,0,0,0,0-.474V137.1c0-1.854-1.3-2.6-2.874-1.674a5.656,5.656,0,0,0-1.732,1.66c-.259-2.328-2.091-3.2-4.311-1.911a9.586,9.586,0,0,0-4.311,7.524v1.523a4.167,4.167,0,0,0,.366,1.8l-2.982,1.725a3.593,3.593,0,0,0-1.61,2.788c0,1.028.719,1.437,1.61.934l19.466-11.239a3.593,3.593,0,0,0,1.61-2.788C152.132,136.449,151.414,136.032,150.537,136.542Z" transform="translate(-129.49 -134.581)" fill="#ebebeb"/>
        <path id="freepik--cloud--inject-71-2" data-name="freepik--cloud--inject-71" d="M173.491,149.623l-2.637,1.523a3.028,3.028,0,0,0,0-.352v-.762c0-1.358-.956-1.911-2.156-1.229a4.081,4.081,0,0,0-1.265,1.222c-.194-1.71-1.531-2.343-3.162-1.437a7.042,7.042,0,0,0-3.183,5.519v1.143a3,3,0,0,0,.266,1.322l-2.156,1.265a2.587,2.587,0,0,0-1.178,2.041c0,.755.525,1.056,1.178.683l14.293-8.2a2.587,2.587,0,0,0,1.178-2.041C174.669,149.551,174.145,149.25,173.491,149.623Z" transform="translate(-137.519 -138.407)" fill="#ebebeb"/>
      </g>
    </g>
    <g id="freepik--Device--inject-71" transform="translate(25.647 92.197)">
      <g id="freepik--device--inject-71-2" data-name="freepik--device--inject-71" transform="translate(0)">
        <g id="freepik--device--inject-71-3" data-name="freepik--device--inject-71" transform="translate(0 48.232)">
          <g id="freepik--device--inject-71-4" data-name="freepik--device--inject-71">
            <path id="Path_2809" data-name="Path 2809" d="M335.891,320.945c1.531,1.186,1.365,2.874-.489,3.931L233.946,383.454a8.192,8.192,0,0,1-7.38,0L32.679,271.507c-1.883-1.085-2.034-2.788-.438-3.967A8.206,8.206,0,0,0,29,273.619V278.5a8.12,8.12,0,0,0,3.693,6.4L226.552,396.856a8.156,8.156,0,0,0,7.387,0L335.4,338.291a8.127,8.127,0,0,0,3.686-6.388v-4.886a8.249,8.249,0,0,0-3.191-6.072Z" transform="translate(-29 -207.798)" fill="#455a64"/>
            <path id="Path_2810" data-name="Path 2810" d="M336.244,297.225,142.349,185.277a8.213,8.213,0,0,0-7.38,0L33.521,243.856c-2.041,1.171-2.041,3.083,0,4.254L227.408,360.057a8.192,8.192,0,0,0,7.38,0l101.456-58.579C338.277,300.307,338.277,298.367,336.244,297.225Z" transform="translate(-29.841 -184.402)" fill="#37474f"/>
            <path id="Path_2811" data-name="Path 2811" d="M32.241,267.54A8.206,8.206,0,0,0,29,273.619V278.5a8.134,8.134,0,0,0,3.694,6.4L226.552,396.856a7.574,7.574,0,0,0,3.7.884V384.331a7.6,7.6,0,0,1-3.694-.877L32.679,271.507C30.8,270.422,30.646,268.718,32.241,267.54Z" transform="translate(-29 -207.798)" fill="#263238"/>
            <path id="Path_2812" data-name="Path 2812" d="M101.365,239.6a1.137,1.137,0,0,0,0-2.156,4.11,4.11,0,0,0-3.751,0,1.134,1.134,0,0,0,0,2.156A4.153,4.153,0,0,0,101.365,239.6Z" transform="translate(-48.089 -199.201)"/>
            <path id="Path_2813" data-name="Path 2813" d="M108.787,231.97l14.479-8.357c.869-.5.913-1.286.1-1.753a3.37,3.37,0,0,0-3.032.057l-14.479,8.364c-.862.5-.905,1.279-.1,1.746A3.349,3.349,0,0,0,108.787,231.97Z" transform="translate(-50.438 -194.85)"/>
            <path id="Path_2814" data-name="Path 2814" d="M154.972,197.915c-1.739-1.006-3.593-.424-5.3.589L54.816,253.217c-1.746,1.006-1.753,2.637,0,3.65l172.093,99.38a7.014,7.014,0,0,0,6.331,0l94.853-54.72c1.753-1.006,1.746-2.644,0-3.65Z" transform="translate(-35.896 -188.057)" fill="#f4cb3c"/>
            <path id="Path_2815" data-name="Path 2815" d="M154.972,197.915c-1.739-1.006-3.593-.424-5.3.589L54.816,253.217c-1.746,1.006-1.753,2.637,0,3.65l172.093,99.38a7.014,7.014,0,0,0,6.331,0l94.853-54.72c1.753-1.006,1.746-2.644,0-3.65Z" transform="translate(-35.896 -188.057)" fill="#fff" opacity="0.96"/>
          </g>
        </g>
        <g id="Group_766" data-name="Group 766" transform="translate(21.557 60.145)" opacity="0.4">
          <path id="Path_2816" data-name="Path 2816" d="M288.774,406.349l35.742-20.623-6-1.732A72.735,72.735,0,0,0,262,390.885h0Z" transform="translate(-116.128 -251.682)" fill="#f4cb3c"/>
          <path id="Path_2817" data-name="Path 2817" d="M356.208,362.429l53.369-30.813L373.856,311,352.78,361.444Z" transform="translate(-141.676 -231.942)" fill="#f4cb3c"/>
          <path id="Path_2818" data-name="Path 2818" d="M351.561,304.513l-20.839,52.234a72.4,72.4,0,0,0-36.022-2.328l20.12-49.539,29.232-4.7Z" transform="translate(-125.331 -228.897)" fill="#f4cb3c"/>
          <path id="Path_2819" data-name="Path 2819" d="M258.788,368.78l7.3-17.964-56.717-6.726-9.521,10.592L239.372,377.5a80.977,80.977,0,0,1,19.416-8.724Z" transform="translate(-98.638 -241.254)" fill="#f4cb3c"/>
          <path id="Path_2820" data-name="Path 2820" d="M330.334,282.41l17.749,10.225-23.433,3.787Z" transform="translate(-133.759 -223.896)" fill="#f4cb3c"/>
          <ellipse id="Ellipse_623" data-name="Ellipse 623" cx="6.316" cy="3.643" rx="6.316" ry="3.643" transform="translate(77.032 59.944)" fill="#f4cb3c"/>
          <path id="Path_2821" data-name="Path 2821" d="M273.666,303.138l-87.731-10.4c-.927,2.113-2.508,2.587-6.194,3.392l24.475,28.025,58.349,6.855Z" transform="translate(-92.979 -226.803)" fill="#f4cb3c"/>
          <path id="Path_2822" data-name="Path 2822" d="M232.966,268.316,226.5,283.945l-39.838-4.728a9.09,9.09,0,0,0-3.42-2.206l5.468-13.94Z" transform="translate(-93.964 -218.453)" fill="#f4cb3c"/>
          <path id="Path_2823" data-name="Path 2823" d="M303.3,274.891l-6.848,16.894L252.76,286.6l6.862-16.894Z" transform="translate(-113.528 -220.322)" fill="#f4cb3c"/>
          <path id="Path_2824" data-name="Path 2824" d="M278.44,253.968,206.072,212.19,193.54,243.9Z" transform="translate(-96.862 -204.135)" fill="#f4cb3c"/>
          <path id="Path_2825" data-name="Path 2825" d="M154.126,296.3l26.724,30.561-9.521,10.563L119.67,307.6l31.855-12.5a12.1,12.1,0,0,0,2.6,1.2Z" transform="translate(-76.074 -227.467)" fill="#f4cb3c"/>
          <path id="Path_2826" data-name="Path 2826" d="M164.815,240.049l13.394-33.917-8.932-5.152-56.9,32.846Z" transform="translate(-74.022 -200.98)" fill="#f4cb3c"/>
          <path id="Path_2827" data-name="Path 2827" d="M89.741,252.7,59,270.528l38.7,22.341,34.133-13.452c-.072-1.638.719-3.212,3.219-4.678a15.6,15.6,0,0,1,7.459-1.7l5.325-13.588Z" transform="translate(-59 -215.535)" fill="#f4cb3c"/>
        </g>
        <g id="freepik--City--inject-71" transform="translate(26.968)">
          <path id="Path_2828" data-name="Path 2828" d="M197.69,249.572V238.93l16.434,1.947v10.635Z" transform="translate(-103.441 -151.515)" fill="#f4cb3c"/>
          <path id="Path_2829" data-name="Path 2829" d="M220.56,237.928l3.385-9.478v11.734l-3.385,8.379Z" transform="translate(-109.877 -148.565)" fill="#f4cb3c"/>
          <path id="Path_2830" data-name="Path 2830" d="M217.508,227.69l-16.082-1.94-3.737,9.471,16.434,1.947Z" transform="translate(-103.441 -147.806)" fill="#f4cb3c"/>
          <path id="Path_2831" data-name="Path 2831" d="M197.69,249.572V238.93l16.434,1.947v10.635Z" transform="translate(-103.441 -151.515)" fill="#fff" opacity="0.8"/>
          <path id="Path_2832" data-name="Path 2832" d="M220.56,237.928l3.385-9.478v11.734l-3.385,8.379Z" transform="translate(-109.877 -148.565)" fill="#fff" opacity="0.75"/>
          <path id="Path_2833" data-name="Path 2833" d="M217.508,227.69l-16.082-1.94-3.737,9.471,16.434,1.947Z" transform="translate(-103.441 -147.806)" fill="#fff" opacity="0.9"/>
          <path id="Path_2834" data-name="Path 2834" d="M212.68,283.494V278.73l16.441,1.94v4.771Z" transform="translate(-107.66 -162.715)" fill="#f4cb3c"/>
          <path id="Path_2835" data-name="Path 2835" d="M235.56,278.213,238.492,270v5.864l-2.932,7.121Z" transform="translate(-114.098 -160.259)" fill="#f4cb3c"/>
          <path id="Path_2836" data-name="Path 2836" d="M232.053,269.24l-16.089-1.94-3.284,8.213,16.441,1.94Z" transform="translate(-107.66 -159.499)" fill="#f4cb3c"/>
          <path id="Path_2837" data-name="Path 2837" d="M212.68,283.494V278.73l16.441,1.94v4.771Z" transform="translate(-107.66 -162.715)" fill="#fff" opacity="0.8"/>
          <path id="Path_2838" data-name="Path 2838" d="M235.56,278.213,238.492,270v5.864l-2.932,7.121Z" transform="translate(-114.098 -160.259)" fill="#fff" opacity="0.75"/>
          <path id="Path_2839" data-name="Path 2839" d="M232.053,269.24l-16.089-1.94-3.284,8.213,16.441,1.94Z" transform="translate(-107.66 -159.499)" fill="#fff" opacity="0.9"/>
          <path id="Path_2840" data-name="Path 2840" d="M256.73,368.505V357.87l16.434,1.94v10.642Z" transform="translate(-120.056 -184.987)" fill="#f4cb3c"/>
          <path id="Path_2841" data-name="Path 2841" d="M279.6,356.861l3.392-9.471v11.734L279.6,367.5Z" transform="translate(-126.492 -182.038)" fill="#f4cb3c"/>
          <path id="Path_2842" data-name="Path 2842" d="M276.556,346.63l-16.082-1.94-3.744,9.471,16.434,1.94Z" transform="translate(-120.056 -181.278)" fill="#f4cb3c"/>
          <path id="Path_2843" data-name="Path 2843" d="M256.73,368.505V357.87l16.434,1.94v10.642Z" transform="translate(-120.056 -184.987)" fill="#fff" opacity="0.8"/>
          <path id="Path_2844" data-name="Path 2844" d="M279.6,356.861l3.392-9.471v11.734L279.6,367.5Z" transform="translate(-126.492 -182.038)" fill="#fff" opacity="0.75"/>
          <path id="Path_2845" data-name="Path 2845" d="M276.556,346.63l-16.082-1.94-3.744,9.471,16.434,1.94Z" transform="translate(-120.056 -181.278)" fill="#fff" opacity="0.9"/>
          <path id="Path_2846" data-name="Path 2846" d="M256.34,258.866V254.95l8.321.984v3.916Z" transform="translate(-119.946 -156.023)" fill="#f4cb3c"/>
          <path id="Path_2847" data-name="Path 2847" d="M267.92,254.44l1.71-4.8v4.477l-1.71,4.24Z" transform="translate(-123.205 -154.529)" fill="#f4cb3c"/>
          <path id="Path_2848" data-name="Path 2848" d="M266.371,249.257l-8.142-.977-1.89,4.793,8.321.984Z" transform="translate(-119.946 -154.146)" fill="#f4cb3c"/>
          <path id="Path_2849" data-name="Path 2849" d="M256.34,258.866V254.95l8.321.984v3.916Z" transform="translate(-119.946 -156.023)" fill="#fff" opacity="0.8"/>
          <path id="Path_2850" data-name="Path 2850" d="M267.92,254.44l1.71-4.8v4.477l-1.71,4.24Z" transform="translate(-123.205 -154.529)" fill="#fff" opacity="0.75"/>
          <path id="Path_2851" data-name="Path 2851" d="M266.371,249.257l-8.142-.977-1.89,4.793,8.321.984Z" transform="translate(-119.946 -154.146)" fill="#fff" opacity="0.9"/>
          <path id="Path_2852" data-name="Path 2852" d="M171.96,232.446V226.74l12.1,1.43v5.706Z" transform="translate(-96.2 -148.084)" fill="#f4cb3c"/>
          <path id="Path_2853" data-name="Path 2853" d="M188.8,226l2.493-6.97v6.51l-2.493,6.165Z" transform="translate(-100.939 -145.915)" fill="#f4cb3c"/>
          <path id="Path_2854" data-name="Path 2854" d="M186.554,218.47l-11.842-1.43-2.752,6.97,12.1,1.43Z" transform="translate(-96.2 -145.354)" fill="#f4cb3c"/>
          <path id="Path_2855" data-name="Path 2855" d="M171.96,232.446V226.74l12.1,1.43v5.706Z" transform="translate(-96.2 -148.084)" fill="#fff" opacity="0.8"/>
          <path id="Path_2856" data-name="Path 2856" d="M188.8,226l2.493-6.97v6.51l-2.493,6.165Z" transform="translate(-100.939 -145.915)" fill="#fff" opacity="0.75"/>
          <path id="Path_2857" data-name="Path 2857" d="M186.554,218.47l-11.842-1.43-2.752,6.97,12.1,1.43Z" transform="translate(-96.2 -145.354)" fill="#fff" opacity="0.9"/>
          <path id="Path_2858" data-name="Path 2858" d="M258.35,289.31v-5.08l10.793,1.272v5.088Z" transform="translate(-120.512 -164.263)" fill="#f4cb3c"/>
          <path id="Path_2859" data-name="Path 2859" d="M273.37,283.566l2.22-6.216v5.806l-2.22,5.5Z" transform="translate(-124.739 -162.327)" fill="#f4cb3c"/>
          <path id="Path_2860" data-name="Path 2860" d="M271.363,276.852l-10.556-1.272L258.35,281.8l10.793,1.272Z" transform="translate(-120.512 -161.829)" fill="#f4cb3c"/>
          <path id="Path_2861" data-name="Path 2861" d="M258.35,289.31v-5.08l10.793,1.272v5.088Z" transform="translate(-120.512 -164.263)" fill="#fff" opacity="0.8"/>
          <path id="Path_2862" data-name="Path 2862" d="M273.37,283.566l2.22-6.216v5.806l-2.22,5.5Z" transform="translate(-124.739 -162.327)" fill="#fff" opacity="0.75"/>
          <path id="Path_2863" data-name="Path 2863" d="M271.363,276.852l-10.556-1.272L258.35,281.8l10.793,1.272Z" transform="translate(-120.512 -161.829)" fill="#fff" opacity="0.9"/>
          <path id="Path_2864" data-name="Path 2864" d="M190.23,280.811V275.58l11.1,1.308v5.238Z" transform="translate(-101.342 -161.829)" fill="#f4cb3c"/>
          <path id="Path_2865" data-name="Path 2865" d="M205.68,274.9l2.285-6.4v5.971l-2.285,5.662Z" transform="translate(-105.69 -159.836)" fill="#f4cb3c"/>
          <path id="Path_2866" data-name="Path 2866" d="M203.617,267.988l-10.858-1.308-2.529,6.4,11.1,1.308Z" transform="translate(-101.342 -159.324)" fill="#f4cb3c"/>
          <path id="Path_2867" data-name="Path 2867" d="M190.23,280.811V275.58l11.1,1.308v5.238Z" transform="translate(-101.342 -161.829)" fill="#fff" opacity="0.8"/>
          <path id="Path_2868" data-name="Path 2868" d="M205.68,274.9l2.285-6.4v5.971l-2.285,5.662Z" transform="translate(-105.69 -159.836)" fill="#fff" opacity="0.75"/>
          <path id="Path_2869" data-name="Path 2869" d="M203.617,267.988l-10.858-1.308-2.529,6.4,11.1,1.308Z" transform="translate(-101.342 -159.324)" fill="#fff" opacity="0.9"/>
          <path id="Path_2870" data-name="Path 2870" d="M277.78,291.548V286.46l10.793,1.279v5.088Z" transform="translate(-125.98 -164.891)" fill="#f4cb3c"/>
          <path id="Path_2871" data-name="Path 2871" d="M292.8,285.806l2.22-6.216v5.8l-2.22,5.5Z" transform="translate(-130.207 -162.957)" fill="#f4cb3c"/>
          <path id="Path_2872" data-name="Path 2872" d="M290.793,279.089l-10.556-1.279-2.458,6.216,10.793,1.279Z" transform="translate(-125.98 -162.456)" fill="#f4cb3c"/>
          <path id="Path_2873" data-name="Path 2873" d="M277.78,291.548V286.46l10.793,1.279v5.088Z" transform="translate(-125.98 -164.891)" fill="#fff" opacity="0.8"/>
          <path id="Path_2874" data-name="Path 2874" d="M292.8,285.806l2.22-6.216v5.8l-2.22,5.5Z" transform="translate(-130.207 -162.957)" fill="#fff" opacity="0.75"/>
          <path id="Path_2875" data-name="Path 2875" d="M290.793,279.089l-10.556-1.279-2.458,6.216,10.793,1.279Z" transform="translate(-125.98 -162.456)" fill="#fff" opacity="0.9"/>
          <path id="Path_2876" data-name="Path 2876" d="M297.21,293.788V288.7L308,289.979v5.08Z" transform="translate(-131.448 -165.521)" fill="#f4cb3c"/>
          <path id="Path_2877" data-name="Path 2877" d="M312.22,288.043l2.228-6.223v5.806l-2.228,5.5Z" transform="translate(-135.672 -163.585)" fill="#f4cb3c"/>
          <path id="Path_2878" data-name="Path 2878" d="M310.223,281.322l-10.556-1.272-2.458,6.216L308,287.545Z" transform="translate(-131.448 -163.087)" fill="#f4cb3c"/>
          <path id="Path_2879" data-name="Path 2879" d="M297.21,293.788V288.7L308,289.979v5.08Z" transform="translate(-131.448 -165.521)" fill="#fff" opacity="0.8"/>
          <path id="Path_2880" data-name="Path 2880" d="M312.22,288.043l2.228-6.223v5.806l-2.228,5.5Z" transform="translate(-135.672 -163.585)" fill="#fff" opacity="0.75"/>
          <path id="Path_2881" data-name="Path 2881" d="M310.223,281.322l-10.556-1.272-2.458,6.216L308,287.545Z" transform="translate(-131.448 -163.087)" fill="#fff" opacity="0.9"/>
          <path id="Path_2882" data-name="Path 2882" d="M117.51,270.178V265.09l10.793,1.279v5.088Z" transform="translate(-80.877 -158.877)" fill="#f4cb3c"/>
          <path id="Path_2883" data-name="Path 2883" d="M132.53,264.436l2.22-6.216v5.8l-2.22,5.5Z" transform="translate(-85.104 -156.943)" fill="#f4cb3c"/>
          <path id="Path_2884" data-name="Path 2884" d="M130.523,257.719l-10.556-1.279-2.458,6.216,10.793,1.279Z" transform="translate(-80.877 -156.442)" fill="#f4cb3c"/>
          <path id="Path_2885" data-name="Path 2885" d="M117.51,270.178V265.09l10.793,1.279v5.088Z" transform="translate(-80.877 -158.877)" fill="#fff" opacity="0.8"/>
          <path id="Path_2886" data-name="Path 2886" d="M132.53,264.436l2.22-6.216v5.8l-2.22,5.5Z" transform="translate(-85.104 -156.943)" fill="#fff" opacity="0.75"/>
          <path id="Path_2887" data-name="Path 2887" d="M130.523,257.719l-10.556-1.279-2.458,6.216,10.793,1.279Z" transform="translate(-80.877 -156.442)" fill="#fff" opacity="0.9"/>
          <path id="Path_2888" data-name="Path 2888" d="M136.94,272.418V267.33l10.793,1.279v5.08Z" transform="translate(-86.345 -159.507)" fill="#f4cb3c"/>
          <path id="Path_2889" data-name="Path 2889" d="M151.96,266.673l2.22-6.223v5.806l-2.22,5.5Z" transform="translate(-90.572 -157.571)" fill="#f4cb3c"/>
          <path id="Path_2890" data-name="Path 2890" d="M149.953,259.952,139.4,258.68,136.94,264.9l10.793,1.279Z" transform="translate(-86.345 -157.073)" fill="#f4cb3c"/>
          <path id="Path_2891" data-name="Path 2891" d="M136.94,272.418V267.33l10.793,1.279v5.08Z" transform="translate(-86.345 -159.507)" fill="#fff" opacity="0.8"/>
          <path id="Path_2892" data-name="Path 2892" d="M151.96,266.673l2.22-6.223v5.806l-2.22,5.5Z" transform="translate(-90.572 -157.571)" fill="#fff" opacity="0.75"/>
          <path id="Path_2893" data-name="Path 2893" d="M149.953,259.952,139.4,258.68,136.94,264.9l10.793,1.279Z" transform="translate(-86.345 -157.073)" fill="#fff" opacity="0.9"/>
          <path id="Path_2894" data-name="Path 2894" d="M156.37,274.65v-5.08l10.786,1.279v5.08Z" transform="translate(-91.813 -160.137)" fill="#f4cb3c"/>
          <path id="Path_2895" data-name="Path 2895" d="M171.38,268.913l2.228-6.223V268.5l-2.228,5.5Z" transform="translate(-96.037 -158.201)" fill="#f4cb3c"/>
          <path id="Path_2896" data-name="Path 2896" d="M169.383,262.192,158.82,260.92l-2.45,6.216,10.786,1.279Z" transform="translate(-91.813 -157.703)" fill="#f4cb3c"/>
          <path id="Path_2897" data-name="Path 2897" d="M156.37,274.65v-5.08l10.786,1.279v5.08Z" transform="translate(-91.813 -160.137)" fill="#fff" opacity="0.8"/>
          <path id="Path_2898" data-name="Path 2898" d="M171.38,268.913l2.228-6.223V268.5l-2.228,5.5Z" transform="translate(-96.037 -158.201)" fill="#fff" opacity="0.75"/>
          <path id="Path_2899" data-name="Path 2899" d="M169.383,262.192,158.82,260.92l-2.45,6.216,10.786,1.279Z" transform="translate(-91.813 -157.703)" fill="#fff" opacity="0.9"/>
          <path id="Path_2900" data-name="Path 2900" d="M350.25,248.275V245.25l9.148,1.078v3.025Z" transform="translate(-146.375 -153.293)" fill="#f4cb3c"/>
          <path id="Path_2901" data-name="Path 2901" d="M350.25,248.275V245.25l9.148,1.078v3.025Z" transform="translate(-146.375 -153.293)" fill="#fff" opacity="0.8"/>
          <path id="Path_2902" data-name="Path 2902" d="M362.98,245.213l1.337-3.923v3.679l-1.337,3.27Z" transform="translate(-149.957 -152.179)" fill="#f4cb3c"/>
          <path id="Path_2903" data-name="Path 2903" d="M362.98,245.213l1.337-3.923v3.679l-1.337,3.27Z" transform="translate(-149.957 -152.179)" fill="#fff" opacity="0.75"/>
          <path id="Path_2904" data-name="Path 2904" d="M360.734,240.871l-8.939-1.071-1.545,3.916,9.148,1.078Z" transform="translate(-146.375 -151.76)" fill="#f4cb3c"/>
          <path id="Path_2905" data-name="Path 2905" d="M360.734,240.871l-8.939-1.071-1.545,3.916,9.148,1.078Z" transform="translate(-146.375 -151.76)" fill="#fff" opacity="0.9"/>
          <path id="Path_2906" data-name="Path 2906" d="M259.99,336.538V331.45l10.793,1.279v5.088Z" transform="translate(-120.974 -177.552)" fill="#f4cb3c"/>
          <path id="Path_2907" data-name="Path 2907" d="M275.01,330.793l2.22-6.223v5.806l-2.22,5.5Z" transform="translate(-125.201 -175.616)" fill="#f4cb3c"/>
          <path id="Path_2908" data-name="Path 2908" d="M273,324.072,262.448,322.8l-2.458,6.216,10.793,1.279Z" transform="translate(-120.974 -175.118)" fill="#f4cb3c"/>
          <path id="Path_2909" data-name="Path 2909" d="M259.99,336.538V331.45l10.793,1.279v5.088Z" transform="translate(-120.974 -177.552)" fill="#fff" opacity="0.8"/>
          <path id="Path_2910" data-name="Path 2910" d="M275.01,330.793l2.22-6.223v5.806l-2.22,5.5Z" transform="translate(-125.201 -175.616)" fill="#fff" opacity="0.75"/>
          <path id="Path_2911" data-name="Path 2911" d="M273,324.072,262.448,322.8l-2.458,6.216,10.793,1.279Z" transform="translate(-120.974 -175.118)" fill="#fff" opacity="0.9"/>
          <path id="Path_2912" data-name="Path 2912" d="M278.73,338.77v-5.08l10.793,1.272v5.088Z" transform="translate(-126.247 -178.182)" fill="#f4cb3c"/>
          <path id="Path_2913" data-name="Path 2913" d="M293.75,333.026l2.228-6.216v5.8l-2.228,5.5Z" transform="translate(-130.474 -176.246)" fill="#f4cb3c"/>
          <path id="Path_2914" data-name="Path 2914" d="M291.751,326.312l-10.563-1.272-2.458,6.216,10.793,1.272Z" transform="translate(-126.247 -175.748)" fill="#f4cb3c"/>
          <path id="Path_2915" data-name="Path 2915" d="M278.73,338.77v-5.08l10.793,1.272v5.088Z" transform="translate(-126.247 -178.182)" fill="#fff" opacity="0.8"/>
          <path id="Path_2916" data-name="Path 2916" d="M293.75,333.026l2.228-6.216v5.8l-2.228,5.5Z" transform="translate(-130.474 -176.246)" fill="#fff" opacity="0.75"/>
          <path id="Path_2917" data-name="Path 2917" d="M291.751,326.312l-10.563-1.272-2.458,6.216,10.793,1.272Z" transform="translate(-126.247 -175.748)" fill="#fff" opacity="0.9"/>
          <path id="Path_2918" data-name="Path 2918" d="M212.55,360.25v-5.08l10.793,1.272v5.088Z" transform="translate(-107.623 -184.227)" fill="#f4cb3c"/>
          <path id="Path_2919" data-name="Path 2919" d="M227.57,354.506l2.22-6.216V354.1l-2.22,5.5Z" transform="translate(-111.85 -182.291)" fill="#f4cb3c"/>
          <path id="Path_2920" data-name="Path 2920" d="M225.563,347.789l-10.556-1.279-2.458,6.223L223.343,354Z" transform="translate(-107.623 -181.79)" fill="#f4cb3c"/>
          <path id="Path_2921" data-name="Path 2921" d="M212.55,360.25v-5.08l10.793,1.272v5.088Z" transform="translate(-107.623 -184.227)" fill="#fff" opacity="0.8"/>
          <path id="Path_2922" data-name="Path 2922" d="M227.57,354.506l2.22-6.216V354.1l-2.22,5.5Z" transform="translate(-111.85 -182.291)" fill="#fff" opacity="0.75"/>
          <path id="Path_2923" data-name="Path 2923" d="M225.563,347.789l-10.556-1.279-2.458,6.223L223.343,354Z" transform="translate(-107.623 -181.79)" fill="#fff" opacity="0.9"/>
          <path id="Path_2924" data-name="Path 2924" d="M231.29,362.488V357.4l10.793,1.279v5.08Z" transform="translate(-112.897 -184.855)" fill="#f4cb3c"/>
          <path id="Path_2925" data-name="Path 2925" d="M246.31,356.743l2.228-6.223v5.806l-2.228,5.5Z" transform="translate(-117.124 -182.918)" fill="#f4cb3c"/>
          <path id="Path_2926" data-name="Path 2926" d="M244.311,350.022l-10.563-1.272-2.458,6.216,10.793,1.279Z" transform="translate(-112.897 -182.42)" fill="#f4cb3c"/>
          <path id="Path_2927" data-name="Path 2927" d="M231.29,362.488V357.4l10.793,1.279v5.08Z" transform="translate(-112.897 -184.855)" fill="#fff" opacity="0.8"/>
          <path id="Path_2928" data-name="Path 2928" d="M246.31,356.743l2.228-6.223v5.806l-2.228,5.5Z" transform="translate(-117.124 -182.918)" fill="#fff" opacity="0.75"/>
          <path id="Path_2929" data-name="Path 2929" d="M244.311,350.022l-10.563-1.272-2.458,6.216,10.793,1.279Z" transform="translate(-112.897 -182.42)" fill="#fff" opacity="0.9"/>
          <path id="Path_2930" data-name="Path 2930" d="M345.25,326.658V321.57l10.786,1.279v5.08Z" transform="translate(-144.967 -174.771)" fill="#f4cb3c"/>
          <path id="Path_2931" data-name="Path 2931" d="M360.26,320.913l2.228-6.223V320.5l-2.228,5.5Z" transform="translate(-149.192 -172.835)" fill="#f4cb3c"/>
          <path id="Path_2932" data-name="Path 2932" d="M358.263,314.192,347.7,312.92l-2.45,6.216,10.786,1.279Z" transform="translate(-144.967 -172.337)" fill="#f4cb3c"/>
          <path id="Path_2933" data-name="Path 2933" d="M345.25,326.658V321.57l10.786,1.279v5.08Z" transform="translate(-144.967 -174.771)" fill="#fff" opacity="0.8"/>
          <path id="Path_2934" data-name="Path 2934" d="M360.26,320.913l2.228-6.223V320.5l-2.228,5.5Z" transform="translate(-149.192 -172.835)" fill="#fff" opacity="0.75"/>
          <path id="Path_2935" data-name="Path 2935" d="M358.263,314.192,347.7,312.92l-2.45,6.216,10.786,1.279Z" transform="translate(-144.967 -172.337)" fill="#fff" opacity="0.9"/>
          <path id="Path_2936" data-name="Path 2936" d="M339.36,341.238V336.15l10.786,1.279v5.088Z" transform="translate(-143.31 -178.874)" fill="#f4cb3c"/>
          <path id="Path_2937" data-name="Path 2937" d="M354.37,335.493l2.228-6.223v5.806l-2.228,5.5Z" transform="translate(-147.534 -176.938)" fill="#f4cb3c"/>
          <path id="Path_2938" data-name="Path 2938" d="M352.373,328.772,341.81,327.5l-2.45,6.216,10.786,1.279Z" transform="translate(-143.31 -176.44)" fill="#f4cb3c"/>
          <path id="Path_2939" data-name="Path 2939" d="M339.36,341.238V336.15l10.786,1.279v5.088Z" transform="translate(-143.31 -178.874)" fill="#fff" opacity="0.8"/>
          <path id="Path_2940" data-name="Path 2940" d="M354.37,335.493l2.228-6.223v5.806l-2.228,5.5Z" transform="translate(-147.534 -176.938)" fill="#fff" opacity="0.75"/>
          <path id="Path_2941" data-name="Path 2941" d="M352.373,328.772,341.81,327.5l-2.45,6.216,10.786,1.279Z" transform="translate(-143.31 -176.44)" fill="#fff" opacity="0.9"/>
          <path id="Path_2942" data-name="Path 2942" d="M333.46,355.818V350.73l10.793,1.279V357.1Z" transform="translate(-141.65 -182.978)" fill="#f4cb3c"/>
          <path id="Path_2943" data-name="Path 2943" d="M348.48,350.073l2.228-6.223v5.806l-2.228,5.5Z" transform="translate(-145.876 -181.041)" fill="#f4cb3c"/>
          <path id="Path_2944" data-name="Path 2944" d="M346.481,343.352l-10.563-1.272L333.46,348.3l10.793,1.279Z" transform="translate(-141.65 -180.543)" fill="#f4cb3c"/>
          <path id="Path_2945" data-name="Path 2945" d="M333.46,355.818V350.73l10.793,1.279V357.1Z" transform="translate(-141.65 -182.978)" fill="#fff" opacity="0.8"/>
          <path id="Path_2946" data-name="Path 2946" d="M348.48,350.073l2.228-6.223v5.806l-2.228,5.5Z" transform="translate(-145.876 -181.041)" fill="#fff" opacity="0.75"/>
          <path id="Path_2947" data-name="Path 2947" d="M346.481,343.352l-10.563-1.272L333.46,348.3l10.793,1.279Z" transform="translate(-141.65 -180.543)" fill="#fff" opacity="0.9"/>
          <path id="Path_2948" data-name="Path 2948" d="M327.57,370.4v-5.08l10.793,1.272v5.088Z" transform="translate(-139.992 -187.083)" fill="#f4cb3c"/>
          <path id="Path_2949" data-name="Path 2949" d="M342.59,364.656l2.228-6.216v5.8l-2.228,5.5Z" transform="translate(-144.219 -185.147)" fill="#f4cb3c"/>
          <path id="Path_2950" data-name="Path 2950" d="M340.591,357.939l-10.563-1.279-2.458,6.223,10.793,1.272Z" transform="translate(-139.992 -184.646)" fill="#f4cb3c"/>
          <path id="Path_2951" data-name="Path 2951" d="M327.57,370.4v-5.08l10.793,1.272v5.088Z" transform="translate(-139.992 -187.083)" fill="#fff" opacity="0.8"/>
          <path id="Path_2952" data-name="Path 2952" d="M342.59,364.656l2.228-6.216v5.8l-2.228,5.5Z" transform="translate(-144.219 -185.147)" fill="#fff" opacity="0.75"/>
          <path id="Path_2953" data-name="Path 2953" d="M340.591,357.939l-10.563-1.279-2.458,6.223,10.793,1.272Z" transform="translate(-139.992 -184.646)" fill="#fff" opacity="0.9"/>
          <path id="Path_2954" data-name="Path 2954" d="M319.75,323.69v-5.08l10.793,1.272v5.088Z" transform="translate(-137.791 -173.938)" fill="#f4cb3c"/>
          <path id="Path_2955" data-name="Path 2955" d="M334.77,317.946,337,311.73v5.8l-2.228,5.5Z" transform="translate(-142.018 -172.002)" fill="#f4cb3c"/>
          <path id="Path_2956" data-name="Path 2956" d="M332.771,311.229l-10.563-1.279-2.458,6.223,10.793,1.272Z" transform="translate(-137.791 -171.501)" fill="#f4cb3c"/>
          <path id="Path_2957" data-name="Path 2957" d="M319.75,323.69v-5.08l10.793,1.272v5.088Z" transform="translate(-137.791 -173.938)" fill="#fff" opacity="0.8"/>
          <path id="Path_2958" data-name="Path 2958" d="M334.77,317.946,337,311.73v5.8l-2.228,5.5Z" transform="translate(-142.018 -172.002)" fill="#fff" opacity="0.75"/>
          <path id="Path_2959" data-name="Path 2959" d="M332.771,311.229l-10.563-1.279-2.458,6.223,10.793,1.272Z" transform="translate(-137.791 -171.501)" fill="#fff" opacity="0.9"/>
          <path id="Path_2960" data-name="Path 2960" d="M313.86,338.27v-5.08l10.793,1.272v5.088Z" transform="translate(-136.134 -178.041)" fill="#f4cb3c"/>
          <path id="Path_2961" data-name="Path 2961" d="M328.88,332.526l2.228-6.216v5.806l-2.228,5.5Z" transform="translate(-140.361 -176.105)" fill="#f4cb3c"/>
          <path id="Path_2962" data-name="Path 2962" d="M326.881,325.812l-10.563-1.272-2.458,6.216,10.793,1.272Z" transform="translate(-136.134 -175.607)" fill="#f4cb3c"/>
          <path id="Path_2963" data-name="Path 2963" d="M313.86,338.27v-5.08l10.793,1.272v5.088Z" transform="translate(-136.134 -178.041)" fill="#fff" opacity="0.8"/>
          <path id="Path_2964" data-name="Path 2964" d="M328.88,332.526l2.228-6.216v5.806l-2.228,5.5Z" transform="translate(-140.361 -176.105)" fill="#fff" opacity="0.75"/>
          <path id="Path_2965" data-name="Path 2965" d="M326.881,325.812l-10.563-1.272-2.458,6.216,10.793,1.272Z" transform="translate(-136.134 -175.607)" fill="#fff" opacity="0.9"/>
          <path id="Path_2966" data-name="Path 2966" d="M307.97,352.858V347.77l10.793,1.279v5.08Z" transform="translate(-134.476 -182.145)" fill="#f4cb3c"/>
          <path id="Path_2967" data-name="Path 2967" d="M322.99,347.113l2.228-6.223V346.7l-2.228,5.5Z" transform="translate(-138.703 -180.208)" fill="#f4cb3c"/>
          <path id="Path_2968" data-name="Path 2968" d="M320.991,340.392l-10.563-1.272-2.458,6.216,10.793,1.279Z" transform="translate(-134.476 -179.71)" fill="#f4cb3c"/>
          <path id="Path_2969" data-name="Path 2969" d="M307.97,352.858V347.77l10.793,1.279v5.08Z" transform="translate(-134.476 -182.145)" fill="#fff" opacity="0.8"/>
          <path id="Path_2970" data-name="Path 2970" d="M322.99,347.113l2.228-6.223V346.7l-2.228,5.5Z" transform="translate(-138.703 -180.208)" fill="#fff" opacity="0.75"/>
          <path id="Path_2971" data-name="Path 2971" d="M320.991,340.392l-10.563-1.272-2.458,6.216,10.793,1.279Z" transform="translate(-134.476 -179.71)" fill="#fff" opacity="0.9"/>
          <path id="Path_2972" data-name="Path 2972" d="M302.08,367.438V362.35l10.793,1.279v5.08Z" transform="translate(-132.819 -186.248)" fill="#f4cb3c"/>
          <path id="Path_2973" data-name="Path 2973" d="M317.1,361.693l2.228-6.223v5.806l-2.228,5.5Z" transform="translate(-137.046 -184.312)" fill="#f4cb3c"/>
          <path id="Path_2974" data-name="Path 2974" d="M315.1,354.972,304.538,353.7l-2.458,6.216,10.793,1.279Z" transform="translate(-132.819 -183.813)" fill="#f4cb3c"/>
          <path id="Path_2975" data-name="Path 2975" d="M302.08,367.438V362.35l10.793,1.279v5.08Z" transform="translate(-132.819 -186.248)" fill="#fff" opacity="0.8"/>
          <path id="Path_2976" data-name="Path 2976" d="M317.1,361.693l2.228-6.223v5.806l-2.228,5.5Z" transform="translate(-137.046 -184.312)" fill="#fff" opacity="0.75"/>
          <path id="Path_2977" data-name="Path 2977" d="M315.1,354.972,304.538,353.7l-2.458,6.216,10.793,1.279Z" transform="translate(-132.819 -183.813)" fill="#fff" opacity="0.9"/>
          <path id="Path_2978" data-name="Path 2978" d="M370.13,350.785v-4l8.494,1.006v4Z" transform="translate(-151.969 -181.869)" fill="#f4cb3c"/>
          <path id="Path_2979" data-name="Path 2979" d="M381.95,346.274l1.746-4.894v4.563l-1.746,4.326Z" transform="translate(-155.296 -180.346)" fill="#f4cb3c"/>
          <path id="Path_2980" data-name="Path 2980" d="M380.37,340.986l-8.307-1.006-1.933,4.894,8.494,1.006Z" transform="translate(-151.969 -179.952)" fill="#f4cb3c"/>
          <path id="Path_2981" data-name="Path 2981" d="M370.13,350.785v-4l8.494,1.006v4Z" transform="translate(-151.969 -181.869)" fill="#fff" opacity="0.8"/>
          <path id="Path_2982" data-name="Path 2982" d="M381.95,346.274l1.746-4.894v4.563l-1.746,4.326Z" transform="translate(-155.296 -180.346)" fill="#fff" opacity="0.75"/>
          <path id="Path_2983" data-name="Path 2983" d="M380.37,340.986l-8.307-1.006-1.933,4.894,8.494,1.006Z" transform="translate(-151.969 -179.952)" fill="#fff" opacity="0.9"/>
          <path id="Path_2984" data-name="Path 2984" d="M364.23,367.182v-4l8.486,1.006v4Z" transform="translate(-150.309 -186.481)" fill="#f4cb3c"/>
          <path id="Path_2985" data-name="Path 2985" d="M376.04,362.664l1.753-4.894v4.563l-1.753,4.326Z" transform="translate(-153.632 -184.959)" fill="#f4cb3c"/>
          <path id="Path_2986" data-name="Path 2986" d="M374.47,357.376l-8.307-1.006-1.933,4.894,8.486,1.006Z" transform="translate(-150.309 -184.565)" fill="#f4cb3c"/>
          <path id="Path_2987" data-name="Path 2987" d="M364.23,367.182v-4l8.486,1.006v4Z" transform="translate(-150.309 -186.481)" fill="#fff" opacity="0.8"/>
          <path id="Path_2988" data-name="Path 2988" d="M376.04,362.664l1.753-4.894v4.563l-1.753,4.326Z" transform="translate(-153.632 -184.959)" fill="#fff" opacity="0.75"/>
          <path id="Path_2989" data-name="Path 2989" d="M374.47,357.376l-8.307-1.006-1.933,4.894,8.486,1.006Z" transform="translate(-150.309 -184.565)" fill="#fff" opacity="0.9"/>
          <path id="Path_2990" data-name="Path 2990" d="M237.38,328.137V309.08l13.38,1.581v19.05Z" transform="translate(-114.611 -171.256)" fill="#f4cb3c"/>
          <path id="Path_2991" data-name="Path 2991" d="M237.38,328.137V309.08l13.38,1.581v19.05Z" transform="translate(-114.611 -171.256)" fill="#fff" opacity="0.8"/>
          <path id="Path_2992" data-name="Path 2992" d="M256,309.459l1.732-4.649v20.005L256,328.509Z" transform="translate(-119.851 -170.055)" fill="#f4cb3c"/>
          <path id="Path_2993" data-name="Path 2993" d="M256,309.459l1.732-4.649v20.005L256,328.509Z" transform="translate(-119.851 -170.055)" fill="#fff" opacity="0.75"/>
          <path id="Path_2994" data-name="Path 2994" d="M252.492,304.2l-13.071-1.566-2.041,4.635,13.38,1.581Z" transform="translate(-114.611 -169.441)" fill="#f4cb3c"/>
          <path id="Path_2995" data-name="Path 2995" d="M252.492,304.2l-13.071-1.566-2.041,4.635,13.38,1.581Z" transform="translate(-114.611 -169.441)" fill="#fff" opacity="0.9"/>
          <path id="Path_2996" data-name="Path 2996" d="M143.26,237.645V215.11l7.71.862V238.5Z" transform="translate(-88.123 -144.811)" fill="#f4cb3c"/>
          <path id="Path_2997" data-name="Path 2997" d="M143.26,237.645V215.11l7.71.862V238.5Z" transform="translate(-88.123 -144.811)" fill="#fff" opacity="0.8"/>
          <path id="Path_2998" data-name="Path 2998" d="M153.99,214.489l1.732-4.649v23.483l-1.732,3.693Z" transform="translate(-91.143 -143.328)" fill="#f4cb3c"/>
          <path id="Path_2999" data-name="Path 2999" d="M153.99,214.489l1.732-4.649v23.483l-1.732,3.693Z" transform="translate(-91.143 -143.328)" fill="#fff" opacity="0.75"/>
          <path id="Path_3000" data-name="Path 3000" d="M152.7,209.508l-7.4-.848-2.041,4.635,7.71.862Z" transform="translate(-88.123 -142.996)" fill="#f4cb3c"/>
          <path id="Path_3001" data-name="Path 3001" d="M152.7,209.508l-7.4-.848-2.041,4.635,7.71.862Z" transform="translate(-88.123 -142.996)" fill="#fff" opacity="0.9"/>
          <path id="Path_3002" data-name="Path 3002" d="M155.19,237.589V217.72l4.082.438v19.876Z" transform="translate(-91.481 -145.546)" fill="#f4cb3c"/>
          <path id="Path_3003" data-name="Path 3003" d="M155.19,237.589V217.72l4.082.438v19.876Z" transform="translate(-91.481 -145.546)" fill="#fff" opacity="0.8"/>
          <path id="Path_3004" data-name="Path 3004" d="M160.87,217.534l.64-2.034v20.681l-.64,1.229Z" transform="translate(-93.079 -144.921)" fill="#f4cb3c"/>
          <path id="Path_3005" data-name="Path 3005" d="M160.87,217.534l.64-2.034v20.681l-.64,1.229Z" transform="translate(-93.079 -144.921)" fill="#fff" opacity="0.75"/>
          <path id="Path_3006" data-name="Path 3006" d="M159.911,215.328l-3.823-.438-.9,2.034,4.082.438Z" transform="translate(-91.481 -144.749)" fill="#f4cb3c"/>
          <path id="Path_3007" data-name="Path 3007" d="M159.911,215.328l-3.823-.438-.9,2.034,4.082.438Z" transform="translate(-91.481 -144.749)" fill="#fff" opacity="0.9"/>
          <path id="Path_3008" data-name="Path 3008" d="M215.12,325.487V306.43L228.5,308V327.06Z" transform="translate(-108.346 -170.511)" fill="#f4cb3c"/>
          <path id="Path_3009" data-name="Path 3009" d="M215.12,325.487V306.43L228.5,308V327.06Z" transform="translate(-108.346 -170.511)" fill="#fff" opacity="0.8"/>
          <path id="Path_3010" data-name="Path 3010" d="M233.74,306.8l1.739-4.642v20.005l-1.739,3.694Z" transform="translate(-113.586 -169.309)" fill="#f4cb3c"/>
          <path id="Path_3011" data-name="Path 3011" d="M233.74,306.8l1.739-4.642v20.005l-1.739,3.694Z" transform="translate(-113.586 -169.309)" fill="#fff" opacity="0.75"/>
          <path id="Path_3012" data-name="Path 3012" d="M230.239,301.547l-13.071-1.566-2.048,4.635,13.38,1.574Z" transform="translate(-108.346 -168.695)" fill="#f4cb3c"/>
          <path id="Path_3013" data-name="Path 3013" d="M230.239,301.547l-13.071-1.566-2.048,4.635,13.38,1.574Z" transform="translate(-108.346 -168.695)" fill="#fff" opacity="0.9"/>
          <path id="Path_3014" data-name="Path 3014" d="M166.21,247.226V241.52l12.094,1.43v5.706Z" transform="translate(-94.582 -152.244)" fill="#f4cb3c"/>
          <path id="Path_3015" data-name="Path 3015" d="M183.04,240.78l2.5-6.97v6.51l-2.5,6.165Z" transform="translate(-99.318 -150.074)" fill="#f4cb3c"/>
          <path id="Path_3016" data-name="Path 3016" d="M180.8,233.25l-11.842-1.43-2.752,6.97,12.094,1.43Z" transform="translate(-94.582 -149.514)" fill="#f4cb3c"/>
          <path id="Path_3017" data-name="Path 3017" d="M166.21,247.226V241.52l12.094,1.43v5.706Z" transform="translate(-94.582 -152.244)" fill="#fff" opacity="0.8"/>
          <path id="Path_3018" data-name="Path 3018" d="M183.04,240.78l2.5-6.97v6.51l-2.5,6.165Z" transform="translate(-99.318 -150.074)" fill="#fff" opacity="0.75"/>
          <path id="Path_3019" data-name="Path 3019" d="M180.8,233.25l-11.842-1.43-2.752,6.97,12.094,1.43Z" transform="translate(-94.582 -149.514)" fill="#fff" opacity="0.9"/>
          <path id="Path_3020" data-name="Path 3020" d="M145.408,304.69l-8.666,5L129.8,305.71l9.112-5.26Z" transform="translate(-84.335 -168.828)" fill="#f4cb3c"/>
          <path id="Path_3021" data-name="Path 3021" d="M145.408,304.69l-8.666,5L129.8,305.71l9.112-5.26Z" transform="translate(-84.335 -168.828)" fill="#fff" opacity="0.9"/>
          <path id="Path_3022" data-name="Path 3022" d="M129.8,311.895V307.77l6.941,3.981V315.9Z" transform="translate(-84.335 -170.888)" fill="#f4cb3c"/>
          <path id="Path_3023" data-name="Path 3023" d="M129.8,311.895V307.77l6.941,3.981V315.9Z" transform="translate(-84.335 -170.888)" fill="#fff" opacity="0.8"/>
          <path id="Path_3024" data-name="Path 3024" d="M148.126,306.35V310.5l-8.666,5v-4.146Z" transform="translate(-87.054 -170.488)" fill="#f4cb3c"/>
          <path id="Path_3025" data-name="Path 3025" d="M148.126,306.35V310.5l-8.666,5v-4.146Z" transform="translate(-87.054 -170.488)" fill="#fff" opacity="0.75"/>
          <path id="Path_3026" data-name="Path 3026" d="M158.89,312.642l-8.666,5-6.934-3.981,9.112-5.253Z" transform="translate(-88.132 -171.068)" fill="#f4cb3c"/>
          <path id="Path_3027" data-name="Path 3027" d="M158.89,312.642l-8.666,5-6.934-3.981,9.112-5.253Z" transform="translate(-88.132 -171.068)" fill="#fff" opacity="0.9"/>
          <path id="Path_3028" data-name="Path 3028" d="M143.29,319.845V315.72l6.934,3.981v4.146Z" transform="translate(-88.132 -173.125)" fill="#f4cb3c"/>
          <path id="Path_3029" data-name="Path 3029" d="M143.29,319.845V315.72l6.934,3.981v4.146Z" transform="translate(-88.132 -173.125)" fill="#fff" opacity="0.8"/>
          <path id="Path_3030" data-name="Path 3030" d="M161.606,314.3v4.146l-8.666,5V319.3Z" transform="translate(-90.848 -172.725)" fill="#f4cb3c"/>
          <path id="Path_3031" data-name="Path 3031" d="M161.606,314.3v4.146l-8.666,5V319.3Z" transform="translate(-90.848 -172.725)" fill="#fff" opacity="0.75"/>
          <path id="Path_3032" data-name="Path 3032" d="M172.648,320.52l-8.666,4.994-6.941-3.974,9.112-5.26Z" transform="translate(-92.001 -173.283)" fill="#f4cb3c"/>
          <path id="Path_3033" data-name="Path 3033" d="M172.648,320.52l-8.666,4.994-6.941-3.974,9.112-5.26Z" transform="translate(-92.001 -173.283)" fill="#fff" opacity="0.9"/>
          <path id="Path_3034" data-name="Path 3034" d="M157.04,327.717V323.6l6.941,3.974v4.153Z" transform="translate(-92.001 -175.343)" fill="#f4cb3c"/>
          <path id="Path_3035" data-name="Path 3035" d="M157.04,327.717V323.6l6.941,3.974v4.153Z" transform="translate(-92.001 -175.343)" fill="#fff" opacity="0.8"/>
          <path id="Path_3036" data-name="Path 3036" d="M175.366,322.18v4.146l-8.666,5v-4.153Z" transform="translate(-94.72 -174.943)" fill="#f4cb3c"/>
          <path id="Path_3037" data-name="Path 3037" d="M175.366,322.18v4.146l-8.666,5v-4.153Z" transform="translate(-94.72 -174.943)" fill="#fff" opacity="0.75"/>
          <path id="Path_3038" data-name="Path 3038" d="M192.168,324.072l-8.666,5-6.941-3.981,9.112-5.253Z" transform="translate(-97.495 -174.285)" fill="#f4cb3c"/>
          <path id="Path_3039" data-name="Path 3039" d="M192.168,324.072l-8.666,5-6.941-3.981,9.112-5.253Z" transform="translate(-97.495 -174.285)" fill="#fff" opacity="0.9"/>
          <path id="Path_3040" data-name="Path 3040" d="M176.56,337.074V327.15l6.941,3.981v9.952Z" transform="translate(-97.495 -176.342)" fill="#f4cb3c"/>
          <path id="Path_3041" data-name="Path 3041" d="M176.56,337.074V327.15l6.941,3.981v9.952Z" transform="translate(-97.495 -176.342)" fill="#fff" opacity="0.8"/>
          <path id="Path_3042" data-name="Path 3042" d="M194.886,325.73v9.945l-8.666,5.008v-9.952Z" transform="translate(-100.213 -175.942)" fill="#f4cb3c"/>
          <path id="Path_3043" data-name="Path 3043" d="M194.886,325.73v9.945l-8.666,5.008v-9.952Z" transform="translate(-100.213 -175.942)" fill="#fff" opacity="0.75"/>
          <path id="Path_3044" data-name="Path 3044" d="M119.773,291.6l-9.392,3.514-6.941-3.974,9.845-3.773Z" transform="translate(-76.917 -165.147)" fill="#f4cb3c"/>
          <path id="Path_3045" data-name="Path 3045" d="M119.773,291.6l-9.392,3.514-6.941-3.974,9.845-3.773Z" transform="translate(-76.917 -165.147)" fill="#fff" opacity="0.9"/>
          <path id="Path_3046" data-name="Path 3046" d="M103.44,296.737V292.62l6.941,3.974v4.153Z" transform="translate(-76.917 -166.624)" fill="#f4cb3c"/>
          <path id="Path_3047" data-name="Path 3047" d="M103.44,296.737V292.62l6.941,3.974v4.153Z" transform="translate(-76.917 -166.624)" fill="#fff" opacity="0.8"/>
          <path id="Path_3048" data-name="Path 3048" d="M122.492,293.26v4.146l-9.392,3.521v-4.153Z" transform="translate(-79.636 -166.804)" fill="#f4cb3c"/>
          <path id="Path_3049" data-name="Path 3049" d="M122.492,293.26v4.146l-9.392,3.521v-4.153Z" transform="translate(-79.636 -166.804)" fill="#fff" opacity="0.75"/>
          <path id="Path_3050" data-name="Path 3050" d="M140.73,283.6l-9.4,3.521-6.941-3.981,9.845-3.773Z" transform="translate(-82.813 -162.895)" fill="#f4cb3c"/>
          <path id="Path_3051" data-name="Path 3051" d="M140.73,283.6l-9.4,3.521-6.941-3.981,9.845-3.773Z" transform="translate(-82.813 -162.895)" fill="#fff" opacity="0.9"/>
          <path id="Path_3052" data-name="Path 3052" d="M124.39,288.745V284.62l6.941,3.981v4.146Z" transform="translate(-82.813 -164.373)" fill="#f4cb3c"/>
          <path id="Path_3053" data-name="Path 3053" d="M124.39,288.745V284.62l6.941,3.981v4.146Z" transform="translate(-82.813 -164.373)" fill="#fff" opacity="0.8"/>
          <path id="Path_3054" data-name="Path 3054" d="M143.449,285.26v4.153l-9.4,3.514v-4.146Z" transform="translate(-85.532 -164.553)" fill="#f4cb3c"/>
          <path id="Path_3055" data-name="Path 3055" d="M143.449,285.26v4.153l-9.4,3.514v-4.146Z" transform="translate(-85.532 -164.553)" fill="#fff" opacity="0.75"/>
          <path id="Path_3056" data-name="Path 3056" d="M226.48,254.207V248.2l17.562,2.07v6.007Z" transform="translate(-111.543 -154.124)" fill="#f4cb3c"/>
          <path id="Path_3057" data-name="Path 3057" d="M226.48,254.207V248.2l17.562,2.07v6.007Z" transform="translate(-111.543 -154.124)" fill="#fff" opacity="0.75"/>
          <path id="Path_3058" data-name="Path 3058" d="M250.92,247.013l3.708-10.383v7.215l-3.708,9.176Z" transform="translate(-118.421 -150.868)" fill="#f4cb3c"/>
          <path id="Path_3059" data-name="Path 3059" d="M250.92,247.013l3.708-10.383v7.215l-3.708,9.176Z" transform="translate(-118.421 -150.868)" fill="#fff" opacity="0.65"/>
          <path id="Path_3060" data-name="Path 3060" d="M247.75,235.82l-17.174-2.07-4.1,10.383,17.562,2.069Z" transform="translate(-111.543 -150.057)" fill="#f4cb3c"/>
          <path id="Path_3061" data-name="Path 3061" d="M247.75,235.82l-17.174-2.07-4.1,10.383,17.562,2.069Z" transform="translate(-111.543 -150.057)" fill="#fff" opacity="0.9"/>
          <path id="Path_3062" data-name="Path 3062" d="M229.62,234.644v-29.3l13.754,1.617v29.3Z" transform="translate(-112.427 -142.062)" fill="#f4cb3c"/>
          <path id="Path_3063" data-name="Path 3063" d="M229.62,234.644v-29.3l13.754,1.617v29.3Z" transform="translate(-112.427 -142.062)" fill="#fff" opacity="0.75"/>
          <path id="Path_3064" data-name="Path 3064" d="M248.76,204.3l3-8.407v30.274l-3,7.437Z" transform="translate(-117.813 -139.402)" fill="#f4cb3c"/>
          <path id="Path_3065" data-name="Path 3065" d="M248.76,204.3l3-8.407v30.274l-3,7.437Z" transform="translate(-117.813 -139.402)" fill="#fff" opacity="0.65"/>
          <path id="Path_3066" data-name="Path 3066" d="M246.377,195.257,232.94,193.64l-3.32,8.407,13.754,1.617Z" transform="translate(-112.427 -138.769)" fill="#f4cb3c"/>
          <path id="Path_3067" data-name="Path 3067" d="M246.377,195.257,232.94,193.64l-3.32,8.407,13.754,1.617Z" transform="translate(-112.427 -138.769)" fill="#fff" opacity="0.9"/>
          <path id="Path_3068" data-name="Path 3068" d="M235.59,196.454V180.48l7.5.884v15.974Z" transform="translate(-114.107 -135.066)" fill="#f4cb3c"/>
          <path id="Path_3069" data-name="Path 3069" d="M235.59,196.454V180.48l7.5.884v15.974Z" transform="translate(-114.107 -135.066)" fill="#fff" opacity="0.75"/>
          <path id="Path_3070" data-name="Path 3070" d="M246.03,179.915l1.638-4.585v16.506l-1.638,4.053Z" transform="translate(-117.045 -133.616)" fill="#f4cb3c"/>
          <path id="Path_3071" data-name="Path 3071" d="M246.03,179.915l1.638-4.585v16.506l-1.638,4.053Z" transform="translate(-117.045 -133.616)" fill="#fff" opacity="0.65"/>
          <path id="Path_3072" data-name="Path 3072" d="M244.73,174.984l-7.337-.884-1.8,4.585,7.5.884Z" transform="translate(-114.107 -133.27)" fill="#f4cb3c"/>
          <path id="Path_3073" data-name="Path 3073" d="M244.73,174.984l-7.337-.884-1.8,4.585,7.5.884Z" transform="translate(-114.107 -133.27)" fill="#fff" opacity="0.9"/>
          <path id="Path_3074" data-name="Path 3074" d="M346.28,297.136V250.96l13.761,1.617v46.176Z" transform="translate(-145.257 -154.9)" fill="#f4cb3c"/>
          <path id="Path_3075" data-name="Path 3075" d="M346.28,297.136V250.96l13.761,1.617v46.176Z" transform="translate(-145.257 -154.9)" fill="#fff" opacity="0.75"/>
          <path id="Path_3076" data-name="Path 3076" d="M365.43,250.905l2.012-5.885v47.146l-2.012,4.915Z" transform="translate(-150.647 -153.229)" fill="#f4cb3c"/>
          <path id="Path_3077" data-name="Path 3077" d="M365.43,250.905l2.012-5.885v47.146l-2.012,4.915Z" transform="translate(-150.647 -153.229)" fill="#fff" opacity="0.65"/>
          <path id="Path_3078" data-name="Path 3078" d="M362.053,244.387l-13.445-1.617-2.328,5.885,13.761,1.617Z" transform="translate(-145.257 -152.595)" fill="#f4cb3c"/>
          <path id="Path_3079" data-name="Path 3079" d="M362.053,244.387l-13.445-1.617-2.328,5.885,13.761,1.617Z" transform="translate(-145.257 -152.595)" fill="#fff" opacity="0.9"/>
          <path id="Path_3080" data-name="Path 3080" d="M377.26,318.975V276.22l11.993,1.329v42.763Z" transform="translate(-153.976 -162.009)" fill="#f4cb3c"/>
          <path id="Path_3081" data-name="Path 3081" d="M377.26,318.975V276.22l11.993,1.329v42.763Z" transform="translate(-153.976 -162.009)" fill="#fff" opacity="0.75"/>
          <path id="Path_3082" data-name="Path 3082" d="M393.95,275.242l2.7-7.222v44.236L393.95,318Z" transform="translate(-158.673 -159.701)" fill="#f4cb3c"/>
          <path id="Path_3083" data-name="Path 3083" d="M393.95,275.242l2.7-7.222v44.236L393.95,318Z" transform="translate(-158.673 -159.701)" fill="#fff" opacity="0.65"/>
          <path id="Path_3084" data-name="Path 3084" d="M391.955,267.5l-11.519-1.329-3.176,7.222,11.993,1.329Z" transform="translate(-153.976 -159.181)" fill="#f4cb3c"/>
          <path id="Path_3085" data-name="Path 3085" d="M391.955,267.5l-11.519-1.329-3.176,7.222,11.993,1.329Z" transform="translate(-153.976 -159.181)" fill="#fff" opacity="0.9"/>
          <path id="Path_3086" data-name="Path 3086" d="M395.83,318.9V280.28l6.352.683v38.616Z" transform="translate(-159.202 -163.152)" fill="#f4cb3c"/>
          <path id="Path_3087" data-name="Path 3087" d="M395.83,318.9V280.28l6.352.683v38.616Z" transform="translate(-159.202 -163.152)" fill="#fff" opacity="0.75"/>
          <path id="Path_3088" data-name="Path 3088" d="M404.67,279.989l.984-3.169v39.888l-.984,1.9Z" transform="translate(-161.689 -162.178)" fill="#f4cb3c"/>
          <path id="Path_3089" data-name="Path 3089" d="M404.67,279.989l.984-3.169v39.888l-.984,1.9Z" transform="translate(-161.689 -162.178)" fill="#fff" opacity="0.65"/>
          <path id="Path_3090" data-name="Path 3090" d="M403.167,276.555l-5.943-.675-1.394,3.162,6.352.683Z" transform="translate(-159.202 -161.913)" fill="#f4cb3c"/>
          <path id="Path_3091" data-name="Path 3091" d="M403.167,276.555l-5.943-.675-1.394,3.162,6.352.683Z" transform="translate(-159.202 -161.913)" fill="#fff" opacity="0.9"/>
          <path id="Path_3092" data-name="Path 3092" d="M66.53,270.17l17.519,10.11v5.5L66.53,275.667Z" transform="translate(-66.53 -160.306)" fill="#f4cb3c"/>
          <path id="Path_3093" data-name="Path 3093" d="M66.53,270.17l17.519,10.11v5.5L66.53,275.667Z" transform="translate(-66.53 -160.306)" opacity="0.35"/>
          <path id="Path_3094" data-name="Path 3094" d="M108.422,275.667v-5.5L90.91,280.28v5.5" transform="translate(-73.391 -160.306)" fill="#f4cb3c"/>
          <path id="Path_3095" data-name="Path 3095" d="M108.422,270.17,90.91,280.28v5.5l17.512-10.11Z" transform="translate(-73.391 -160.306)" opacity="0.15"/>
          <path id="Path_3096" data-name="Path 3096" d="M101.561,266.21,84.049,256.1,66.53,266.21l17.519,10.11Z" transform="translate(-66.53 -156.347)" fill="#f4cb3c"/>
          <path id="Path_3097" data-name="Path 3097" d="M101.561,266.21,84.049,256.1,66.53,266.21l17.519,10.11Z" transform="translate(-66.53 -156.347)" opacity="0.5"/>
          <path id="Path_3098" data-name="Path 3098" d="M66.53,268.331l17.519,10.11V276.76L66.53,266.65Z" transform="translate(-66.53 -159.316)" fill="#f4cb3c"/>
          <path id="Path_3099" data-name="Path 3099" d="M66.53,268.331l17.519,10.11V276.76L66.53,266.65Z" transform="translate(-66.53 -159.316)" opacity="0.35"/>
          <path id="Path_3100" data-name="Path 3100" d="M90.91,278.442l17.512-10.11V266.65L90.91,276.76Z" transform="translate(-73.391 -159.316)" fill="#f4cb3c"/>
          <path id="Path_3101" data-name="Path 3101" d="M90.91,278.442l17.512-10.11V266.65L90.91,276.76Z" transform="translate(-73.391 -159.316)" opacity="0.15"/>
          <path id="Path_3102" data-name="Path 3102" d="M101.561,262.69,84.049,252.58,66.53,262.69,84.049,272.8Z" transform="translate(-66.53 -155.356)" fill="#f4cb3c"/>
          <path id="Path_3103" data-name="Path 3103" d="M101.561,262.69,84.049,252.58,66.53,262.69,84.049,272.8Z" transform="translate(-66.53 -155.356)" opacity="0.5"/>
          <path id="Path_3104" data-name="Path 3104" d="M66.53,264.551l17.519,10.11V272.98L66.53,262.87Z" transform="translate(-66.53 -158.252)" fill="#f4cb3c"/>
          <path id="Path_3105" data-name="Path 3105" d="M66.53,264.551l17.519,10.11V272.98L66.53,262.87Z" transform="translate(-66.53 -158.252)" opacity="0.35"/>
          <path id="Path_3106" data-name="Path 3106" d="M90.91,274.662l17.512-10.11V262.87L90.91,272.98Z" transform="translate(-73.391 -158.252)" fill="#f4cb3c"/>
          <path id="Path_3107" data-name="Path 3107" d="M90.91,274.662l17.512-10.11V262.87L90.91,272.98Z" transform="translate(-73.391 -158.252)" opacity="0.15"/>
          <path id="Path_3108" data-name="Path 3108" d="M101.561,258.91,84.049,248.8,66.53,258.91l17.519,10.11Z" transform="translate(-66.53 -154.292)" fill="#f4cb3c"/>
          <path id="Path_3109" data-name="Path 3109" d="M101.561,258.91,84.049,248.8,66.53,258.91l17.519,10.11Z" transform="translate(-66.53 -154.292)" opacity="0.5"/>
          <path id="Path_3110" data-name="Path 3110" d="M85.194,254.375V211.922L70.6,203.5v42.447Z" transform="translate(-67.675 -141.544)" fill="#f4cb3c"/>
          <path id="Path_3111" data-name="Path 3111" d="M90.91,211.922,105.5,203.5v42.447L90.91,254.375Z" transform="translate(-73.391 -141.544)" fill="#f4cb3c"/>
          <path id="Path_3112" data-name="Path 3112" d="M99.789,200.2,85.194,191.77,70.6,200.2l14.594,8.422Z" transform="translate(-67.675 -138.243)" fill="#f4cb3c"/>
          <path id="Path_3113" data-name="Path 3113" d="M99.789,200.2,85.194,191.77,70.6,200.2l14.594,8.422Z" transform="translate(-67.675 -138.243)" opacity="0.4"/>
          <path id="Path_3114" data-name="Path 3114" d="M85.194,254.375V211.922L70.6,203.5v42.447Z" transform="translate(-67.675 -141.544)" opacity="0.2"/>
          <path id="Path_3115" data-name="Path 3115" d="M86.337,196.175V160.418l-11.677-6.9v35.915Z" transform="translate(-68.818 -127.479)" fill="#f4cb3c"/>
          <path id="Path_3116" data-name="Path 3116" d="M90.91,196.175V160.418l11.67-6.9v35.915Z" transform="translate(-73.391 -127.479)" fill="#f4cb3c"/>
          <path id="Path_3117" data-name="Path 3117" d="M98.007,150.911l-11.67-6.661L74.66,150.911l11.677,6.9Z" transform="translate(-68.818 -124.87)" fill="#f4cb3c"/>
          <path id="Path_3118" data-name="Path 3118" d="M98.007,150.911l-11.67-6.661L74.66,150.911l11.677,6.9Z" transform="translate(-68.818 -124.87)" opacity="0.4"/>
          <path id="Path_3119" data-name="Path 3119" d="M86.337,196.175V160.418l-11.677-6.9v35.915Z" transform="translate(-68.818 -127.479)" opacity="0.2"/>
          <path id="Path_3120" data-name="Path 3120" d="M90.91,155.86v-5.052L98.2,146.59v5.059Z" transform="translate(-73.391 -125.528)" fill="#f4cb3c"/>
          <path id="Path_3121" data-name="Path 3121" d="M80.75,151.649V146.59l7.3,4.218v5.052Z" transform="translate(-70.532 -125.528)" fill="#f4cb3c"/>
          <path id="Path_3122" data-name="Path 3122" d="M80.75,151.649V146.59l7.3,4.218v5.052Z" transform="translate(-70.532 -125.528)" opacity="0.2"/>
          <path id="Path_3123" data-name="Path 3123" d="M95.344,144.941l-7.294-4.211-7.3,4.211,7.3,4.218Z" transform="translate(-70.532 -123.879)" fill="#f4cb3c"/>
          <path id="Path_3124" data-name="Path 3124" d="M95.344,144.941l-7.294-4.211-7.3,4.211,7.3,4.218Z" transform="translate(-70.532 -123.879)" opacity="0.4"/>
          <path id="Path_3125" data-name="Path 3125" d="M90.91,140.871V117.28l4.376,21.062Z" transform="translate(-73.391 -117.28)" fill="#f4cb3c"/>
          <path id="Path_3126" data-name="Path 3126" d="M90.91,140.871V117.28l4.376,21.062Z" transform="translate(-73.391 -117.28)" opacity="0.1"/>
          <path id="Path_3127" data-name="Path 3127" d="M84.74,138.342l4.434-21.062v23.591Z" transform="translate(-71.655 -117.28)" fill="#f4cb3c"/>
          <path id="Path_3128" data-name="Path 3128" d="M84.74,138.342l4.434-21.062v23.591Z" transform="translate(-71.655 -117.28)" opacity="0.25"/>
        </g>
        <path id="Path_3129" data-name="Path 3129" d="M285.59,347.479a.488.488,0,0,1-.165-.036c-.093-.05-9.758-4.9-24.618-5.583s-21.945,2.156-22.017,2.156a.367.367,0,0,1-.474-.474l21.852-54.008-51.091-5.957a.366.366,0,0,1-.295-.5l8.1-20.034L113.5,250.765a.352.352,0,0,1-.316-.4.366.366,0,0,1,.4-.323l103.856,12.352a.343.343,0,0,1,.266.5l-8.106,20.041,51.091,5.957a.374.374,0,0,1,.273.172.381.381,0,0,1,0,.331l-21.73,53.685c2.22-.719,9.155-2.515,21.557-1.947,15.026.683,24.82,5.6,24.92,5.655a.359.359,0,0,1,.158.489.367.367,0,0,1-.288.2Z" transform="translate(-52.691 -154.641)" fill="#455a64"/>
      </g>
    </g>
    <g id="freepik--Locators--inject-71" transform="translate(52.083 28.149)">
      <g id="freepik--Pin--inject-71">
        <path id="Path_3130" data-name="Path 3130" d="M71.258,59.882V57.727A26.9,26.9,0,0,1,72.624,49.6h0c2.22-6.862,6.9-13.43,12.309-16.527,3.442-1.99,6.582-2.235,8.989-1.042l-4.735-2.723a7.006,7.006,0,0,0-3.938-1.157,5.167,5.167,0,0,0-.661.036,5.349,5.349,0,0,0-.719.079,5.785,5.785,0,0,0-.719.129,7.144,7.144,0,0,0-.719.194,12.093,12.093,0,0,0-1.487.546c-.252.108-.5.237-.762.359s-.517.273-.769.417C71.905,34.251,65.79,45.288,65.79,54.629v2.156c0,9.291,12.5,19.4,12.5,19.4l5.03,2.874a2.154,2.154,0,0,1-.252-.194C79.364,75.339,71.258,67.032,71.258,59.882ZM86.176,40.344a5.661,5.661,0,0,1,.086.719c0,.086,0,.165,0,.252a4.119,4.119,0,0,1,0,.424,15.09,15.09,0,0,1-6.834,11.835l-.41.223c-.137.072-.273.129-.4.187l-.4.165h-.043c.589,3.334,3.363,4.5,6.726,2.573a15.082,15.082,0,0,0,6.827-11.842C91.759,41.02,89.352,39.187,86.176,40.344Z" transform="translate(-65.79 -28.149)" fill="#f4cb3c"/>
        <path id="Path_3131" data-name="Path 3131" d="M71.258,59.882V57.727A26.9,26.9,0,0,1,72.624,49.6h0c2.22-6.862,6.9-13.43,12.309-16.527,3.442-1.99,6.582-2.235,8.989-1.042l-4.735-2.723a7.006,7.006,0,0,0-3.938-1.157,5.167,5.167,0,0,0-.661.036,5.349,5.349,0,0,0-.719.079,5.785,5.785,0,0,0-.719.129,7.144,7.144,0,0,0-.719.194,12.093,12.093,0,0,0-1.487.546c-.252.108-.5.237-.762.359s-.517.273-.769.417C71.905,34.251,65.79,45.288,65.79,54.629v2.156c0,9.291,12.5,19.4,12.5,19.4l5.03,2.874a2.154,2.154,0,0,1-.252-.194C79.364,75.339,71.258,67.032,71.258,59.882Z" transform="translate(-65.79 -28.149)" opacity="0.3"/>
        <path id="Path_3132" data-name="Path 3132" d="M91.028,44.986a5.662,5.662,0,0,1,.086.719c0,.086,0,.165,0,.252a4.114,4.114,0,0,1,0,.424A15.09,15.09,0,0,1,84.28,58.215l-.41.223c-.137.072-.273.129-.4.187l-.4.165H83.03c.589,3.334,3.363,4.5,6.726,2.573A15.082,15.082,0,0,0,96.582,49.52C96.611,45.661,94.2,43.829,91.028,44.986Z" transform="translate(-70.642 -32.791)" opacity="0.5"/>
        <path id="Path_3133" data-name="Path 3133" d="M100.746,43.211c0-9.291-6.115-13.294-13.653-8.932S73.44,49.7,73.44,58.991v2.156c0,7.186,8.106,15.457,11.835,18.9a1.84,1.84,0,0,0,2.874-.546c3.219-6.589,12.6-26.444,12.6-34.14ZM87.093,57.949C83.32,60.1,80.259,58.366,80.259,54a14.985,14.985,0,0,1,6.819-11.8c3.773-2.156,6.834-.417,6.834,3.945a15.033,15.033,0,0,1-6.834,11.8Z" transform="translate(-67.943 -29.378)" fill="#f4cb3c"/>
        <path id="Path_3134" data-name="Path 3134" d="M100.746,43.211c0-9.291-6.115-13.294-13.653-8.932S73.44,49.7,73.44,58.991v2.156c0,7.186,8.106,15.457,11.835,18.9a1.84,1.84,0,0,0,2.874-.546c3.219-6.589,12.6-26.444,12.6-34.14ZM87.093,57.949C83.32,60.1,80.259,58.366,80.259,54a14.985,14.985,0,0,1,6.819-11.8c3.773-2.156,6.834-.417,6.834,3.945a15.033,15.033,0,0,1-6.834,11.8Z" transform="translate(-67.943 -29.378)" fill="#f4cb3c"/>
      </g>
      <g id="freepik--pin--inject-71-2" data-name="freepik--pin--inject-71" transform="translate(121.16 79.734)">
        <path id="Path_3135" data-name="Path 3135" d="M236.225,149.558v-.719a8.81,8.81,0,0,1,.453-2.673h0a9.981,9.981,0,0,1,4.046-5.44,3.09,3.09,0,0,1,2.953-.345l-1.559-.9a2.292,2.292,0,0,0-1.286-.374h-.474a1.373,1.373,0,0,0-.237.043l-.23.057a3.4,3.4,0,0,0-.489.187l-.251.115-.259.137a10.219,10.219,0,0,0-4.491,8.12v.719c0,3.054,4.11,6.374,4.11,6.374l1.66.941-.079-.065C238.891,154.631,236.225,151.908,236.225,149.558Zm4.908-6.424q.006.119,0,.237v.079a.957.957,0,0,1,0,.144,4.965,4.965,0,0,1-2.249,3.888l-.129.072-.137.065-.129.05h0c.187,1.092,1.1,1.473,2.206.841a4.972,4.972,0,0,0,2.242-3.888c.029-1.279-.762-1.868-1.8-1.487Z" transform="translate(-234.4 -139.11)" fill="#f4cb3c"/>
        <path id="Path_3136" data-name="Path 3136" d="M236.225,149.558v-.719a8.81,8.81,0,0,1,.453-2.673h0a9.981,9.981,0,0,1,4.046-5.44,3.09,3.09,0,0,1,2.953-.345l-1.559-.9a2.292,2.292,0,0,0-1.286-.374h-.474a1.373,1.373,0,0,0-.237.043l-.23.057a3.4,3.4,0,0,0-.489.187l-.251.115-.259.137a10.219,10.219,0,0,0-4.491,8.12v.719c0,3.054,4.11,6.374,4.11,6.374l1.66.941-.079-.065C238.891,154.631,236.225,151.908,236.225,149.558Z" transform="translate(-234.4 -139.11)" fill="#fff" opacity="0.6"/>
        <path id="Path_3137" data-name="Path 3137" d="M242.7,144.665q.006.118,0,.237v.223a4.958,4.958,0,0,1-2.242,3.888l-.137.072-.129.065-.137.05h0c.194,1.092,1.107,1.473,2.206.841a4.958,4.958,0,0,0,2.242-3.888C244.537,144.874,243.753,144.284,242.7,144.665Z" transform="translate(-235.993 -140.641)" fill="#fff" opacity="0.6"/>
        <path id="Path_3138" data-name="Path 3138" d="M245.946,144.083c0-3.054-2.012-4.369-4.491-2.939A10.242,10.242,0,0,0,237,149.271v.719c0,2.35,2.659,5.073,3.888,6.209a.6.6,0,0,0,.956-.18c1.056-2.156,4.139-8.688,4.139-11.217Zm-4.491,4.843c-1.243.719-2.249.137-2.249-1.293a4.965,4.965,0,0,1,2.249-3.88c1.236-.719,2.242-.137,2.242,1.3A4.966,4.966,0,0,1,241.455,148.926Z" transform="translate(-235.132 -139.519)" fill="#f4cb3c"/>
        <path id="Path_3139" data-name="Path 3139" d="M245.946,144.083c0-3.054-2.012-4.369-4.491-2.939A10.242,10.242,0,0,0,237,149.271v.719c0,2.35,2.659,5.073,3.888,6.209a.6.6,0,0,0,.956-.18c1.056-2.156,4.139-8.688,4.139-11.217Zm-4.491,4.843c-1.243.719-2.249.137-2.249-1.293a4.965,4.965,0,0,1,2.249-3.88c1.236-.719,2.242-.137,2.242,1.3A4.966,4.966,0,0,1,241.455,148.926Z" transform="translate(-235.132 -139.519)" fill="#f4cb3c"/>
        <g id="Group_767" data-name="Group 767" transform="translate(1.868 1.046)" opacity="0.8">
          <path id="Path_3140" data-name="Path 3140" d="M245.946,144.083c0-3.054-2.012-4.369-4.491-2.939A10.242,10.242,0,0,0,237,149.271v.719c0,2.35,2.659,5.073,3.888,6.209a.6.6,0,0,0,.956-.18c1.056-2.156,4.139-8.688,4.139-11.217Zm-4.491,4.843c-1.243.719-2.249.137-2.249-1.293a4.965,4.965,0,0,1,2.249-3.88c1.236-.719,2.242-.137,2.242,1.3A4.966,4.966,0,0,1,241.455,148.926Z" transform="translate(-237 -140.566)" fill="#fff"/>
        </g>
      </g>
      <g id="freepik--pin--inject-71-3" data-name="freepik--pin--inject-71" transform="translate(204.881 126.707)">
        <path id="Path_3141" data-name="Path 3141" d="M352.706,214.914V214.2a8.808,8.808,0,0,1,.453-2.673h0a9.981,9.981,0,0,1,4.046-5.44,3.09,3.09,0,0,1,2.953-.345l-1.559-.884a2.314,2.314,0,0,0-1.293-.374h-.445l-.23.043-.237.057a4.2,4.2,0,0,0-.489.187l-.244.115-.259.137a10.274,10.274,0,0,0-4.491,8.12v.719c0,3.054,4.11,6.374,4.11,6.374l1.66.941-.079-.065C355.372,219.944,352.706,217.228,352.706,214.914Zm4.908-6.424a2.364,2.364,0,0,1,0,.237v.079a.957.957,0,0,1,0,.144,4.965,4.965,0,0,1-2.249,3.888l-.129.072-.137.065-.129.05h0c.194,1.092,1.107,1.437,2.213.841a4.972,4.972,0,0,0,2.242-3.888c.022-1.3-.769-1.9-1.811-1.531Z" transform="translate(-350.91 -204.48)" fill="#f4cb3c"/>
        <path id="Path_3142" data-name="Path 3142" d="M352.706,214.914V214.2a8.808,8.808,0,0,1,.453-2.673h0a9.981,9.981,0,0,1,4.046-5.44,3.09,3.09,0,0,1,2.953-.345l-1.559-.884a2.314,2.314,0,0,0-1.293-.374h-.445l-.23.043-.237.057a4.2,4.2,0,0,0-.489.187l-.244.115-.259.137a10.274,10.274,0,0,0-4.491,8.12v.719c0,3.054,4.11,6.374,4.11,6.374l1.66.941-.079-.065C355.372,219.944,352.706,217.228,352.706,214.914Z" transform="translate(-350.91 -204.48)" fill="#fff" opacity="0.6"/>
        <path id="Path_3143" data-name="Path 3143" d="M359.174,209.957q.006.118,0,.237v.223a4.958,4.958,0,0,1-2.242,3.888l-.137.072-.129.065-.137.05h0c.194,1.092,1.107,1.437,2.206.841a4.958,4.958,0,0,0,2.242-3.888C361.007,210.187,360.216,209.583,359.174,209.957Z" transform="translate(-352.492 -205.99)" fill="#fff" opacity="0.6"/>
        <path id="Path_3144" data-name="Path 3144" d="M362.4,209.383c0-3.054-2.012-4.369-4.491-2.939a10.283,10.283,0,0,0-4.5,8.127v.719c0,2.35,2.666,5.073,3.895,6.209a.6.6,0,0,0,.956-.18c1.056-2.156,4.139-8.688,4.139-11.217Zm-4.491,4.843c-1.243.719-2.249.137-2.249-1.293a4.965,4.965,0,0,1,2.249-3.895c1.236-.719,2.242-.137,2.242,1.3A4.965,4.965,0,0,1,357.908,214.226Z" transform="translate(-351.614 -204.87)" fill="#f4cb3c"/>
        <path id="Path_3145" data-name="Path 3145" d="M362.4,209.383c0-3.054-2.012-4.369-4.491-2.939a10.283,10.283,0,0,0-4.5,8.127v.719c0,2.35,2.666,5.073,3.895,6.209a.6.6,0,0,0,.956-.18c1.056-2.156,4.139-8.688,4.139-11.217Zm-4.491,4.843c-1.243.719-2.249.137-2.249-1.293a4.965,4.965,0,0,1,2.249-3.895c1.236-.719,2.242-.137,2.242,1.3A4.965,4.965,0,0,1,357.908,214.226Z" transform="translate(-351.614 -204.87)" fill="#f4cb3c"/>
        <g id="Group_768" data-name="Group 768" transform="translate(1.796 0.996)" opacity="0.8">
          <path id="Path_3146" data-name="Path 3146" d="M362.4,209.383c0-3.054-2.012-4.369-4.491-2.939a10.283,10.283,0,0,0-4.5,8.127v.719c0,2.35,2.666,5.073,3.895,6.209a.6.6,0,0,0,.956-.18c1.056-2.156,4.139-8.688,4.139-11.217Zm-4.491,4.843c-1.243.719-2.249.137-2.249-1.293a4.965,4.965,0,0,1,2.249-3.895c1.236-.719,2.242-.137,2.242,1.3A4.965,4.965,0,0,1,357.908,214.226Z" transform="translate(-353.41 -205.866)" fill="#fff"/>
        </g>
      </g>
    </g>
    <g id="freepik--Arrow--inject-71" transform="translate(296.058 306.288)">
      <g id="freepik--arrow--inject-71-2" data-name="freepik--arrow--inject-71">
        <path id="Path_3147" data-name="Path 3147" d="M452.449,432.711h0v-6.3L405.36,415.58v6.295h0a.9.9,0,0,0,.216.517L423.907,448.1c.453.632.941.525,1.085-.237l2.321-12.065a1.9,1.9,0,0,1,1.667-1.437l22.865-1.437C452.247,432.847,452.441,432.79,452.449,432.711Z" transform="translate(-405.327 -415.319)" fill="#f4cb3c"/>
        <path id="Path_3148" data-name="Path 3148" d="M452.449,432.711h0v-6.3L405.36,415.58v6.295h0a.9.9,0,0,0,.216.517L423.907,448.1c.453.632.941.525,1.085-.237l2.321-12.065a1.9,1.9,0,0,1,1.667-1.437l22.865-1.437C452.247,432.847,452.441,432.79,452.449,432.711Z" transform="translate(-405.327 -415.319)" opacity="0.3"/>
        <path id="Path_3149" data-name="Path 3149" d="M431.74,452.618c.309.144.582-.057.683-.6l2.321-12.065a1.826,1.826,0,0,1,.381-.776v-8.86l-3.385,4.958Z" transform="translate(-412.751 -419.467)" opacity="0.2"/>
        <path id="Path_3150" data-name="Path 3150" d="M424.986,441.462l2.321-12.029A1.9,1.9,0,0,1,428.974,428l22.872-1.437c.769-.05.783-.237,0-.417l-45.759-10.879c-.755-.18-1,.187-.546.819l18.331,25.711C424.353,442.367,424.842,442.223,424.986,441.462Z" transform="translate(-405.314 -415.216)" fill="#f4cb3c"/>
      </g>
    </g>
  </g>
</svg>
