<svg xmlns="http://www.w3.org/2000/svg" width="40.723" height="37.591" viewBox="0 0 40.723 37.591">
  <defs>
    <style>
      .cls-1 {
        fill: #f7f7f7;
      }
    </style>
  </defs>
  <path id="Icon_awesome-arrow-right" data-name="Icon awesome-arrow-right" class="cls-1" d="M23.408,37.721l-2.018,1.911a2.259,2.259,0,0,1-3.081,0L.641,22.906a1.982,1.982,0,0,1,0-2.918L18.31,3.254a2.259,2.259,0,0,1,3.081,0l2.018,1.911a1.993,1.993,0,0,1-.036,2.953L12.42,18H38.542a2.121,2.121,0,0,1,2.181,2.066V22.82a2.121,2.121,0,0,1-2.181,2.066H12.42l10.952,9.882A1.979,1.979,0,0,1,23.408,37.721Z" transform="translate(0 -2.647)"/>
</svg>
