<svg xmlns="http://www.w3.org/2000/svg" xmlns:xlink="http://www.w3.org/1999/xlink" width="219" height="127" viewBox="0 0 219 127">
  <defs>
    <style>
      .cls-1 {
        stroke-linecap: round;
        stroke-linejoin: round;
      }

      .cls-2, .cls-5 {
        fill: #f4cb3c;
      }

      .cls-2 {
        font-size: 60px;
        font-family: Avenir-Book, Avenir;
      }

      .cls-3 {
        fill: none;
      }

      .cls-4, .cls-5 {
        stroke: none;
      }

      .cls-6 {
        filter: url(#Path_3165);
      }

      .cls-7 {
        filter: url(#Path_3164);
      }
    </style>
    <filter id="Path_3164" x="24.875" y="29.5" width="189.25" height="97.5" filterUnits="userSpaceOnUse">
      <feOffset dx="5" dy="8" input="SourceAlpha"/>
      <feGaussianBlur stdDeviation="2.5" result="blur"/>
      <feFlood flood-color="#403d35"/>
      <feComposite operator="in" in2="blur"/>
      <feComposite in="SourceGraphic"/>
    </filter>
    <filter id="Path_3165" x="0" y="0" width="219" height="118.5" filterUnits="userSpaceOnUse">
      <feOffset dx="-5" dy="-15" input="SourceAlpha"/>
      <feGaussianBlur stdDeviation="2.5" result="blur-2"/>
      <feFlood flood-color="#fff"/>
      <feComposite operator="in" in2="blur-2"/>
      <feComposite in="SourceGraphic"/>
    </filter>
  </defs>
  <g id="Group_823" data-name="Group 823" transform="translate(-271.5 -726.5)">
    <g class="cls-7" transform="matrix(1, 0, 0, 1, 271.5, 726.5)">
      <g id="Path_3164-2" data-name="Path 3164" class="cls-1" transform="translate(27.38 29.5)">
        <path class="cls-4" d="M 157.1666870117188 80.5 L 17.08334159851074 80.5 C 12.92088603973389 80.5 9.007568359375 78.87904357910156 6.064249992370605 75.93575286865234 C 3.120954513549805 72.992431640625 1.5 69.07913970947266 1.5 64.91667938232422 L 1.5 17.08334159851074 C 1.5 12.92088603973389 3.120954513549805 9.007568359375 6.064249992370605 6.064249992370605 C 9.007568359375 3.120954513549805 12.92088603973389 1.5 17.08334159851074 1.5 L 157.1666870117188 1.5 C 161.3291320800781 1.5 165.2424621582031 3.120954513549805 168.1857452392578 6.064249992370605 C 171.1290435791016 9.007568359375 172.75 12.92088603973389 172.75 17.08334159851074 L 172.75 64.91667938232422 C 172.75 69.07913970947266 171.1290435791016 72.99245452880859 168.1857452392578 75.93575286865234 C 165.2424621582031 78.87904357910156 161.3291320800781 80.5 157.1666870117188 80.5 Z"/>
        <path class="cls-5" d="M 17.08332824707031 3 C 13.32151794433594 3 9.784896850585938 4.464927673339844 7.124923706054688 7.124923706054688 C 4.464920043945312 9.784896850585938 3 13.32152557373047 3 17.08332824707031 L 3 64.91667175292969 C 3 68.67847442626953 4.464920043945312 72.21510314941406 7.124923706054688 74.87507629394531 C 9.784896850585938 77.53507232666016 13.32151794433594 79 17.08332824707031 79 L 157.1666717529297 79 C 160.9284820556641 79 164.4651031494141 77.53507232666016 167.1250762939453 74.87507629394531 C 169.7850799560547 72.21510314941406 171.25 68.67847442626953 171.25 64.91667175292969 L 171.25 17.08332824707031 C 171.25 13.32152557373047 169.7850799560547 9.784896850585938 167.1250762939453 7.124923706054688 C 164.4651031494141 4.464927673339844 160.9284820556641 3 157.1666717529297 3 L 17.08332824707031 3 M 17.08332824707031 0 L 157.1666717529297 0 C 166.6015319824219 0 174.25 7.648475646972656 174.25 17.08332824707031 L 174.25 64.91667175292969 C 174.25 74.35152435302734 166.6015319824219 82 157.1666717529297 82 L 17.08332824707031 82 C 7.648468017578125 82 0 74.35152435302734 0 64.91667175292969 L 0 17.08332824707031 C 0 7.648475646972656 7.648468017578125 0 17.08332824707031 0 Z"/>
      </g>
    </g>
    <text id="Login" class="cls-2" transform="translate(311 816)"><tspan x="0" y="0">Login</tspan></text>
    <g class="cls-6" transform="matrix(1, 0, 0, 1, 271.5, 726.5)">
      <path id="Path_3165-2" data-name="Path 3165" class="cls-3" d="M20,0H184a20,20,0,0,1,20,20V76a20,20,0,0,1-20,20H20A20,20,0,0,1,0,76V20A20,20,0,0,1,20,0Z" transform="translate(12.5 22.5)"/>
    </g>
  </g>
</svg>
