<svg xmlns="http://www.w3.org/2000/svg" width="213.259" height="29.25" viewBox="0 0 213.259 29.25">
  <g id="Group_810" data-name="Group 810" transform="translate(-1475 -1141)">
    <path id="Icon_ionic-ios-arrow-dropleft-circle" data-name="Icon ionic-ios-arrow-dropleft-circle" d="M18,3.375A14.625,14.625,0,1,0,32.625,18,14.623,14.623,0,0,0,18,3.375ZM21.052,23.7a1.362,1.362,0,0,1,0,1.92,1.34,1.34,0,0,1-.956.394,1.364,1.364,0,0,1-.963-.4l-6.609-6.63a1.355,1.355,0,0,1,.042-1.87l6.708-6.729a1.357,1.357,0,1,1,1.92,1.92L15.434,18Z" transform="translate(1471.625 1137.625)" fill="#766838"/>
    <path id="Icon_ionic-ios-arrow-dropleft-circle-2" data-name="Icon ionic-ios-arrow-dropleft-circle" d="M18,3.375A14.625,14.625,0,1,1,3.375,18,14.623,14.623,0,0,1,18,3.375ZM14.948,23.7a1.362,1.362,0,0,0,0,1.92,1.34,1.34,0,0,0,.956.394,1.364,1.364,0,0,0,.963-.4l6.609-6.63a1.355,1.355,0,0,0-.042-1.87l-6.708-6.729a1.357,1.357,0,0,0-1.92,1.92L20.566,18Z" transform="translate(1655.634 1137.625)" fill="#766838"/>
  </g>
</svg>
