<svg xmlns="http://www.w3.org/2000/svg" xmlns:xlink="http://www.w3.org/1999/xlink" width="126.217" height="63.301" viewBox="0 0 126.217 63.301">
  <defs>
    <filter id="Union_139" x="77.195" y="29.918" width="49.022" height="33.383" filterUnits="userSpaceOnUse">
      <feOffset dy="3" input="SourceAlpha"/>
      <feGaussianBlur stdDeviation="4" result="blur"/>
      <feFlood flood-opacity="0.349"/>
      <feComposite operator="in" in2="blur"/>
      <feComposite in="SourceGraphic"/>
    </filter>
    <filter id="Subtraction_131" x="78.827" y="0" width="45.759" height="51.198" filterUnits="userSpaceOnUse">
      <feOffset dy="3" input="SourceAlpha"/>
      <feGaussianBlur stdDeviation="4" result="blur-2"/>
      <feFlood flood-opacity="0.349"/>
      <feComposite operator="in" in2="blur-2"/>
      <feComposite in="SourceGraphic"/>
    </filter>
  </defs>
  <g id="Group_779" data-name="Group 779" transform="translate(-13 2.254)">
    <g id="Group_782" data-name="Group 782">
      <g id="Group_658" data-name="Group 658" transform="translate(13 6)">
        <g id="Group_653" data-name="Group 653" transform="translate(89.195 0.746)">
          <g transform="matrix(1, 0, 0, 1, -89.2, -9)" filter="url(#Union_139)">
            <path id="Union_139-2" data-name="Union 139" d="M22.5,8.736l-.01.006h0A11.284,11.284,0,0,0,2.607,8.6L2.6,8.591A1.36,1.36,0,1,1,.229,7.268c.206-.374.43-.741.667-1.092A14.048,14.048,0,0,1,7.059,1.1,13.989,13.989,0,0,1,20.343,2.392a14.084,14.084,0,0,1,3.783,3.783c.238.352.462.719.667,1.093A1.36,1.36,0,1,1,22.5,8.736Z" transform="translate(89.2 38.92)" fill="#f9fafb"/>
          </g>
          <path id="Subtraction_134" data-name="Subtraction 134" d="M11.151,9.383a1.359,1.359,0,0,1-1.159-.648l-.01.006A11.278,11.278,0,0,0,0,2.72a1.351,1.351,0,0,0,.961-.4,1.351,1.351,0,0,0,.4-.961A1.361,1.361,0,0,0,0,0,13.919,13.919,0,0,1,5.452,1.1,14,14,0,0,1,7.831,2.392,14.124,14.124,0,0,1,9.9,4.1a14.116,14.116,0,0,1,1.71,2.073c.237.351.462.719.667,1.093a1.36,1.36,0,0,1-1.131,2.115Z" transform="translate(12.511 29.918)" fill="#f9fafb"/>
          <g transform="matrix(1, 0, 0, 1, -89.2, -9)" filter="url(#Subtraction_131)">
            <path id="Subtraction_131-2" data-name="Subtraction 131" d="M10.879,27.2a6.716,6.716,0,0,1-4.235-1.7A13.065,13.065,0,0,1,4.8,23.619a18.984,18.984,0,0,1-1.61-2.327A24.761,24.761,0,0,1,.855,15.964,18,18,0,0,1,0,10.879,10.828,10.828,0,0,1,1.858,4.8,10.911,10.911,0,0,1,6.645.855a10.865,10.865,0,0,1,10.317,1A10.911,10.911,0,0,1,20.9,6.645a10.811,10.811,0,0,1,.855,4.235,18,18,0,0,1-.855,5.085,24.761,24.761,0,0,1-2.332,5.328,18.985,18.985,0,0,1-1.61,2.327,13.065,13.065,0,0,1-1.848,1.874A6.716,6.716,0,0,1,10.879,27.2Zm0-24.478c-4.726,0-8.157,3.545-8.157,8.43A19.815,19.815,0,0,0,5,19.617c1.651,3.135,3.74,4.862,5.881,4.862s4.228-1.727,5.877-4.862a19.832,19.832,0,0,0,2.272-8.467C19.029,6.265,15.6,2.72,10.879,2.72Z" transform="translate(90.83 9)" fill="#f9fafb"/>
          </g>
          <path id="Subtraction_132" data-name="Subtraction 132" d="M0,27.2H0v-2.72c2.141,0,4.228-1.727,5.877-4.862A19.833,19.833,0,0,0,8.15,11.15C8.15,6.265,4.722,2.72,0,2.72A1.362,1.362,0,0,0,1.36,1.36,1.361,1.361,0,0,0,0,0,10.812,10.812,0,0,1,4.235.855a10.886,10.886,0,0,1,1.848,1,10.957,10.957,0,0,1,1.61,1.328A10.957,10.957,0,0,1,9.021,4.8a10.886,10.886,0,0,1,1,1.848,10.812,10.812,0,0,1,.855,4.235,18.006,18.006,0,0,1-.855,5.085,24.762,24.762,0,0,1-2.332,5.328,18.986,18.986,0,0,1-1.61,2.327,13.072,13.072,0,0,1-1.848,1.874A6.717,6.717,0,0,1,0,27.2Z" transform="translate(12.511 0)" fill="#f9fafb"/>
        </g>
        <text id="Profile" transform="translate(0 30)" fill="#f9fafb" font-size="30" font-family="Avenir-Book, Avenir"><tspan x="0" y="0">Profile</tspan></text>
      </g>
    </g>
  </g>
</svg>
