<svg xmlns="http://www.w3.org/2000/svg" width="24.966" height="23.046" viewBox="0 0 24.966 23.046">
  <path id="Icon_awesome-arrow-right" data-name="Icon awesome-arrow-right" d="M10.615,4.191l1.237-1.172a1.385,1.385,0,0,1,1.889,0L24.573,13.273a1.215,1.215,0,0,1,0,1.789L13.741,25.322a1.385,1.385,0,0,1-1.889,0L10.615,24.15a1.222,1.222,0,0,1,.022-1.81l6.715-6.058H1.337A1.3,1.3,0,0,1,0,15.015V13.326A1.3,1.3,0,0,1,1.337,12.06H17.352L10.637,6A1.213,1.213,0,0,1,10.615,4.191Z" transform="translate(0 -2.647)" fill="rgba(255,255,255,0.3)"/>
</svg>
