<svg xmlns="http://www.w3.org/2000/svg" width="37.919" height="17.501" viewBox="0 0 37.919 17.501">
  <g id="Group_760" data-name="Group 760" transform="translate(-1709 -778.999)">
    <g id="Group_761" data-name="Group 761" transform="translate(-3 -2.001)">
      <path id="Path_2790" data-name="Path 2790" d="M30.579,11A3.828,3.828,0,1,1,26.75,7.172,3.828,3.828,0,0,1,30.579,11Z" transform="translate(1714.418 778.75)" fill="#f4cb3c"/>
      <path id="Path_2791" data-name="Path 2791" d="M12.171,20.876H32.5a8.751,8.751,0,1,0,0-17.5H12.171a8.751,8.751,0,1,0,0,17.5ZM32.544,6.292a5.834,5.834,0,1,1-5.834,5.834A5.839,5.839,0,0,1,32.544,6.292Z" transform="translate(1708.625 777.625)" fill="#f0f0f0"/>
    </g>
  </g>
</svg>
